<?xml version="1.0" encoding="utf-8"?>
<!-- Generator: Adobe Illustrator 26.0.0, SVG Export Plug-In . SVG Version: 6.00 Build 0)  -->
<svg version="1.1" xmlns="http://www.w3.org/2000/svg" xmlns:xlink="http://www.w3.org/1999/xlink" x="0px" y="0px"
	 viewBox="0 0 3253 3248" style="enable-background:new 0 0 3253 3248;" xml:space="preserve">
<style type="text/css">
	.st0{fill:#E3D7FB;}
	.st1{fill:none;stroke:#FFFFFF;stroke-width:5;stroke-miterlimit:10;}
	.st2{fill:#6D1837;}
	.st3{fill:#FFE082;}
	.st4{opacity:0.55;}
	.st5{fill:#FFFFFF;}
	.st6{fill:#EC1C24;}
	.st7{opacity:0.25;}
	.st8{opacity:0.35;}
	.st9{fill:#FF3B3C;}
	.st10{opacity:0.3;}
	.st11{fill:#3AB4FF;}
	.st12{fill:#611940;}
	.st13{fill:#F2355D;stroke:#611940;stroke-width:0;stroke-miterlimit:10;}
</style>
<g id="Capa_2">
	<path class="st0" d="M2150,3146H270c-27.5,0-50-22.5-50-50V313c0-27.5,22.5-50,50-50h1880c27.5,0,50,22.5,50,50v2783
		C2200,3123.5,2177.5,3146,2150,3146z"/>
	<path class="st1" d="M2030,3013H150c-27.5,0-50-22.5-50-50V180c0-27.5,22.5-50,50-50h1880c27.5,0,50,22.5,50,50v2783
		C2080,2990.5,2057.5,3013,2030,3013z"/>
</g>
<g id="Layer_1">
	<g>
		<g>
			<path class="st2" d="M2339.6,2314.38c-16.37,0-29.75-13.14-29.99-29.57c-0.24-16.57,12.99-30.19,29.56-30.43
				c215.68-3.13,441.28-206.71,443.54-208.77c12.23-11.16,31.21-10.3,42.38,1.93c11.17,12.23,10.32,31.19-1.91,42.37
				c-9.87,9.02-244.49,221.01-483.14,224.46C2339.9,2314.38,2339.74,2314.38,2339.6,2314.38z"/>
		</g>
		<g>
			<path class="st2" d="M1971.98,2893.15c-13.06,0-26.01-3.62-37.3-10.66c-0.41-0.25-0.81-0.52-1.21-0.8l-320.74-222.07
				c-13.62-9.43-17.02-28.12-7.59-41.74c9.43-13.63,28.12-17.02,41.74-7.59l319.96,221.53c3.31,1.87,6.45,1.38,8.07,0.91
				c1.68-0.5,4.77-1.88,6.51-5.58l24.09-50.99c7.08-14.99,24.97-21.38,39.94-14.31c14.98,7.08,21.39,24.96,14.31,39.94l-24.09,50.99
				c-8.58,18.16-24.56,31.84-43.83,37.5C1985.33,2892.21,1978.64,2893.15,1971.98,2893.15z"/>
		</g>
		<g>
			<path class="st2" d="M2543.45,2802.44c-13.06,0-26.01-3.63-37.3-10.66c-1.09-0.68-2.13-1.43-3.12-2.24l-292.75-239.55
				c-12.82-10.49-14.71-29.39-4.22-42.22c10.49-12.82,29.39-14.71,42.22-4.22l290.78,237.93c3.04,1.43,5.84,0.97,7.33,0.53
				c1.68-0.5,4.77-1.88,6.51-5.58l24.09-50.99c7.08-14.98,24.98-21.38,39.94-14.31c14.98,7.08,21.39,24.96,14.31,39.94l-24.09,50.99
				c-8.58,18.16-24.56,31.84-43.84,37.5C2556.8,2801.49,2550.11,2802.44,2543.45,2802.44z"/>
		</g>
		<g>
			<g>
				<path class="st3" d="M2643.8,1278.02l-38.8-0.05l-1646.7-2.05c-40.3-70.7-35.25-153.05,1.55-214.95
					c50.75-85.4,162-131.75,298.05-54.35c17.15-76.95,60.4-115.05,148.4-86.6c30.7-200,268.8-279.7,436.65-90.25
					c46.9-84.8,160.6-57.75,157,46.95c74-133.55,267.05-95.65,246.55,83c67.45-41.5,143.1-16.25,138.25,71.35
					C2555.75,947.07,2758.05,1086.02,2643.8,1278.02z"/>
			</g>
			<g class="st4">
				<path class="st5" d="M2675.2,1194.57c-18.4-114.6-163.1-175.7-290.45-113.15c4.85-87.6-70.8-112.85-138.25-71.35
					c20.5-178.65-172.55-216.55-246.55-83c3.6-104.7-110.1-131.75-157-46.95c-155.22-175.2-370.52-120.22-426.32,47.21
					c-7.22,21.67-27.96,36.4-50.69,34.23c-61.33-5.86-93.75,31.28-108.04,95.41c-176.2-100.3-310.8,7.05-326.3,138
					c-17.85-150.85,127.85-301.25,326.3-188.35c17.15-76.95,60.4-115.05,148.4-86.6c30.7-200,268.8-279.7,436.65-90.25
					c46.9-84.8,160.6-57.75,157,46.95c74-133.55,267.05-95.65,246.55,83c67.45-41.5,143.1-16.25,138.25,71.35
					C2529.7,959.87,2697.15,1048.87,2675.2,1194.57z"/>
			</g>
			<g>
				<path class="st2" d="M2643.77,1296.16c-3.15,0-6.35-0.82-9.25-2.55c-8.6-5.12-11.43-16.25-6.31-24.85
					c42.65-71.66,40.92-141.13-4.73-190.6c-53.03-57.47-150.07-70.42-230.72-30.81c-5.79,2.84-12.64,2.4-18-1.15
					c-5.37-3.55-8.45-9.69-8.1-16.12c1.66-30.13-7.71-52.84-26.36-63.95c-21.84-13-54.14-9.54-84.29,9.03
					c-5.91,3.64-13.37,3.58-19.23-0.14c-5.85-3.73-9.07-10.47-8.28-17.36c9.4-81.92-30.31-124.91-70.61-137.83
					c-43.24-13.86-106.14,0.78-142.09,65.67c-4.06,7.33-12.63,10.93-20.7,8.68c-8.08-2.24-13.57-9.72-13.28-18.1
					c1.61-46.46-22.72-69.9-46.03-76.35c-29.23-8.1-59.46,7.16-76.98,38.83c-2.85,5.15-8.03,8.6-13.88,9.25
					c-5.86,0.66-11.66-1.59-15.56-6c-74.64-84.27-171.64-119.14-259.47-93.28c-78,22.96-132.46,88.1-145.67,174.24
					c-0.81,5.25-3.88,9.89-8.4,12.68c-4.52,2.79-10.04,3.46-15.1,1.82c-34.96-11.3-62.69-11.3-82.42-0.02
					c-20.05,11.47-34.42,36.14-42.71,73.34c-1.25,5.61-5.09,10.3-10.35,12.63c-5.26,2.34-11.31,2.03-16.31-0.82
					c-93.29-53.1-185.24-48.5-245.98,12.29c-60.48,60.52-72.37,156.03-28.92,232.25c4.96,8.7,1.93,19.77-6.77,24.73
					c-8.69,4.95-19.78,1.93-24.73-6.77c-51.53-90.37-37.23-203.79,34.76-275.84c68.37-68.43,167.69-78.7,269.01-29.06
					c11.46-35.68,29.24-60.07,53.99-74.23c24.64-14.08,55.48-16.92,91.89-8.49c20.45-89.34,83.17-158.72,167.46-183.54
					c95.44-28.09,199.09,4.45,281.08,87.19c26.85-32.35,66.58-46.7,104.72-36.15c31.94,8.84,55.43,32.81,66.18,65.25
					c41.82-44.37,101.65-62.58,157.31-44.74c48.23,15.46,96.03,61.34,97.22,144.86c33.18-11.94,66.86-10.55,92.68,4.82
					c23.96,14.26,38.73,38.27,42.98,69.06c90.12-33.38,189.14-14.56,248.29,49.53c56.47,61.2,59.93,148.57,9.24,233.73
					C2655.98,1292.99,2649.95,1296.16,2643.77,1296.16z"/>
			</g>
			<g>
				<path class="st5" d="M2682.23,1360.11l-45.45,341.05l-38.1,285.45l-5,37.3l-7,52.4l-28.95,217.5v0.05l-4,30l-25.6,191.95
					c-10.4,77.85-76.75,136-155.3,136h-699.25c-63.05,0-115.1-49.25-118.65-112.15l-13.05-232.75c0-0.1,0-0.15-0.05-0.25
					l-0.65-12.35v-0.5l-13.55-240.7l-3.6-64.5l-1.3-23.05l-13.75-244.45l-20.25-361c0-173.25,238.7-173.25,238.7,0
					c0-166.65,220.9-173,237.65-18.95c0,0,0,0.05,0,0.1c0.7,6,1.05,12.3,1.05,18.85c0-173.25,238.7-173.25,238.7,0
					c0-173.25,238.7-173.25,238.7,0c0-22.7,4.1-42.35,11.2-59.1C2501.88,1189.81,2682.23,1209.51,2682.23,1360.11z"/>
			</g>
			<g>
				<path class="st6" d="M2204.83,1360.09l-51.37,1291.7h-188.39l1.04-1291.7C1966.11,1186.86,2204.83,1186.86,2204.83,1360.09z"/>
			</g>
			<g>
				<path class="st6" d="M1727.44,1360.09v1291.7h-53.89c-63.04,0-115.07-49.22-118.61-112.13l-66.22-1179.57
					C1488.73,1186.86,1727.44,1186.86,1727.44,1360.09z"/>
			</g>
			<g>
				<path class="st6" d="M2682.21,1360.09l-154.1,1155.73c-10.38,77.86-76.73,135.97-155.28,135.97h-22.98l93.68-1291.7l11.2-59.06
					C2501.87,1189.81,2682.21,1209.52,2682.21,1360.09z"/>
			</g>
			<g class="st7">
				<path class="st2" d="M2605,1277.97l-1646.7-2.05c-40.3-70.7-35.25-153.05,1.55-214.95l15.15,1.65
					c30.69,49.76,83.91,94.43,156.69,94.65c24.98,0.08,47.95-13.35,61.56-34.3c43.33-66.68,98.6-87.27,141.5-60.35
					c51.92-54.48,147.75-59.8,165.4,39.4c28.9-28.75,56.75-28.9,83.2,11.1c87.85,64.75,180.9,83.35,286.65-11.1
					c48.95-32.15,92.7-30.55,130,12.8c4.17,2.54,8.46,4.81,12.87,6.82c36.18,16.49,78.49,7.7,107.3-19.7
					c42.14-40.09,89.49-57.55,149.08-21.62c62.45-21.8,105.95-12.65,105.75,67.8c82-42.85,159.25-57.35,210.55,84.15
					C2585.55,1232.27,2598.1,1253.02,2605,1277.97z"/>
			</g>
			<g>
				<path class="st5" d="M1673.55,2651.78h-452.64c-65.54,0-120.92-48.54-129.49-113.49L935.79,1360.09
					c0-161.58,160.4-172.45,181.93-32.54c1.59,10.06,2.4,20.89,2.4,32.54c0-173.22,184.28-173.22,184.28,0
					c0-173.22,184.33-173.22,184.33,0l66.22,1179.57C1558.48,2602.56,1610.51,2651.78,1673.55,2651.78z"/>
			</g>
			<g class="st4">
				<path class="st5" d="M2682.21,1360.09l-3.99,29.78c-26.74-116.3-180.52-123.78-223.49-22.34c-7.12,16.72-11.2,36.39-11.2,59.06
					c0-173.22-238.71-173.22-238.71,0c0-173.22-238.71-173.22-238.71,0c0-6.53-0.32-12.83-1.04-18.85c0-0.05,0-0.09,0-0.09
					c-16.72-154.05-237.63-147.71-237.63,18.94c0-163.57-212.83-172.68-236.54-27.37l-2.18-39.11c0-173.22,238.71-173.22,238.71,0
					c0-166.65,220.9-173,237.63-18.94c0,0,0,0.04,0,0.09c0.73,6.03,1.04,12.33,1.04,18.85c0-173.22,238.71-173.22,238.71,0
					c0-173.22,238.71-173.22,238.71,0c0-22.66,4.08-42.33,11.2-59.06C2501.87,1189.81,2682.21,1209.52,2682.21,1360.09z"/>
			</g>
			<g class="st8">
				<path class="st2" d="M1566.91,2651.78h-345.99c-65.54,0-120.92-48.54-129.49-113.49L939.37,1387.28
					c23.7-123.01,158.72-120.79,178.34,6.75c1.59,10.06,2.4,20.89,2.4,32.54c0-173.22,184.28-173.22,184.28,0
					c0-173.22,184.33-173.22,184.33,0l66.22,1179.57C1555.85,2622.5,1560.07,2637.91,1566.91,2651.78z"/>
			</g>
			<g>
				<path class="st2" d="M2372.84,2669.91h-699.29c-72.59,0-132.64-56.77-136.71-129.24l-66.22-1179.57
					c-0.02-0.34-0.03-0.68-0.03-1.02c0-97.19,69.17-148.05,137.49-148.05c46.96,0,94.33,24.04,119.36,70.63
					c25.01-46.6,72.37-70.63,119.33-70.63c46.96,0,94.32,24.04,119.34,70.63c25.02-46.6,72.39-70.63,119.36-70.63
					c46.97,0,94.34,24.03,119.36,70.64c25.02-46.61,72.38-70.64,119.36-70.64c46.97,0,94.34,24.04,119.36,70.63
					c25.01-46.6,72.38-70.63,119.34-70.63c68.31,0,137.47,50.85,137.47,148.05c0,0.8-0.05,1.6-0.16,2.4l-154.1,1155.73
					C2534.55,2604.69,2460.08,2669.91,2372.84,2669.91z M1506.86,1359.59l66.19,1179.05c2.99,53.28,47.14,95.01,100.51,95.01h699.29
					c69.14,0,128.16-51.69,137.3-120.23l153.93-1154.51c-0.24-34.58-11.21-63.35-31.76-83.23c-18.25-17.66-42.91-27.38-69.44-27.38
					c-48.75,0-101.21,34.98-101.21,111.79c0,10.01-8.12,18.13-18.13,18.13s-18.13-8.12-18.13-18.13
					c0-76.81-52.47-111.79-101.23-111.79c-48.76,0-101.23,34.98-101.23,111.79c0,10.01-8.12,18.13-18.13,18.13
					c-10.01,0-18.13-8.12-18.13-18.13c0-76.81-52.47-111.79-101.23-111.79c-48.75,0-101.23,34.98-101.23,111.79
					c0,10.01-8.12,18.13-18.13,18.13s-18.13-8.12-18.13-18.13c0-35.11-10.99-64.3-31.77-84.41c-18.25-17.66-42.91-27.38-69.44-27.38
					c-48.74,0-101.2,34.98-101.2,111.79c0,10.01-8.12,18.13-18.13,18.13s-18.13-8.12-18.13-18.13
					c0-76.81-52.48-111.79-101.23-111.79C1559.44,1248.3,1507.08,1283.13,1506.86,1359.59z M2682.21,1360.09h0.05H2682.21z"/>
			</g>
			<g>
				<path class="st6" d="M1454.74,2651.78H1304.4l-31.28-64.68c-16.29-33.68-26.68-69.9-30.74-107.09l-122.26-1119.93
					c0-173.22,184.28-173.22,184.28,0l70.25,1089.44c3.48,54.02,20.29,106.33,48.93,152.26L1454.74,2651.78z"/>
			</g>
			<g>
				<path class="st2" d="M1673.55,2669.91h-452.64c-74.35,0-137.74-55.57-147.46-129.25L917.82,1362.46
					c-0.1-0.79-0.16-1.58-0.16-2.37c0-101.72,57.17-148.05,110.29-148.05c34.67,0,71.06,19.73,92.17,61.72
					c21.09-41.99,57.48-61.72,92.14-61.72c34.66,0,71.05,19.73,92.14,61.71c21.1-41.98,57.5-61.71,92.16-61.71
					c53.03,0,110.1,46.17,110.29,147.53l66.19,1179.07c2.99,53.28,47.14,95.01,100.51,95.01c10.01,0,18.13,8.12,18.13,18.13
					S1683.57,2669.91,1673.55,2669.91z M953.92,1358.92l155.48,1177.01c7.35,55.72,55.29,97.73,111.51,97.73h359.86
					c-25.31-23.33-41.86-56.13-43.93-92.98l-66.22-1179.57c-0.02-0.34-0.03-0.68-0.03-1.02c0-35.98-8.59-65.77-24.84-86.13
					c-13.21-16.55-30.68-25.66-49.19-25.66c-35.66,0-74.03,34.98-74.03,111.79c0,10.01-8.12,18.13-18.13,18.13
					s-18.13-8.12-18.13-18.13c0-76.81-38.36-111.79-74.01-111.79c-35.64,0-74.01,34.98-74.01,111.79c0,10.01-8.12,18.13-18.13,18.13
					s-18.13-8.12-18.13-18.13c0-76.81-38.38-111.79-74.04-111.79C992.48,1248.3,954.3,1282.92,953.92,1358.92z"/>
			</g>
			<g>
				<path class="st9" d="M1965.07,1341.23c0.73,6.03,1.04,12.33,1.04,18.85C1966.11,1360.09,1965.7,1353.02,1965.07,1341.23z"/>
			</g>
			<g>
				<path class="st9" d="M1117.72,1327.54c1.59,10.06,2.4,20.89,2.4,32.54C1120.12,1360.09,1119.08,1347.26,1117.72,1327.54z"/>
			</g>
			<g class="st10">
				<path class="st2" d="M2553.72,2323.87l-25.61,191.94c-10.38,77.86-76.73,135.97-155.28,135.97h-699.28
					c-63.04,0-115.07-49.22-118.61-112.13l-13.05-232.73C1571.53,2567.57,2485.69,2573.24,2553.72,2323.87z"/>
			</g>
			<g class="st10">
				<path class="st2" d="M2598.68,1986.61l-5,37.3l-7,52.4c-17.7,10.65-38.55,16.75-60.85,16.75h-316.85
					c-33.2,0-60.1-26.15-60.1-58.4c0-16.2-6.75-30.85-17.7-41.5c-10.85-10.55-25.85-17.15-42.45-17.2
					c-33.25,0.1-60.2,26.35-60.2,58.7c0,16.15-6.75,30.75-17.6,41.3c-10.85,10.55-25.9,17.1-42.5,17.1h-352.1
					c-35.55,0-67.4-15.5-88.7-39.95l-3.6-64.5l-1.3-23.05c21.15,27.9,55.2,46,93.6,46h352.1c16.6,0,31.65-6.55,42.5-17.1
					c10.85-10.55,17.6-25.15,17.6-41.3c0-32.4,26.95-58.6,60.2-58.7c16.6,0.05,31.6,6.6,42.45,17.2c10.95,10.6,17.7,25.25,17.7,41.5
					c0,32.25,26.9,58.4,60.1,58.4h316.85C2553.43,2011.56,2578.78,2002.21,2598.68,1986.61z"/>
			</g>
			<g>
				<path class="st2" d="M1857.38,840.77c-0.01-0.09-0.36,0.29-0.66,0.62c-0.29,0.29-0.6,0.65-0.92,1.06
					c-0.63,0.77-1.28,1.52-1.89,2.4c-1.29,1.65-2.44,3.48-3.64,5.29c-2.29,3.71-4.38,7.62-6.16,11.71
					c-3.54,8.17-6.09,16.98-6.98,26.12c-0.84,9.1-0.89,18.63,1.15,28.01c0.58,4.8,2.32,9.34,3.56,14.09
					c1.5,4.67,3.59,9.15,5.39,13.83l0.25,0.64c0.99,2.57-0.29,5.45-2.86,6.44c-2.22,0.85-4.68,0-5.94-1.9
					c-2.93-4.45-6.2-8.79-8.92-13.49c-2.47-4.83-5.45-9.52-7.31-14.75c-4.57-10.15-7.08-21.31-8.44-32.7
					c-1.32-11.45-0.61-23.22,1.65-34.75c1.14-5.77,2.73-11.49,4.71-17.14c1.06-2.81,2.11-5.63,3.41-8.43
					c0.59-1.4,1.31-2.82,2.03-4.24c0.34-0.7,0.73-1.42,1.17-2.19c0.42-0.74,0.79-1.43,1.54-2.56c6.06-7.97,17.44-9.51,25.41-3.45
					C1861.89,821.43,1863.44,832.8,1857.38,840.77z"/>
			</g>
			<g>
				<path class="st2" d="M1413.41,903.34c19.33,10.69,37.05,24.1,51.7,40.13c14.64,15.99,26.21,34.54,33.18,54.48
					c0.92,2.62-0.46,5.49-3.08,6.4c-2.27,0.79-4.72-0.13-5.93-2.1l-0.05-0.08c-10.28-16.63-24.05-30.56-39.52-41.44
					c-15.5-10.91-32.73-18.74-50.48-24.02c-9.66-2.87-15.17-13.02-12.3-22.69c2.87-9.66,13.02-15.16,22.69-12.29
					c1.26,0.37,2.44,0.87,3.55,1.47L1413.41,903.34z"/>
			</g>
			<g>
				<path class="st2" d="M2262.64,1080.82c8.64-20.73,23.53-39.61,43.89-52.81c10.14-6.6,21.74-11.53,34.19-14.19
					c12.44-2.61,25.78-2.74,38.71,0.18c12.93,2.86,25.21,9.11,35.23,17.62c10.07,8.48,17.82,19.16,22.99,30.45
					c10.33,22.79,11.01,47.17,5.83,68.92c-0.66,2.76-3.43,4.47-6.19,3.81c-1.89-0.45-3.29-1.9-3.77-3.65l-0.04-0.16
					c-5.56-20.55-11.95-39.49-22.47-54.06c-10.37-14.55-23.99-24.17-39.65-27.6c-15.64-3.47-33.23-1.26-50.35,5.78
					c-17.25,6.96-33.55,18.42-50.32,31.64l-0.12,0.09c-2.23,1.76-5.47,1.38-7.23-0.85
					C2262.16,1084.47,2261.95,1082.48,2262.64,1080.82z"/>
			</g>
			<g>
				<path class="st2" d="M1150.9,1100.45c2-22.88,11.35-46.42,29.05-64.54c17.37-18.23,42.88-29.9,68.71-30.68
					c25.81-1.12,51.46,7.45,71.08,23.01c19.66,15.46,33.14,38.23,35.62,61.64c0.3,2.82-1.75,5.36-4.57,5.65
					c-1.96,0.21-3.77-0.71-4.8-2.23l-0.05-0.07c-11.95-17.73-26.53-31.11-43.14-39.8c-16.5-8.75-34.73-12.88-52.47-12.03
					c-17.78,0.83-34.8,6.9-49.91,17.64c-15.32,10.68-27.86,26.5-40.03,44.59l-0.09,0.13c-1.58,2.36-4.78,2.98-7.14,1.4
					C1151.55,1104.08,1150.75,1102.25,1150.9,1100.45z"/>
			</g>
			<g>
				<path class="st2" d="M1767.32,990.38c2.82-15.69,10.94-30.63,23.48-42.5c12.41-11.91,30.35-19.69,48.75-20.2
					c18.46-0.71,36.28,5.87,49.65,16.05c13.47,10.21,23.31,23.52,28.8,38.4c1.02,2.75-0.39,5.8-3.14,6.82
					c-1.46,0.54-3.01,0.39-4.29-0.27l-0.24-0.12c-13.4-7.05-25.06-13.72-36.62-18.17c-11.52-4.49-22.46-6.71-33.03-6.5
					c-10.55,0.28-21.17,2.82-31.83,8.47c-10.77,5.46-21.25,13.54-32.82,22.95l-0.14,0.12c-2.27,1.85-5.61,1.5-7.45-0.76
					C1767.41,993.42,1767.06,991.85,1767.32,990.38z"/>
			</g>
		</g>
		<g>
			<g>
				<path class="st5" d="M1120.9,1626.54h386.84c20.64,0,37.37,16.73,37.37,37.37v42.01c0,20.64-16.73,37.37-37.37,37.37H1120.9
					c-20.64,0-37.37-16.73-37.37-37.37v-42.01C1083.52,1643.27,1100.26,1626.54,1120.9,1626.54z"/>
			</g>
			<g class="st8">
				<path class="st2" d="M1545.1,1663.93v41.97c0,20.67-16.72,37.39-37.35,37.39h-386.87c-20.62,0-37.35-16.72-37.35-37.39v-41.97
					c0-0.95,0.05-1.9,0.09-2.81c1.45,19.35,17.59,34.58,37.26,34.58h386.87c19.67,0,35.8-15.23,37.26-34.58
					C1545.06,1662.03,1545.1,1662.98,1545.1,1663.93z"/>
			</g>
			<g>
				<path class="st2" d="M1507.74,1761.42H1120.9c-30.61,0-55.5-24.9-55.5-55.5v-42c0-30.6,24.9-55.5,55.5-55.5h424.21
					c10.01,0,18.13,8.12,18.13,18.13v79.38C1563.24,1736.52,1538.34,1761.42,1507.74,1761.42z M1120.9,1644.67
					c-10.61,0-19.24,8.63-19.24,19.24v42c0,10.61,8.63,19.24,19.24,19.24h386.84c10.61,0,19.24-8.63,19.24-19.24v-61.25H1120.9z"/>
			</g>
			<g>
				<path class="st5" d="M2642.03,1691.12v219c0,62.38-52.02,112.94-116.19,112.94h-316.87c-33.19,0-60.09-26.15-60.09-58.41v0
					c0-32.42-27.04-58.7-60.39-58.7h0.41c-33.35,0-60.39,26.28-60.39,58.7v0c0,32.26-26.9,58.41-60.09,58.41H1616.3
					c-64.17,0-116.19-50.57-116.19-112.94v-219c0-35.67,29.75-64.58,66.44-64.58h1009.04
					C2612.28,1626.54,2642.03,1655.46,2642.03,1691.12z"/>
			</g>
			<g class="st10">
				<path class="st2" d="M2642.03,1828.61v81.5c0,62.4-52,112.95-116.2,112.95h-316.85c-33.2,0-60.1-26.15-60.1-58.4
					c0-16.2-6.75-30.85-17.7-41.5c-10.85-10.55-25.85-17.15-42.45-17.2c-33.25,0.1-60.2,26.35-60.2,58.7
					c0,16.15-6.75,30.75-17.6,41.3c-10.85,10.55-25.9,17.1-42.5,17.1h-352.1c-64.2,0-116.2-50.55-116.2-112.95v-81.5
					c0,62.4,52,112.95,116.2,112.95h352.1c16.6,0,31.65-6.55,42.5-17.1c10.85-10.55,17.6-25.15,17.6-41.3
					c0-32.4,26.95-58.6,60.2-58.7c16.6,0.05,31.6,6.6,42.45,17.2c10.95,10.6,17.7,25.25,17.7,41.5c0,32.25,26.9,58.4,60.1,58.4
					h316.85C2590.03,1941.56,2642.03,1891.01,2642.03,1828.61z"/>
			</g>
			<g>
				<path class="st2" d="M2525.84,2041.2h-316.87c-43.13,0-78.22-34.34-78.22-76.54c0-22.3-18.84-40.46-42.05-40.57
					c-23.21,0.11-42.06,18.27-42.06,40.57c0,42.21-35.09,76.54-78.22,76.54H1616.3c-74.06,0-134.32-58.8-134.32-131.07v-219
					c0-45.61,37.94-82.71,84.57-82.71h1009.04c46.63,0,84.57,37.11,84.57,82.71v219C2660.16,1982.4,2599.9,2041.2,2525.84,2041.2z
					 M2089.28,1887.83c42.93,0.42,77.72,34.72,77.72,76.83c0,22.21,18.82,40.28,41.96,40.28h316.87c54.07,0,98.06-42.53,98.06-94.81
					v-219c0-25.62-21.67-46.46-48.31-46.46H1566.55c-26.64,0-48.31,20.84-48.31,46.46v219c0,52.28,43.99,94.81,98.06,94.81h352.12
					c23.14,0,41.96-18.07,41.96-40.28c0-42.1,34.79-76.41,77.73-76.83c0.19-0.01,0.38,0,0.59,0
					C2088.9,1887.83,2089.09,1887.82,2089.28,1887.83z"/>
			</g>
			<g>
				<path class="st11" d="M1949.28,1734.41v169.85c0,21.4-17.35,38.75-38.75,38.75h-276.15c-21.35,0-38.7-17.35-38.7-38.75v-169.85
					c0-21.4,17.35-38.7,38.7-38.7h276.15C1931.93,1695.71,1949.28,1713.01,1949.28,1734.41z"/>
			</g>
			<g>
				<path class="st9" d="M2571.28,1734.41v169.85c0,21.4-17.3,38.75-38.65,38.75h-276.2c-21.4,0-38.7-17.35-38.7-38.75v-169.85
					c0-21.4,17.3-38.7,38.7-38.7h276.2C2553.98,1695.71,2571.28,1713.01,2571.28,1734.41z"/>
			</g>
			<g class="st8">
				<polygon class="st5" points="1803.63,1943.01 1724.53,1943.01 1649.78,1695.71 1728.88,1695.71 				"/>
			</g>
			<g class="st8">
				<polygon class="st5" points="1893.48,1943.01 1841.98,1943.01 1767.23,1695.71 1818.78,1695.71 				"/>
			</g>
			<g class="st8">
				<polygon class="st5" points="2427.83,1943.01 2348.73,1943.01 2273.93,1695.71 2353.08,1695.71 				"/>
			</g>
			<g class="st8">
				<polygon class="st5" points="2517.68,1943.01 2466.18,1943.01 2391.43,1695.71 2442.93,1695.71 				"/>
			</g>
			<g>
				<path class="st2" d="M1910.57,1961.11h-276.19c-31.33,0-56.82-25.49-56.82-56.82v-169.91c0-31.33,25.49-56.81,56.82-56.81
					h276.19c31.32,0,56.81,25.49,56.81,56.81v169.91C1967.38,1935.63,1941.89,1961.11,1910.57,1961.11z M1634.38,1713.83
					c-11.33,0-20.56,9.22-20.56,20.55v169.91c0,11.34,9.22,20.56,20.56,20.56h276.19c11.33,0,20.55-9.22,20.55-20.56v-169.91
					c0-11.33-9.22-20.55-20.55-20.55H1634.38z"/>
			</g>
			<g>
				<path class="st2" d="M2532.62,1961.11h-276.19c-31.32,0-56.81-25.49-56.81-56.82v-169.91c0-31.33,25.49-56.81,56.81-56.81
					h276.19c31.32,0,56.81,25.49,56.81,56.81v169.91C2589.43,1935.63,2563.94,1961.11,2532.62,1961.11z M2256.42,1713.83
					c-11.33,0-20.55,9.22-20.55,20.55v169.91c0,11.34,9.22,20.56,20.55,20.56h276.19c11.33,0,20.55-9.22,20.55-20.56v-169.91
					c0-11.33-9.22-20.55-20.55-20.55H2256.42z"/>
			</g>
		</g>
		<g>
			<g>
				<path class="st5" d="M3146,1818.12c-4.15,14.94-13.96,26.77-26.48,33.82c-12.49,7.09-27.69,9.38-42.63,5.22l-71.98-20.01
					c-31.26-8.69-63.65,9.61-72.35,40.9l-140.78,506.34c-3.73,13.42-14.11,23.24-26.55,26.88c-6.73,1.95-14.06,2.13-21.3,0.12
					l-33.29-9.25c-20.65-5.74-32.75-27.16-27.01-47.81l140.78-506.34c25.3-91.01,119.59-144.27,210.56-118.98l71.98,20.01
					C3136.83,1757.32,3154.29,1788.28,3146,1818.12z"/>
			</g>
			<g class="st10">
				<path class="st2" d="M3102.62,1801.59l-87.31-19.81c-55-15.26-123.06,13.16-138.32,68.16l-141.09,511.88
					c-2.06,7.48-9.81,11.86-17.29,9.77l0,0c-18.6-5.14-30.25-23.01-28.22-41.62l134.02-481.96
					c24.03-86.53,110.48-138.97,197.12-122.16l52.18,14.53c23.83,6.62,39.79,27.68,41.04,51.1
					C3115.09,1797.99,3108.99,1803.03,3102.62,1801.59z"/>
			</g>
			<g>
				<path class="st2" d="M2754.35,2430.94c-5.14,0-10.28-0.69-15.28-2.08l-33.28-9.25c-30.26-8.41-48.03-39.87-39.62-70.13
					l140.78-506.35c13.54-48.68,45.22-89.17,89.2-114.03c43.99-24.85,95-31.1,143.68-17.56l71.98,20.01
					c39.44,10.97,62.61,51.98,51.65,91.42l0,0c-5.32,19.14-17.76,35.03-35.05,44.76c-17.2,9.76-37.24,12.22-56.38,6.89l-71.98-20.01
					c-21.55-5.99-44.02,6.69-50.03,28.3l-140.78,506.34c-5.31,19.11-19.87,33.85-38.93,39.42
					C2765.09,2430.19,2759.72,2430.94,2754.35,2430.94z M2988.95,1740.82c-26.01,0-51.7,6.7-74.96,19.85
					c-35.56,20.09-61.17,52.83-72.11,92.18l-140.78,506.34c-3.06,11,3.41,22.43,14.4,25.49l33.28,9.25
					c3.73,1.04,7.67,1.01,11.39-0.07c6.91-2.02,12.21-7.38,14.14-14.33l140.78-506.34c11.36-40.85,53.83-64.88,94.67-53.51
					l71.99,20.01c9.77,2.72,20.01,1.46,28.82-3.53c8.88-5,15.23-13.12,17.95-22.9l0,0c5.61-20.19-6.25-41.17-26.43-46.78
					l-71.98-20.01C3016.52,1742.69,3002.69,1740.82,2988.95,1740.82z"/>
			</g>
			<g>
				<path class="st2" d="M2984.62,1847.67c-3.36,0-6.71-1.35-9.18-4.01c-4.69-5.07-4.39-12.97,0.68-17.67
					c25.35-23.46,30.41-68.24,10.84-95.84c-3.99-5.63-2.67-13.43,2.96-17.43c5.62-3.99,13.43-2.67,17.43,2.96
					c26.8,37.78,20.27,96.69-14.25,128.65C2990.7,1846.57,2987.65,1847.67,2984.62,1847.67z"/>
			</g>
			<g>
				<path class="st2" d="M2916.18,1882.91c-29.4,0-61.01-11.38-95.91-34.43c-5.76-3.8-7.34-11.56-3.54-17.32
					c3.8-5.77,11.55-7.35,17.32-3.54c38.68,25.55,70.34,34.6,99.59,28.51c6.76-1.41,13.38,2.92,14.79,9.68
					c1.41,6.76-2.92,13.38-9.68,14.79C2931.37,1882.13,2923.85,1882.91,2916.18,1882.91z"/>
			</g>
			<g>
				<path class="st2" d="M2960.35,1855.07c-0.5,0-1-0.03-1.51-0.09c-6.86-0.83-11.74-7.06-10.92-13.91
					c3.93-32.6-10.57-70.69-36.07-94.8c-5.01-4.74-5.24-12.65-0.49-17.67c4.74-5.02,12.66-5.24,17.67-0.5
					c30.98,29.29,48.55,75.89,43.72,115.96C2971.99,1850.41,2966.59,1855.07,2960.35,1855.07z"/>
			</g>
			<g>
				<path class="st2" d="M2946.18,1866.23c-4.58,0-8.99-2.53-11.18-6.9c-15.42-30.74-46.8-57.24-78.09-65.94
					c-6.65-1.85-10.54-8.74-8.69-15.39c1.85-6.65,8.72-10.53,15.39-8.69c38.26,10.64,75.05,41.58,93.73,78.82
					c3.1,6.17,0.6,13.69-5.57,16.78C2949.97,1865.8,2948.06,1866.23,2946.18,1866.23z"/>
			</g>
		</g>
		<g>
			<path class="st2" d="M1175.69,2314.38c-0.15,0-0.3,0-0.44,0c-238.65-3.46-473.27-215.44-483.14-224.46
				c-12.23-11.18-13.08-30.16-1.9-42.38c11.18-12.23,30.15-13.08,42.38-1.9c2.85,2.59,228.14,205.63,443.53,208.76
				c16.57,0.24,29.8,13.86,29.56,30.43C1205.44,2301.23,1192.05,2314.38,1175.69,2314.38z"/>
		</g>
		<g>
			<g>
				<path class="st5" d="M343.74,1827.72l17.28-80.04c4.04-18.73,15.07-35.22,30.86-46.06c84.02-57.67,231.63-91.58,347-64.06
					c19.8,4.72,36.76,17.45,47.06,35.01l27.92,47.6"/>
			</g>
			<g>
				<path class="st2" d="M343.74,1845.84c-4.72,0-9.31-1.84-12.74-5.23c-4.41-4.36-6.29-10.66-4.98-16.72l17.28-80.03
					c5.07-23.39,18.68-43.69,38.32-57.17c19.1-13.11,41.33-25.1,66.08-35.62c94.44-40.14,207.64-52.08,295.4-31.14
					c24.4,5.83,45.72,21.68,58.49,43.48l27.92,47.58c1.64,2.78,2.5,5.95,2.5,9.17v0.02c0,8.45-5.84,15.79-14.09,17.67
					l-470.13,107.53C346.44,1845.69,345.09,1845.84,343.74,1845.84z M650.35,1645.94c-62.12,0-129.15,13.28-188.46,38.49
					c-22.52,9.58-42.63,20.4-59.75,32.15c-11.99,8.23-20.3,20.64-23.4,34.95l-11.26,52.17l418.25-95.67l-15.41-26.27
					c-7.82-13.34-20.8-23.01-35.63-26.56C708.61,1648.97,680.03,1645.94,650.35,1645.94z"/>
			</g>
			<g>
				<path class="st5" d="M840.2,1820.47c-38,30.95-125.52,66.44-230.71,90.77c-53.53,12.37-104.25,20.12-147.42,23.26
					c-11.86,0.89-23.2,1.41-33.83,1.6c-20.36,0.32-38.3-0.61-53.1-2.81c-26.2-3.92-42.6-11.8-45.31-23.64
					c-0.24-1-0.37-2.07-0.38-3.16l-5.45-45.31l-0.02-0.11l-0.39-3.11l0.01-0.05c-0.2-9.08,6.97-19.35,20.11-30.2
					c14.57-11.92,36.39-24.54,63.73-36.84c0.77-0.36,1.61-0.75,2.43-1.1l0.23-0.09c8.92-3.98,18.4-7.91,28.44-11.79
					c37.61-14.62,82.38-28.3,130.99-39.54c104.52-24.14,198.03-30.1,244.33-18.17l1.83,0.5c16.25,4.46,26.26,11.25,28.38,20.34
					c0.07,0.33,0.17,0.72,0.22,1.1l15.08,42.72l0.26,0.75c0.22,0.53,0.34,1.03,0.5,1.59C862.38,1796.9,855.1,1808.33,840.2,1820.47z
					"/>
			</g>
			<g>
				<path class="st2" d="M420.02,1954.31c-56.24,0-100.89-10.39-107.86-40.57c-0.44-1.98-0.71-3.93-0.81-5.86l-5.26-43.89
					c-0.05-0.26-0.09-0.53-0.12-0.79l-0.37-3.12c-0.09-0.79-0.14-1.59-0.13-2.38c-0.29-60.7,163.11-114.68,259.99-137.05
					c70.81-16.36,139.05-25.12,192.37-24.57c63.71,0.63,97.7,13.99,103.91,40.86c0.02,0.1,0.05,0.22,0.09,0.35l14.77,41.78
					c0.47,1.27,0.81,2.43,1.11,3.62c14.73,63.88-159.11,121.91-264.14,146.18v0C558.42,1941.62,482.15,1954.31,420.02,1954.31z
					 M347.53,1905.4c10.7,14.43,107.21,22.96,257.87-11.85c150.83-34.86,233.83-84.93,236.95-102.54l-15.16-42.89
					c-0.3-0.85-0.54-1.72-0.71-2.6c-9.09-14.68-103.78-23.99-252.86,10.47c-148.27,34.24-229.21,83.79-231.86,101.24l0.13,1.04
					c0.04,0.26,0.08,0.51,0.11,0.76l5.43,45.3C347.48,1904.68,347.51,1905.04,347.53,1905.4z M609.48,1911.22h0.05H609.48z
					 M826.3,1744.37c0,0,0,0.01,0,0.01C826.3,1744.38,826.3,1744.37,826.3,1744.37z M826.29,1744.33c0,0.01,0,0.02,0,0.03
					C826.29,1744.35,826.29,1744.34,826.29,1744.33z M826.29,1744.3c0,0.01,0,0.02,0,0.03
					C826.29,1744.32,826.29,1744.31,826.29,1744.3z"/>
			</g>
			<g>
				<path class="st2" d="M343.76,1842.72c-1.05,0-2.11-0.11-3.18-0.34c-8.1-1.75-13.25-9.73-11.5-17.83l17.28-80.04
					c4.88-22.59,18.03-42.21,37.04-55.26c93.63-64.27,247.95-92.76,358.97-66.28c23.55,5.62,44.16,20.93,56.52,42.01l27.91,47.6
					c4.19,7.15,1.8,16.34-5.35,20.53c-7.14,4.18-16.34,1.8-20.53-5.35l-27.92-47.6c-8.25-14.06-21.96-24.27-37.61-28.01
					C617.34,1624,474.67,1663,400.37,1713.99c-12.67,8.7-21.44,21.79-24.69,36.86l-17.28,80.04
					C356.89,1837.92,350.67,1842.72,343.76,1842.72z"/>
			</g>
			<g class="st10">
				<path class="st2" d="M343.74,1827.72l-12.62,12.44C334.32,1836.12,338.59,1831.96,343.74,1827.72z"/>
			</g>
			<g class="st10">
				<path class="st2" d="M410.46,1801.53l-66.14,37.91l14.02-64.9c14.01-30.24,49.94-50.09,84.96-68.16
					c3.67-1.89,7.94,1.17,7.34,5.26l-11.5,77.95l-28.45,11.81l-0.22,0.09L410.46,1801.53z"/>
			</g>
			<g class="st10">
				<path class="st2" d="M428.25,1936.09c-20.36,0.32-38.3-0.61-53.1-2.81c-26.2-3.92-42.6-11.8-45.31-23.64
					c-0.24-1-0.37-2.07-0.38-3.16l-5.45-45.31l-0.02-0.11l-0.39-3.11l0.01-0.05c-0.2-9.08,6.97-19.35,20.11-30.2
					c14.57-11.92,36.39-24.54,63.73-36.84l-5.82,52.74l29.01,25.59C430.64,1869.19,429.51,1904.66,428.25,1936.09z"/>
			</g>
			<g>
				<path class="st6" d="M765.36,2371.88l-86.02,23.05c-70.97,19.04-144.43-20.88-167.07-90.82l-62.54-193.56l-50.09-154.88
					l-11.33-35.05c-3.51-10.82-0.07-22.78,8.87-29.87c72.14-57.09,258.77-103.85,399.58-95.69c13.28,0.74,23.99,11.2,25.45,24.41
					l23.87,216.75l20.67,187.25c0.61,5.51,0.88,10.97,0.79,16.39C867.07,2301.13,825.77,2355.64,765.36,2371.88z"/>
			</g>
			<g>
				<path class="st5" d="M867.55,2239.87c-117.41-94.55-267.47-140.98-417.82-129.32l-50.09-154.88
					c154.59-19.94,310.66,9.16,446.45,80.56l20.67,187.25C867.38,2228.99,867.64,2234.45,867.55,2239.87z"/>
			</g>
			<g class="st4">
				<path class="st5" d="M765.36,2371.88l-86.02,23.05c-4.48,1.21-8.99,2.15-13.45,2.89l56.75-15.22
					c65.77-17.67,108.85-80.71,101.4-148.4l-44.54-404c-1.46-13.21-12.12-23.65-25.45-24.41c-65.6-3.75-141.13,4.34-210.41,19.86
					c79.76-22.33,173.71-35.17,253.13-30.58c13.28,0.74,23.99,11.2,25.45,24.41l44.54,404
					C874.21,2291.16,831.14,2354.21,765.36,2371.88z"/>
			</g>
			<g class="st10">
				<path class="st2" d="M828.52,2334.83c-16.85,17.36-38.42,30.41-63.16,37.05l-86.02,23.05
					c-70.97,19.04-144.43-20.88-167.07-90.82l-123.95-383.49c-3.51-10.82-0.07-22.78,8.87-29.87
					c23.25-18.4,58.45-35.75,100.15-50.54c-2.58,1.83-5.06,3.69-7.44,5.58c-8.94,7.09-12.39,19.05-8.87,29.87l123.95,383.49
					c22.64,69.94,96.1,109.86,167.07,90.82L828.52,2334.83z"/>
			</g>
			<g>
				<path class="st2" d="M643.45,2417.82c-66.15,0-127.13-42.3-148.42-108.15l-123.97-383.46c-5.83-18.04,0.15-38,14.88-49.66
					c77.38-61.26,269.89-107.81,411.88-99.6c22.13,1.28,39.98,18.33,42.42,40.54l44.52,403.97c8.51,77.17-39.74,147.78-114.72,167.9
					l-85.99,23.08C670.5,2416.08,656.87,2417.82,643.45,2417.82z M764.5,1812.28c-128.69,0-291.07,41.26-356.04,92.71
					c-2.93,2.32-4.09,6.37-2.89,10.08l123.97,383.46c19.66,60.81,83.4,95.45,145.13,78.9l85.99-23.08
					c57.56-15.45,94.6-69.66,88.08-128.91l-44.52-403.98c-0.5-4.49-4.14-8.07-8.47-8.32l0,0
					C785.61,1812.56,775.16,1812.28,764.5,1812.28z"/>
			</g>
		</g>
		<g>
			<g>
				<path class="st12" d="M2190.31,2260.4c-4.91-43.95-22.03-77.71-45.83-101.32c-55.83-55.41-148.2-54.69-203.16,1.58
					c-23.43,23.98-40.03,58-44.25,102.02c-1.22,12.83,8.88,23.99,21.79,23.89l250.05-1.94
					C2181.81,2284.53,2191.73,2273.21,2190.31,2260.4z"/>
			</g>
			<g>
				<path class="st13" d="M2175.54,2247.18c-71.76-71.21-190.46-70.29-261.11,2.03C1986.19,2320.53,2104.89,2319.61,2175.54,2247.18
					z"/>
			</g>
			<g>
				<path class="st12" d="M2216.47,2257.55c1.49,13.53-2.84,27.12-11.88,37.29c-9.01,10.14-21.94,16.01-35.48,16.11l-250.05,1.94
					c-13.57,0.06-26.56-5.57-35.73-15.56c-9.19-10.02-13.74-23.55-12.46-37.09c0,0,0,0,0-0.01c10.87-115,96.53-168,171.5-168.58
					c3.03-0.03,6.07,0.04,9.13,0.19C2124.21,2095.34,2204.33,2147.37,2216.47,2257.55z M2163.49,2258.32
					c-10.88-79.25-67.92-114.43-120.71-113.99c-52.72,0.41-109.27,36.44-118.92,115.84L2163.49,2258.32z M1923.32,2265.18
					c0,0,0-0.01,0-0.01C1923.32,2265.18,1923.32,2265.18,1923.32,2265.18L1923.32,2265.18z"/>
			</g>
		</g>
	</g>
	<rect x="-1407.03" y="110.1" style="fill:none;" width="677.31" height="584.68"/>
	<text transform="matrix(1 0 0 1 -1407.0303 118.6206)" style="font-family:'MyriadPro-Regular'; font-size:12px;">?</text>
</g>
</svg>
