<?xml version="1.0" encoding="utf-8"?>
<!-- Generator: Adobe Illustrator 26.0.0, SVG Export Plug-In . SVG Version: 6.00 Build 0)  -->
<svg version="1.1" id="Capa_1" xmlns="http://www.w3.org/2000/svg" xmlns:xlink="http://www.w3.org/1999/xlink" x="0px" y="0px"
	 viewBox="0 0 595.28 214.18" style="enable-background:new 0 0 595.28 214.18;" xml:space="preserve">
<style type="text/css">
	.st0{fill:#FFFFFF;}
	.st1{fill:#FFE082;}
	.st2{opacity:0.29;}
	.st3{fill:#102770;}
	.st4{fill:#E73C46;}
	.st5{opacity:0.6;}
	.st6{fill:#ED2E7A;}
	.st7{opacity:0.2;}
</style>
<g>
	<g>
		<path class="st0" d="M32.72,159.2h-9.4v10.9H9.02v-45h22.7c10.3,0,15.5,5.5,15.5,16.6c0,6.1-1.3,10.6-4,13.5c-1,1.1-2.4,2-4.2,2.8
			C37.12,158.8,35.12,159.2,32.72,159.2z M23.42,136.6v11.1h3.3c1.7,0,3-0.2,3.8-0.5c0.8-0.4,1.2-1.2,1.2-2.5v-5
			c0-1.3-0.4-2.1-1.2-2.5s-2.1-0.5-3.8-0.5h-3.3V136.6z"/>
		<path class="st0" d="M65.52,157.8v2.5c1.4,0.1,2.9,0.2,4.3,0.2c4.5,0,9-0.7,13.5-2.2l1.7,10.6c-5.4,1.4-10.7,2.2-16,2.2
			c-6.7,0-11.6-1.6-14.6-4.7s-4.5-7.9-4.5-14.4c0-6.4,1.5-11.2,4.5-14.4c3-3.1,7.8-4.7,14.5-4.7s11.3,0.9,13.9,2.7
			c2.5,1.8,3.8,5.2,3.8,10.2c0,4.2-1.5,7.3-4.6,9.1C79.12,156.9,73.62,157.8,65.52,157.8z M65.52,146.5v3h3c1.7,0,3-0.2,3.8-0.5
			c0.8-0.4,1.2-1.2,1.2-2.5v-3h-3c-1.7,0-3,0.2-3.8,0.5C65.92,144.4,65.52,145.2,65.52,146.5z"/>
		<path class="st0" d="M106.52,122.2v37.6c1.5,0.3,2.7,0.5,3.5,0.5l-0.6,10.6c-6.1,0-10.2-0.4-12.2-1.1c-2.4-0.9-4-2.1-4.5-3.5
			c-0.4-0.9-0.6-1.9-0.6-3v-40L106.52,122.2z"/>
		<path class="st0" d="M115.22,131.8c-1.1-0.8-1.6-2.3-1.6-4.5s0.5-3.7,1.6-4.5c1.1-0.9,3.2-1.3,6.4-1.3c3.2,0,5.3,0.4,6.4,1.3
			c1.1,0.9,1.6,2.4,1.6,4.5c0,2.2-0.5,3.6-1.6,4.5c-1.1,0.8-3.2,1.2-6.4,1.2S116.32,132.6,115.22,131.8z M114.42,170.1v-34.2
			l14.4-1.8v36H114.42z"/>
		<path class="st0" d="M162.42,159.3l0.9,10.4c-2.5,1-5.7,1.5-9.6,1.5c-6.7,0-11.6-1.6-14.6-4.7s-4.5-7.9-4.5-14.4
			c0-6.4,1.5-11.2,4.5-14.4c3-3.1,7.9-4.7,14.6-4.7c4.2,0,7.4,0.5,9.6,1.5l-1.7,9.8c-2.5-0.5-4.6-0.8-6-0.8c-3.6,0-5.5,1.3-5.5,3.8
			v12.9c1.4,0.3,3.2,0.4,5.4,0.4C157.62,160.7,159.92,160.2,162.42,159.3z"/>
		<path class="st0" d="M172.12,166.4c-3-3.1-4.5-7.9-4.5-14.4c0-6.4,1.5-11.2,4.5-14.4c3-3.1,7.9-4.7,14.6-4.7
			c6.7,0,11.6,1.6,14.6,4.7s4.5,7.9,4.5,14.4c0,6.4-1.5,11.2-4.5,14.4c-3,3.1-7.9,4.7-14.6,4.7
			C179.92,171.2,175.12,169.6,172.12,166.4z M183.12,146.5v14.1h2.2c1.7,0,3-0.2,3.8-0.5c0.8-0.4,1.2-1.2,1.2-2.5v-14.1h-2.2
			c-1.7,0-3,0.2-3.8,0.5C183.52,144.4,183.12,145.2,183.12,146.5z"/>
		<path class="st0" d="M214.62,166.4c-3-3.1-4.5-7.9-4.5-14.4c0-6.4,1.5-11.2,4.5-14.4c3-3.1,7.9-4.7,14.6-4.7
			c6.7,0,11.6,1.6,14.6,4.7s4.5,7.9,4.5,14.4c0,6.4-1.5,11.2-4.5,14.4c-3,3.1-7.9,4.7-14.6,4.7
			C222.42,171.2,217.62,169.6,214.62,166.4z M225.52,146.5v14.1h2.2c1.7,0,3-0.2,3.8-0.5c0.8-0.4,1.2-1.2,1.2-2.5v-14.1h-2.2
			c-1.7,0-3,0.2-3.8,0.5C225.92,144.4,225.52,145.2,225.52,146.5z"/>
		<path class="st0" d="M268.42,122.2v37.6c1.5,0.3,2.7,0.5,3.5,0.5l-0.6,10.6c-6.1,0-10.2-0.4-12.2-1.1c-2.4-0.9-4-2.1-4.5-3.5
			c-0.4-0.9-0.6-1.9-0.6-3v-40L268.42,122.2z"/>
		<path class="st0" d="M293.32,133c11.5,0,17.3,4,17.3,11.9v25.2h-7.2l-4.1-4.1c-1.4,1.6-3.3,2.9-5.7,3.8c-2.4,0.9-4.7,1.4-6.8,1.4
			c-2.1,0-3.9-0.2-5.1-0.5c-1.3-0.3-2.6-0.9-3.8-1.7c-2.7-1.7-4.1-4.9-4.1-9.6c0-8.6,6.5-13,19.6-13h2.9v-2.6
			c-1.5-0.1-2.8-0.1-3.8-0.1c-5.4,0-10.1,0.6-14,1.9l-1.7-10.3C281.52,133.7,287.02,133,293.32,133z M288.32,157.7v3h3
			c2.1,0,3.5-0.2,4.1-0.7s0.9-1.1,0.9-1.9v-3.4h-3c-1.7,0-3,0.2-3.8,0.5C288.62,155.6,288.32,156.4,288.32,157.7z"/>
		<path class="st0" d="M317.12,134.1h7.2l2.7,3.6c2.1-3.1,6-4.7,11.7-4.7c2.9,0,5.4,0.6,7.6,1.7c2.1,1.1,3.7,2.6,4.8,4.5
			c2.1,3.6,3.1,7.9,3.1,12.9c0,6.1-1.3,10.7-4,13.8c-1.1,1.2-2.5,2.2-4.2,3c-1.8,0.8-3.8,1.2-6.2,1.2h-8.3v10.8l-14.4,1.1
			L317.12,134.1L317.12,134.1z M331.52,146.2v14.5h2.2c1.7,0,3-0.2,3.8-0.5c0.8-0.4,1.2-1.2,1.2-2.5v-14.1h-2.2
			c-1.1,0-1.9,0-2.5,0.1s-1.2,0.3-1.7,0.8C331.82,144.8,331.52,145.4,331.52,146.2z"/>
		<path class="st0" d="M359.92,134.1h7.2l2.7,3.6c2.1-3.1,6-4.7,11.7-4.7c2.9,0,5.4,0.6,7.6,1.7c2.1,1.1,3.7,2.6,4.8,4.5
			c2.1,3.6,3.1,7.9,3.1,12.9c0,6.1-1.3,10.7-4,13.8c-1.1,1.2-2.5,2.2-4.2,3c-1.8,0.8-3.8,1.2-6.2,1.2h-8.3v10.8l-14.4,1.1
			L359.92,134.1L359.92,134.1z M374.32,146.2v14.5h2.2c1.7,0,3-0.2,3.8-0.5c0.8-0.4,1.2-1.2,1.2-2.5v-14.1h-2.2
			c-1.1,0-1.9,0-2.5,0.1s-1.2,0.3-1.7,0.8C374.62,144.8,374.32,145.4,374.32,146.2z"/>
	</g>
	<g>
		<g>
			<g>
				<g>
					<g>
						<path class="st1" d="M533.32,80.7c4.1-0.9,6.6-4.9,5.7-9c-0.8-3.6-4.1-6-7.6-5.9c0.1-0.9,0.1-1.8-0.1-2.7
							c-0.8-3.7-4.5-6.1-8.2-5.2s-6.1,4.5-5.2,8.2c0.1,0.6,0.3,1,0.6,1.5c-2.7,1.6-4.3,4.9-3.5,8.1c0.9,4.1,4.9,6.6,9,5.7
							c1.4-0.3,2.6-1,3.6-1.9C529.12,80.7,531.22,81.2,533.32,80.7z"/>
					</g>
				</g>
			</g>
		</g>
		<g class="st2">
			<g>
				<g>
					<g>
						<path class="st3" d="M533.32,80.7c4.1-0.9,6.6-4.9,5.7-9c-0.8-3.6-4.1-6-7.6-5.9c0.1-0.9,0.1-1.8-0.1-2.7
							c-0.8-3.7-4.5-6.1-8.2-5.2s-6.1,4.5-5.2,8.2c0.1,0.6,0.3,1,0.6,1.5c-2.7,1.6-4.3,4.9-3.5,8.1c0.9,4.1,4.9,6.6,9,5.7
							c1.4-0.3,2.6-1,3.6-1.9C529.12,80.7,531.22,81.2,533.32,80.7z"/>
					</g>
				</g>
			</g>
		</g>
		<g>
			<g>
				<g>
					<g>
						<path class="st3" d="M522.22,83.3c-4.2,0-7.9-2.9-8.9-7.1c-0.8-3.4,0.5-6.9,3.2-9.1c-0.1-0.2-0.1-0.4-0.2-0.6
							c-1-4.5,1.9-9.1,6.4-10.1c2.2-0.5,4.5-0.1,6.4,1.1s3.2,3.1,3.7,5.3c0.1,0.5,0.2,1,0.2,1.6c3.6,0.6,6.7,3.3,7.5,7
							c0.5,2.4,0.1,4.8-1.2,6.8s-3.3,3.5-5.7,4l0,0c-2.1,0.5-4.2,0.2-6-0.8c-1,0.8-2.2,1.3-3.4,1.6
							C523.52,83.2,522.92,83.3,522.22,83.3z M533.32,80.7L533.32,80.7L533.32,80.7z M524.62,59.3c-0.4,0-0.8,0-1.2,0.1
							c-2.9,0.6-4.7,3.5-4.1,6.4c0.1,0.4,0.2,0.8,0.4,1.2c0.3,0.7,0.1,1.6-0.6,2c-2.3,1.3-3.4,3.9-2.8,6.5c0.7,3.2,3.9,5.3,7.1,4.5
							c1.1-0.2,2-0.8,2.8-1.5c0.5-0.5,1.4-0.6,1.9-0.2c1.4,0.9,3,1.2,4.7,0.9l0,0c1.6-0.3,2.9-1.3,3.7-2.6c0.9-1.4,1.1-2.9,0.8-4.5
							c-0.6-2.8-3.2-4.8-6-4.7c-0.5,0-0.9-0.2-1.2-0.5s-0.5-0.8-0.3-1.3c0.1-0.7,0.1-1.4,0-2.1c-0.3-1.4-1.1-2.6-2.4-3.4
							C526.62,59.6,525.72,59.3,524.62,59.3z"/>
					</g>
				</g>
			</g>
		</g>
		<g>
			<g>
				<g>
					<g>
						<path class="st1" d="M471.72,78c4,1.3,8.2-0.9,9.5-4.9c1.1-3.5-0.5-7.3-3.6-9c0.6-0.7,1-1.5,1.3-2.4c1.2-3.6-0.8-7.5-4.5-8.7
							c-3.6-1.2-7.5,0.8-8.7,4.5c-0.2,0.5-0.3,1.1-0.3,1.6c-3.2,0-6.1,2-7.1,5.2c-1.3,4,0.9,8.2,4.9,9.5c1.4,0.5,2.8,0.5,4.1,0.1
							C468.12,75.9,469.72,77.3,471.72,78z"/>
					</g>
				</g>
			</g>
		</g>
		<g class="st2">
			<g>
				<g>
					<g>
						<path class="st3" d="M471.72,78c4,1.3,8.2-0.9,9.5-4.9c1.1-3.5-0.5-7.3-3.6-9c0.6-0.7,1-1.5,1.3-2.4c1.2-3.6-0.8-7.5-4.5-8.7
							c-3.6-1.2-7.5,0.8-8.7,4.5c-0.2,0.5-0.3,1.1-0.3,1.6c-3.2,0-6.1,2-7.1,5.2c-1.3,4,0.9,8.2,4.9,9.5c1.4,0.5,2.8,0.5,4.1,0.1
							C468.12,75.9,469.72,77.3,471.72,78z"/>
					</g>
				</g>
			</g>
		</g>
		<g>
			<g>
				<g>
					<g>
						<path class="st3" d="M474.02,79.9c-0.9,0-1.9-0.1-2.8-0.5c-2-0.7-3.7-1.9-4.8-3.7c-1.2,0.1-2.5,0-3.7-0.4
							c-4.8-1.5-7.4-6.7-5.9-11.4c1.1-3.3,3.9-5.7,7.3-6.2c0-0.2,0.1-0.4,0.2-0.6c0.7-2.2,2.2-3.9,4.2-4.9s4.3-1.2,6.5-0.5
							c4.4,1.4,6.9,6.2,5.5,10.7c-0.2,0.5-0.4,1-0.6,1.5c2.9,2.3,4.1,6.2,2.9,9.8c-0.7,2.3-2.3,4.2-4.5,5.3
							C476.92,79.6,475.52,79.9,474.02,79.9z M467.22,72.5c0.6,0,1.1,0.3,1.4,0.9c0.7,1.5,2,2.6,3.6,3.1l0,0
							c1.5,0.5,3.1,0.3,4.5-0.4c1.4-0.7,2.5-2,2.9-3.5c0.9-2.7-0.3-5.7-2.9-7.1c-0.4-0.2-0.7-0.6-0.8-1.1c-0.1-0.5,0-0.9,0.3-1.3
							c0.5-0.6,0.8-1.1,1-1.8c0.9-2.8-0.7-5.8-3.5-6.7c-1.4-0.5-2.8-0.3-4.1,0.3s-2.2,1.8-2.6,3.1c-0.1,0.4-0.2,0.8-0.2,1.2
							c-0.1,0.8-0.7,1.4-1.6,1.5c-2.6,0-4.9,1.7-5.7,4.2c-1,3.1,0.7,6.5,3.9,7.5c1,0.3,2.2,0.4,3.2,0.1
							C467.02,72.5,467.12,72.5,467.22,72.5z"/>
					</g>
				</g>
			</g>
		</g>
		<g>
			<g>
				<g>
					<g>
						<path class="st1" d="M433.62,103.5c0,0-3.8-12.6,8.3-13.4c0,0-4-10,2.5-13.2c8.2-4.1,10.4,2.3,10.4,2.3s1.5-1.7,3.8-2.5
							c0,0-3-5.9,3-7.5c6-1.7,6.8,4.2,6.8,4.2s3-4.2,8.3-3.4c0,0-2-9.5,4.8-11.2s9.5,4.5,9.5,4.5s3.8-3.4,9.8,0
							c0,0,3.7-6.9,10.3-2.8c6,3.7,1.8,9.5,1.8,9.5s7.6-1.5,11.3,9.4c0,0,2.2-6.4,6.7-5.5c4.5,0.8,5.3,4.5,5.3,4.5s0-6.9,5.3-6.9
							s6,6.4,6,6.4s5.3-6.6,11.3-1.6s2.3,18.1-0.8,22.3l-31.6,32.7L433.62,103.5z"/>
					</g>
				</g>
			</g>
		</g>
		<g class="st2">
			<g>
				<g>
					<g>
						<path class="st3" d="M488.82,62.7c0,0,0.8,9.3,14,6.2c0,0,10.9,4.7,14-0.8c3.1-5.4-11.7-14.8-11.7-14.8L488.82,62.7z"/>
					</g>
				</g>
			</g>
		</g>
		<g class="st2">
			<g>
				<g>
					<g>
						<path class="st3" d="M477.42,80.6c0-2.8-1.9-5.1-4.4-5.8c0-0.1,0-0.1,0-0.2c0-4.2-3.4-7.7-7.7-7.7c-4.2,0-7.7,3.4-7.7,7.7
							c0,0.4,0,0.8,0.1,1.1c-0.2,0-0.4,0-0.6,0c-3.9,0-7.1,3.2-7.1,7.1s3.2,7.1,7.1,7.1c0.7,0,1.3-0.1,1.9-0.2
							c1.4,2.2,3.9,3.5,6.6,3.5c4.1,0,7.4-3.1,7.9-7C475.82,85.4,477.42,83.2,477.42,80.6z"/>
					</g>
				</g>
			</g>
		</g>
		<g class="st2">
			<g>
				<g>
					<g>
						<path class="st3" d="M540.52,92.6c-0.7-0.2-1.4,0-1.8,0.6c-0.9,1-3,2.7-7.1,3.8c-4.2,1.1-8.5-4.7-10.8-8.5
							c-0.7-1.1-2.4-1.2-3.1,0c-1.4,2.4-4.2,5.6-9.5,7.8c-6.7,2.8-12.9-0.8-16-3.1c-0.9-0.7-2.1-0.4-2.6,0.5
							c-0.8,1.3-2.3,2.9-5.5,4.1c-5.2,1.9-12-1.5-14.1-2.7c-0.4-0.2-0.9-0.3-1.4-0.2c-1.9,0.6-7.7,3.4-16.4,2.1
							c-10.9-1.6-10.4-15.4-10.4-15.4l0,0c-0.7,0.2-1.2,0.9-1.2,1.6c-0.1,1.8,0.2,3.7,0.6,5c0.3,1-0.4,2-1.4,2.2
							c-7.8,1.6-7.1,9.2-6.5,12c0.1,0.7,0.6,1.2,1.2,1.4l80.6,24c0.3,0.1,0.6,0.1,0.9,0l16.2-3.3c0.3-0.1,0.7-0.2,0.9-0.5l24.7-25.4
							c0.1-0.1,0.1-0.1,0.2-0.2c0.7-1,1.5-2.6,2.2-4.4c0.6-1.6-1.1-2.9-2.5-2.2C551.32,95,543.52,93.4,540.52,92.6z"/>
					</g>
				</g>
			</g>
		</g>
		<g>
			<g>
				<g>
					<g>
						<path class="st3" d="M526.32,133.5c-0.2,0-0.5,0-0.7-0.1l-92.7-27.7c-0.8-0.2-1.4-0.8-1.6-1.6c-0.1-0.3-2-7,1.3-11.9
							c1.4-2,3.5-3.4,6.2-4.1c-1.1-4.6-1-10.7,4.4-13.4c3.5-1.7,6.6-2.1,9.2-1c1.2,0.5,2.1,1.2,2.7,1.9c0.1-0.1,0.2-0.1,0.4-0.2
							c-0.3-1.3-0.4-3.1,0.3-4.7c0.6-1.3,1.9-3.1,4.9-3.9c3.1-0.9,5.2-0.1,6.5,0.7c0.8,0.5,1.4,1.1,1.8,1.8c1.2-0.8,2.8-1.6,4.8-1.8
							c-0.1-4.2,1.2-9.6,6.8-11.1c5.2-1.3,8.9,1.2,10.9,3.6c1.8-0.7,4.7-1.2,8.3,0.2c1-1.2,2.6-2.6,4.9-3.2c2.4-0.7,4.9-0.2,7.4,1.4
							c2.9,1.8,3.9,4,4.2,5.6c0.3,1.4,0.1,2.7-0.1,3.8c2.6,0.7,5.8,2.5,8.2,6.5c1.6-1.9,4-3.3,6.9-2.8c1.5,0.3,2.8,0.8,3.8,1.5
							c1.1-2.2,3.1-4,6.4-4c3.7,0,5.9,2.3,7.1,4.6c1.2-0.8,2.8-1.5,4.6-1.7c2.5-0.2,4.9,0.6,7.1,2.4c7.4,6.2,3.1,20.6-0.3,25.4
							c-0.1,0.1-0.1,0.2-0.2,0.3l-31.8,32.9C527.62,133.3,526.92,133.5,526.32,133.5z M435.62,101.7l90.1,26.9l30.5-31.5
							c2.7-3.9,5.6-15.3,1.1-19c-1.2-1-2.4-1.5-3.6-1.3c-2.4,0.2-4.4,2.6-4.4,2.6c-0.6,0.7-1.6,1-2.5,0.8c-0.9-0.3-1.6-1-1.7-2
							c-0.1-0.4-0.7-4.3-3.7-4.3c-2.9,0-2.9,4.4-2.9,4.6c0,1.2-0.9,2.2-2.1,2.3c-1.2,0.1-2.3-0.7-2.5-1.8c0-0.2-0.6-2.2-3.4-2.7
							c-2.4-0.5-4.1,4-4.1,4c-0.3,0.9-1.2,1.6-2.2,1.6l0,0c-1,0-1.9-0.6-2.2-1.6c-2.9-8.6-8.2-7.9-8.7-7.8c-0.9,0.2-1.9-0.2-2.4-1
							s-0.5-1.8,0.1-2.6c0.3-0.5,1.2-2.2,0.9-3.6c-0.2-1-0.9-1.8-2-2.5c-1.4-0.9-2.6-1.1-3.7-0.8c-2,0.5-3.3,2.8-3.3,2.8
							c-0.3,0.6-0.8,0.9-1.4,1.1s-1.2,0.1-1.8-0.2c-4.3-2.4-6.9-0.5-7.1-0.3c-0.6,0.5-1.3,0.7-2,0.6s-1.3-0.7-1.6-1.4
							c-0.2-0.4-2.2-4.3-6.8-3.2c-4.5,1.1-3.1,8.1-3.1,8.4c0.1,0.8-0.1,1.5-0.6,2.1s-1.3,0.8-2,0.7c-3.7-0.6-6,2.3-6,2.4
							c-0.6,0.8-1.6,1.1-2.5,0.9s-1.6-1-1.7-1.9c-0.1-0.4-0.4-1.6-1.2-2.2c-0.6-0.4-1.5-0.4-2.6-0.1c-1,0.3-1.6,0.7-1.9,1.2
							c-0.5,1,0.1,2.5,0.3,3c0.3,0.6,0.3,1.3,0.1,1.9s-0.7,1.1-1.4,1.3c-1.7,0.6-2.8,1.9-2.8,1.9c-0.6,0.6-1.4,0.9-2.2,0.7
							c-0.8-0.2-1.5-0.8-1.7-1.5c0,0-0.5-1.3-1.8-1.8s-3.1-0.2-5.3,0.9c-4.5,2.2-1.4,10.2-1.3,10.2c0.3,0.7,0.2,1.5-0.2,2.1
							c-0.4,0.6-1.1,1-1.8,1.1c-2.7,0.2-4.5,1-5.6,2.5C435.12,96.9,435.32,99.9,435.62,101.7z"/>
					</g>
				</g>
			</g>
		</g>
		<g>
			<g>
				<g>
					<g>
						<path class="st0" d="M547.02,198.6l-16.9,4.5c-1.2,0.3-2.5,0.5-3.7,0.5h-68.9c-7.1,0-13.1-5.1-14.3-12.1l-12.9-79
							c-0.8-5,3.1-9.6,8.2-9.6h93.9c0.8,0,1.6-0.1,2.4-0.3l24.2-7.4c5.8-1.8,11.5,3.1,10.6,9.1l-12,82.5
							C556.72,192.5,552.52,197.1,547.02,198.6z"/>
					</g>
				</g>
			</g>
		</g>
		<g>
			<g>
				<g>
					<g>
						<g>
							<polygon class="st4" points="469.12,203.6 454.32,102.8 442.72,102.8 457.62,203.6 							"/>
						</g>
					</g>
				</g>
			</g>
			<g>
				<g>
					<g>
						<g>
							<polygon class="st4" points="526.22,102.8 510.52,102.8 507.22,203.6 519.12,203.6 							"/>
						</g>
					</g>
				</g>
			</g>
			<g>
				<g>
					<g>
						<g>
							<polygon class="st4" points="486.22,102.8 473.42,102.8 481.32,203.6 491.42,203.6 							"/>
						</g>
					</g>
				</g>
			</g>
		</g>
		<g class="st5">
			<g>
				<g>
					<g>
						<path class="st0" d="M439.02,107l93.4-0.8l0.3-3.5c-0.1,0-0.2,0-0.3,0h-93.9c-5.1,0-9,4.6-8.2,9.6l11.1,67.9l3.1,0.6
							c0,0-10.1-66.1-10.1-69.2C434.32,108.6,439.02,107,439.02,107z"/>
					</g>
				</g>
			</g>
		</g>
		<g class="st2">
			<g>
				<g>
					<g>
						<path class="st3" d="M558.02,184.1l-1.5-0.8c-3.9,8.6-14.8,11.7-18.7,11.7s-6.2-16.3-7.8-10.1c-0.1,0.4-0.2,0.8-0.4,1.2
							c-2.1,5.7-8.4,10.5-11.3,12c-3.1,1.6-43.6,2.3-58.3,0c-14.8-2.3-17.1-18.7-17.1-18.7l-1.4,1.8l1.7,10.2
							c1.1,7,7.2,12.1,14.3,12.1h68.9c1.2,0,2.5-0.2,3.7-0.5l16.9-4.5c5.6-1.5,9.8-6.2,10.6-11.9L558.02,184.1z"/>
					</g>
				</g>
			</g>
		</g>
		<g>
			<g>
				<g>
					<g>
						<path class="st4" d="M539.22,200.7l7.8-2.1c0.1,0,0.1,0,0.2-0.1L559.32,95c-0.1,0-0.2,0-0.3,0.1l-12.4,3.8L539.22,200.7z"/>
					</g>
				</g>
			</g>
		</g>
		<g>
			<g>
				<g>
					<g>
						<path class="st3" d="M526.32,205.9h-68.9c-8.3,0-15.2-5.9-16.6-14.1l-12.9-79c-0.5-3.1,0.4-6.2,2.4-8.6s5-3.7,8.1-3.7h93.9
							c0.6,0,1.2-0.1,1.7-0.2l24.2-7.4c3.5-1.1,7.2-0.3,10,2.1s4.1,5.9,3.6,9.5l-12,82.5c-1,6.7-5.8,12.1-12.3,13.8l-16.9,4.5
							C529.32,205.7,527.82,205.9,526.32,205.9z M438.42,105.2c-1.7,0-3.4,0.8-4.5,2.1c-1.1,1.3-1.6,3.1-1.3,4.8l12.9,79
							c1,5.9,6,10.2,12,10.2h68.9c1,0,2.1-0.1,3.1-0.4l16.9-4.5l0,0c4.7-1.2,8.2-5.2,8.9-10l12-82.5c0.3-2-0.4-4-2-5.3
							c-1.6-1.4-3.6-1.8-5.6-1.2l-24.2,7.4c-1,0.3-2,0.5-3.1,0.5L438.42,105.2L438.42,105.2z"/>
					</g>
				</g>
			</g>
		</g>
		<g>
			<g>
				<g>
					<g>
						<path class="st3" d="M529.92,205.1h-0.1c-1.3-0.1-2.3-1.1-2.2-2.4l4.9-100.4c0.1-1.3,1.1-2.3,2.4-2.2s2.3,1.1,2.2,2.4
							l-4.9,100.4C532.12,204.1,531.12,205.1,529.92,205.1z"/>
					</g>
				</g>
			</g>
		</g>
		<g>
			<g>
				<g>
					<g>
						<path class="st1" d="M552.62,66.8c-3.5-2.3-8.2-1.2-10.4,2.3c-2,3.1-1.4,7.1,1.2,9.6c-0.7,0.5-1.4,1.1-1.9,1.9
							c-2.1,3.2-1.1,7.5,2.1,9.5c3.2,2.1,7.5,1.1,9.5-2.1c0.3-0.5,0.5-1,0.7-1.5c3.1,0.8,6.5-0.4,8.3-3.2c2.3-3.5,1.2-8.2-2.3-10.4
							c-1.2-0.8-2.6-1.2-3.9-1.2C555.62,69.8,554.42,68,552.62,66.8z"/>
					</g>
				</g>
			</g>
		</g>
		<g class="st2">
			<g>
				<g>
					<g>
						<path class="st3" d="M551.82,85.3c-8.6,6.2-10.4-3.2-10.4-3.2l-0.8,0.5c-0.7,2.8,0.4,5.9,2.9,7.5c3.2,2.1,7.5,1.1,9.5-2.1
							c0.3-0.5,0.5-1,0.7-1.5c3.1,0.8,6.5-0.4,8.3-3.2c1.2-1.9,1.5-4.1,0.9-6.1l-1.1-0.6C561.92,83.7,551.82,85.3,551.82,85.3z"/>
					</g>
				</g>
			</g>
		</g>
		<g>
			<g>
				<g>
					<g>
						<path class="st3" d="M547.32,92.8c-1.6,0-3.2-0.5-4.6-1.4c-3.9-2.5-5.1-7.8-2.5-11.7c0.3-0.5,0.6-0.9,1-1.2
							c-2.2-3-2.4-7-0.3-10.3c2.7-4.2,8.4-5.4,12.6-2.7l0,0c1.8,1.1,3.1,2.8,3.7,4.8c1.2,0.2,2.5,0.7,3.5,1.3c2,1.3,3.4,3.3,4,5.7
							c0.5,2.4,0.1,4.8-1.2,6.8c-1.9,2.9-5.2,4.5-8.6,4.1c-0.1,0.2-0.2,0.4-0.3,0.6C552.82,91.4,550.12,92.8,547.32,92.8z
							 M548.52,67.2c-2,0-3.9,1-5,2.7c-1.6,2.4-1.2,5.6,0.9,7.6c0.3,0.3,0.5,0.8,0.5,1.2c0,0.5-0.3,0.9-0.7,1.2
							c-0.6,0.4-1.1,0.9-1.5,1.5c-1.6,2.5-0.9,5.8,1.6,7.4c1.2,0.8,2.6,1,4,0.7s2.6-1.1,3.4-2.3c0.2-0.3,0.4-0.7,0.6-1.1
							c0.3-0.8,1.1-1.2,1.9-1c2.5,0.7,5.2-0.3,6.6-2.5c0.9-1.4,1.1-2.9,0.8-4.5s-1.2-2.9-2.6-3.7c-0.9-0.6-2-0.9-3.1-0.9
							c-0.7,0-1.4-0.6-1.5-1.3c-0.3-1.6-1.2-3.1-2.6-4l0,0C550.82,67.5,549.62,67.2,548.52,67.2z"/>
					</g>
				</g>
			</g>
		</g>
		<g>
			<g>
				<g>
					<g>
						<path class="st1" d="M508.02,66.9c3.8-0.4,6.6-3.9,6.2-7.7c-0.4-3.4-3.1-6-6.4-6.2c0.2-0.8,0.3-1.6,0.2-2.5
							c-0.4-3.5-3.5-6-7-5.7c-3.5,0.4-6,3.5-5.7,7c0.1,0.5,0.2,1,0.3,1.5c-2.7,1.2-4.4,4-4.1,7.1c0.4,3.8,3.9,6.6,7.7,6.2
							c1.3-0.1,2.5-0.7,3.5-1.4C504.12,66.4,506.02,67.1,508.02,66.9z"/>
					</g>
				</g>
			</g>
		</g>
		<g>
			<g>
				<g>
					<g>
						<path class="st3" d="M507.22,68.5c-1.6,0-3.2-0.5-4.5-1.4c-1,0.6-2.1,0.9-3.3,1.1c-2.3,0.2-4.5-0.4-6.3-1.8s-2.9-3.5-3.1-5.7
							c-0.3-3.2,1.1-6.4,3.8-8.1c0-0.2-0.1-0.3-0.1-0.5c-0.2-2.1,0.4-4.2,1.7-5.8c1.3-1.7,3.2-2.7,5.3-2.9c4.4-0.5,8.3,2.7,8.7,7
							c0,0.5,0.1,0.9,0,1.4c3.3,0.9,5.8,3.8,6.2,7.3c0.2,2.3-0.4,4.5-1.8,6.3c-1.4,1.8-3.5,2.9-5.7,3.1l0,0
							C507.92,68.5,507.52,68.5,507.22,68.5z M508.02,66.9L508.02,66.9L508.02,66.9z M502.72,63.7c0.3,0,0.7,0.1,1,0.4
							c1.1,1,2.6,1.4,4.1,1.3l0,0c1.4-0.2,2.7-0.9,3.6-2c0.9-1.1,1.3-2.5,1.2-4c-0.3-2.6-2.4-4.6-5-4.8c-0.5,0-0.9-0.3-1.2-0.7
							c-0.3-0.4-0.3-0.9-0.2-1.3c0.2-0.6,0.2-1.2,0.2-1.9c-0.3-2.6-2.7-4.6-5.3-4.3c-1.3,0.1-2.4,0.8-3.3,1.8c-0.8,1-1.2,2.3-1,3.5
							c0,0.3,0.1,0.7,0.3,1.1c0.3,0.8-0.1,1.6-0.8,1.9c-2.2,1-3.4,3.2-3.2,5.5c0.3,3,3,5.1,6,4.8c1-0.1,1.9-0.5,2.7-1.1
							C502.02,63.8,502.42,63.7,502.72,63.7z"/>
					</g>
				</g>
			</g>
		</g>
		<g>
			<g>
				<g>
					<g>
						<path class="st1" d="M475.92,78.3c0-2.8-1.9-5.1-4.4-5.8c0-0.1,0-0.1,0-0.2c0-4.2-3.4-7.7-7.7-7.7c-4.2,0-7.7,3.4-7.7,7.7
							c0,0.4,0,0.8,0.1,1.1c-0.2,0-0.4,0-0.6,0c-3.9,0-7.1,3.2-7.1,7.1s3.2,7.1,7.1,7.1c0.7,0,1.3-0.1,1.9-0.2
							c1.4,2.2,3.9,3.5,6.6,3.5c4.1,0,7.4-3.1,7.9-7C474.32,83.1,475.92,80.9,475.92,78.3z"/>
					</g>
				</g>
			</g>
		</g>
		<g class="st2">
			<g>
				<g>
					<g>
						<path class="st3" d="M468.62,80.6c0,0,1.6,5.4-3.9,7c-5.4,1.6-5.4-4.7-5.4-4.7c-8.6,3.9-9.1-6.6-9.1-6.6h-0.5
							c-0.8,1.1-1.2,2.5-1.2,4.1c0,3.9,3.2,7.1,7.1,7.1c0.7,0,1.3-0.1,1.9-0.2c1.4,2.2,3.9,3.5,6.6,3.5c4.1,0,7.4-3.1,7.9-7
							c2.3-0.9,3.9-3.1,3.9-5.6c0-0.3,0-0.6-0.1-0.9l-0.3-0.3C473.92,82.2,468.62,80.6,468.62,80.6z"/>
					</g>
				</g>
			</g>
		</g>
		<g>
			<g>
				<g>
					<g>
						<path class="st3" d="M464.12,92.5c-2.8,0-5.5-1.2-7.3-3.4c-0.4,0.1-0.8,0.1-1.2,0.1c-4.8,0-8.7-3.9-8.7-8.7
							c0-4.4,3.4-8.1,7.7-8.6c0.2-4.9,4.3-8.8,9.2-8.8c4.8,0,8.7,3.7,9.2,8.4c2.6,1.2,4.4,3.9,4.4,6.9c0,2.8-1.6,5.4-4.1,6.7
							C472.42,89.3,468.62,92.5,464.12,92.5z M457.52,85.8c0.5,0,1,0.2,1.3,0.7c1.2,1.8,3.2,2.8,5.3,2.8c3.2,0,5.9-2.4,6.4-5.6
							c0.1-0.6,0.5-1.1,1-1.2c1.7-0.7,2.9-2.3,2.9-4.2c0-2-1.4-3.7-3.3-4.3c-0.7-0.2-1.1-0.8-1.1-1.5c0-0.1,0-0.1,0-0.2
							c0-3.4-2.7-6.1-6.1-6.1s-6.1,2.7-6.1,6.1c0,0.3,0,0.6,0.1,0.9c0.1,0.5-0.1,0.9-0.4,1.3c-0.3,0.3-0.8,0.5-1.3,0.5
							c-0.2,0-0.3,0-0.5,0c-3.1,0-5.6,2.5-5.6,5.6s2.5,5.6,5.6,5.6c0.5,0,1-0.1,1.5-0.2C457.22,85.8,457.32,85.8,457.52,85.8z"/>
					</g>
				</g>
			</g>
		</g>
		<g>
			<g>
				<g>
					<g>
						<path class="st3" d="M456.52,53.7c-0.6,0-1-0.4-1.1-1c-1.5-8.1-9.7-15.6-9.8-15.7c-0.5-0.4-0.5-1.2-0.1-1.6
							c0.4-0.5,1.2-0.5,1.6-0.1c0.3,0.3,8.8,8.2,10.5,17c0.1,0.6-0.3,1.2-0.9,1.4C456.72,53.7,456.62,53.7,456.52,53.7z"/>
					</g>
				</g>
			</g>
		</g>
		<g>
			<g>
				<g>
					<g>
						<path class="st3" d="M450.32,54.5c-0.5,0-1-0.3-1.1-0.9c-1.4-5.7-6.5-9.4-6.6-9.4c-0.5-0.4-0.7-1.1-0.3-1.6
							c0.4-0.5,1.1-0.7,1.6-0.3c0.3,0.2,5.8,4.2,7.5,10.8c0.2,0.6-0.2,1.2-0.8,1.4C450.52,54.5,450.42,54.5,450.32,54.5z"/>
					</g>
				</g>
			</g>
		</g>
		<g>
			<g>
				<g>
					<g>
						<path class="st1" d="M415.02,24.6c0,3.1,2,5.7,4.9,6.5c0,0.1,0,0.2,0,0.2c0,4.8,3.8,8.6,8.5,8.7c4.8,0,8.6-3.8,8.7-8.5
							c0-0.4,0-0.9-0.1-1.2c0.2,0,0.5,0,0.7,0c4.4,0,8-3.5,8.1-7.9s-3.5-8-7.9-8.1c-0.7,0-1.4,0.1-2.1,0.3c-1.6-2.4-4.3-4-7.4-4
							c-4.5,0-8.3,3.3-8.9,7.7C416.82,19.2,415.02,21.7,415.02,24.6z"/>
					</g>
				</g>
			</g>
		</g>
		<g class="st2">
			<g>
				<g>
					<g>
						<path class="st3" d="M445.72,22.9c-4.1,6.3-12.1,4.9-12.1,4.9s0,8.6-5.4,8.6s-5.4-7.8-5.4-7.8c-3.6,0-7.2-3.3-7.7-3.8
							c0,3.1,2.1,5.6,4.9,6.4c0,0.1,0,0.2,0,0.2c0,4.8,3.8,8.6,8.5,8.7s8.6-3.8,8.7-8.5c0-0.4,0-0.9-0.1-1.2c0.2,0,0.5,0,0.7,0
							C441.92,30.3,445.42,27,445.72,22.9z"/>
					</g>
				</g>
			</g>
		</g>
		<g>
			<g>
				<g>
					<g>
						<path class="st3" d="M428.42,41.6h-0.1c-2.7,0-5.2-1.1-7.1-3c-1.7-1.7-2.7-4-2.9-6.4c-2.9-1.4-4.9-4.3-4.9-7.6l0,0
							c0-3.1,1.8-6,4.6-7.4c1-4.8,5.3-8.2,10.2-8.2h0.1c3.2,0,6.1,1.5,8,3.9c0.5-0.1,1-0.1,1.5-0.1c5.3,0,9.5,4.4,9.5,9.6
							c0,4.9-3.9,9-8.7,9.4c-0.1,2.6-1.1,5-3,6.9C433.72,40.6,431.12,41.6,428.42,41.6z M416.52,24.6c0,2.3,1.5,4.4,3.7,5
							c0.7,0.2,1.1,0.8,1.1,1.6c0,0.1,0,0.1,0,0.2l0,0c0,1.9,0.7,3.6,2,5s3.1,2.1,5,2.1s3.6-0.7,5-2s2.1-3.1,2.1-5
							c0-0.3,0-0.6-0.1-1c-0.1-0.5,0.1-0.9,0.4-1.3c0.3-0.3,0.8-0.5,1.3-0.5c0.2,0,0.4,0,0.6,0c3.5,0,6.5-2.8,6.5-6.4
							c0-3.5-2.8-6.5-6.4-6.5c-0.6,0-1.1,0.1-1.7,0.2c-0.7,0.2-1.3-0.1-1.7-0.7c-1.4-2.1-3.6-3.3-6.1-3.3c0,0,0,0-0.1,0
							c-3.7,0-6.8,2.7-7.3,6.4c-0.1,0.6-0.5,1-1,1.2C417.92,20.5,416.52,22.4,416.52,24.6L416.52,24.6z"/>
					</g>
				</g>
			</g>
		</g>
		<g>
			<g>
				<g>
					<g>
						<path class="st1" d="M573.32,51.8c3.4,1.8,7.6,0.6,9.5-2.7c1.7-3,0.9-6.7-1.7-8.7c0.6-0.5,1.2-1.1,1.6-1.9
							c1.7-3.1,0.6-7-2.5-8.7s-7-0.6-8.7,2.5c-0.2,0.5-0.4,0.9-0.6,1.4c-2.9-0.6-5.9,0.8-7.4,3.5c-1.8,3.4-0.6,7.6,2.7,9.5
							c1.2,0.7,2.5,0.9,3.7,0.8C570.42,49.2,571.62,50.8,573.32,51.8z"/>
					</g>
				</g>
			</g>
		</g>
		<g class="st2">
			<g>
				<g>
					<g>
						<path class="st3" d="M576.72,49.5c-3.9,0-4.7-5.4-4.7-5.4c-9.3,0.8-7.6-8.2-7.6-8.2h-0.1c-0.3,0.4-0.6,0.8-0.9,1.2
							c-1.8,3.4-0.6,7.6,2.7,9.5c1.2,0.7,2.5,0.9,3.7,0.8c0.5,1.8,1.6,3.4,3.4,4.4c3.4,1.8,7.6,0.6,9.5-2.7c0.8-1.4,1-2.9,0.8-4.3
							l-2-2.6C581.62,42.1,580.62,49.5,576.72,49.5z"/>
					</g>
				</g>
			</g>
		</g>
		<g>
			<g>
				<g>
					<g>
						<path class="st3" d="M576.72,54.2c-1.4,0-2.8-0.3-4.1-1.1l0,0c-1.7-0.9-3-2.4-3.8-4.2c-1.1-0.1-2.3-0.5-3.3-1
							c-2-1.1-3.4-2.9-4.1-5.1s-0.4-4.5,0.7-6.5c1.6-2.8,4.6-4.5,7.7-4.4c0.1-0.2,0.1-0.3,0.2-0.5c1-1.9,2.7-3.2,4.8-3.8
							c2-0.6,4.2-0.3,6,0.7c1.9,1,3.2,2.7,3.8,4.8c0.6,2,0.3,4.2-0.7,6c-0.2,0.4-0.5,0.8-0.8,1.1c2.2,2.6,2.6,6.4,0.9,9.5
							c-1.1,2-2.9,3.4-5.1,4.1C578.32,54.1,577.52,54.2,576.72,54.2z M570.02,45.9c0.7,0,1.3,0.5,1.5,1.2c0.4,1.5,1.3,2.7,2.6,3.4
							l0,0c1.3,0.7,2.7,0.9,4.1,0.5c1.4-0.4,2.5-1.3,3.2-2.6c1.2-2.3,0.7-5.2-1.3-6.8c-0.4-0.3-0.6-0.7-0.6-1.2s0.2-0.9,0.6-1.2
							c0.5-0.4,0.9-0.9,1.2-1.5c0.6-1.1,0.8-2.4,0.4-3.7s-1.2-2.3-2.3-2.9s-2.4-0.8-3.7-0.4c-1.2,0.3-2.3,1.2-2.9,2.3
							c-0.2,0.3-0.3,0.7-0.4,1.1c-0.2,0.8-1,1.3-1.8,1.1c-2.3-0.5-4.7,0.6-5.8,2.7c-0.7,1.3-0.9,2.7-0.5,4.1s1.3,2.5,2.6,3.2
							C567.92,45.7,568.92,45.9,570.02,45.9C569.92,45.9,569.92,45.9,570.02,45.9z"/>
					</g>
				</g>
			</g>
		</g>
		<g>
			<g>
				<g>
					<g>
						<path class="st3" d="M557.32,64.4c-0.1,0-0.3,0-0.4-0.1c-0.6-0.2-0.9-0.9-0.7-1.5c0.4-1.1,4.2-10.7,9.3-12.4
							c0.6-0.2,1.3,0.1,1.5,0.7s-0.1,1.3-0.7,1.5c-3.4,1.1-6.8,8.3-7.8,11C558.22,64.2,557.82,64.4,557.32,64.4z"/>
					</g>
				</g>
			</g>
		</g>
		<g>
			<g>
				<g>
					<g>
						<path class="st3" d="M563.52,64.4c-0.2,0-0.3,0-0.5-0.1c-0.6-0.3-0.8-1-0.5-1.6c0.8-1.6,3.1-4.7,3.2-4.9
							c0.4-0.5,1.1-0.6,1.6-0.2s0.6,1.1,0.2,1.6c0,0-2.3,3.1-3,4.5C564.42,64.2,564.02,64.4,563.52,64.4z"/>
					</g>
				</g>
			</g>
		</g>
		<g>
			<g>
				<g>
					<g>
						<path class="st3" d="M523.82,74.9c0.3,0.5,0.5,0.9,0.6,1.3c0.2,0.5,0.3,0.9,0.4,1.4c0.2,0.9,0.3,1.9,0.3,2.8s0,1.9-0.2,2.9
							c-0.2,0.9-0.4,1.9-0.9,2.7c-0.1,0.1-0.2,0.2-0.3,0.1c-0.1,0-0.1-0.1-0.1-0.2l0,0c-0.2-0.9-0.3-1.8-0.6-2.6
							c-0.2-0.8-0.5-1.7-0.7-2.5c-0.3-0.8-0.6-1.6-0.8-2.4c-0.1-0.4-0.2-0.8-0.3-1.2s-0.2-0.8-0.3-1.2v-0.1
							c-0.1-0.9,0.5-1.6,1.4-1.8C522.82,74.1,523.52,74.4,523.82,74.9z"/>
					</g>
				</g>
			</g>
		</g>
		<g>
			<g>
				<g>
					<g>
						<path class="st3" d="M480.32,75.7c-0.9-0.8-1.6-1.7-2.3-2.7c-0.7-1-1.3-2-1.8-3.2c-0.5-1.1-0.9-2.3-1.1-3.6
							c-0.1-1.3-0.1-2.7,0.5-4c0.3-0.8,1.2-1.2,2-0.8c0.6,0.3,1,0.9,0.9,1.6v0.2c-0.1,0.9-0.1,1.8-0.1,2.8c0,0.2,0,0.5,0,0.7
							l0.1,0.8c0,0.2,0.1,0.5,0.1,0.8s0.1,0.5,0.1,0.8c0.2,1,0.5,2.1,0.8,3.2s0.7,2.2,1,3.3l0,0c0,0.1,0,0.2-0.1,0.3
							C480.42,75.8,480.32,75.8,480.32,75.7z"/>
					</g>
				</g>
			</g>
		</g>
		<g>
			<g>
				<g>
					<g>
						<path class="st3" d="M504.02,56.5c0.6-0.4,1.1-0.9,1.5-1.5c0.4-0.5,0.6-1.1,0.7-1.6c0-0.3,0.1-0.6,0.1-0.8c0-0.3,0-0.6,0-0.9
							s-0.1-0.6-0.1-0.9s-0.1-0.6-0.1-1v-0.2c0-0.8,0.7-1.4,1.5-1.4c0.6,0,1,0.4,1.2,0.9c0.2,0.4,0.3,0.8,0.4,1.2
							c0.1,0.5,0.1,0.9,0.1,1.4c0,0.9-0.3,1.8-0.8,2.7c-0.5,0.8-1.2,1.5-2,1.9s-1.6,0.6-2.5,0.6c-0.1,0-0.2-0.1-0.2-0.2
							C503.92,56.6,503.92,56.6,504.02,56.5L504.02,56.5z"/>
					</g>
				</g>
			</g>
		</g>
		<g>
			<g>
				<g>
					<g>
						<path class="st3" d="M432.62,25.2c0.6,0.9,1.2,1.8,2,2.4c0.7,0.6,1.6,1,2.4,1.1s1.6-0.1,2.5-0.3c0.9-0.2,1.7-0.7,2.7-1h0.1
							c0.8-0.3,1.7,0.1,2,0.9c0.2,0.7,0,1.4-0.5,1.8c-1,0.7-2.1,1.3-3.4,1.6c-0.6,0.1-1.3,0.2-2,0.2s-1.4-0.2-2-0.5
							c-1.4-0.5-2.4-1.5-3-2.6s-0.9-2.3-1-3.5c0-0.1,0.1-0.2,0.2-0.2C432.52,25,432.62,25.1,432.62,25.2L432.62,25.2z"/>
					</g>
				</g>
			</g>
		</g>
		<g>
			<g>
				<g>
					<g>
						<path class="st3" d="M572.02,38.6c-0.7,0-1.3-0.5-1.5-1.2c-0.9-3.6,0.3-6.4,0.4-6.5c0.3-0.8,1.3-1.1,2-0.8
							c0.8,0.3,1.1,1.3,0.8,2c0,0.1-0.8,2-0.2,4.5c0.2,0.8-0.3,1.7-1.1,1.9C572.32,38.6,572.22,38.6,572.02,38.6z"/>
					</g>
				</g>
			</g>
		</g>
		<g>
			<g>
				<g>
					<g>
						<g>
							<g>
								<path class="st3" d="M513.12,148.6c0.2-5.4-2.6-10-6.4-10.1c-3.7-0.2-7,4.1-7.2,9.6c-0.2,5.4,2.6,10,6.4,10.1
									C509.72,158.3,512.92,154,513.12,148.6z"/>
							</g>
						</g>
					</g>
				</g>
			</g>
			<g>
				<g>
					<g>
						<g>
							<path class="st0" d="M507.22,146.3c0.1-2-0.9-3.7-2.2-3.7c-1.3-0.1-2.5,1.5-2.5,3.5c-0.1,2,0.9,3.7,2.2,3.7
								C505.92,149.9,507.12,148.3,507.22,146.3z"/>
						</g>
					</g>
				</g>
			</g>
			<g>
				<g>
					<g>
						<g>
							<g>
								<path class="st3" d="M492.92,152.1c0.1,6.6-3.3,13.7-7.8,13.8c-4.6,0-8.6-7-8.7-13.6L492.92,152.1z"/>
							</g>
						</g>
					</g>
				</g>
				<g>
					<g>
						<g>
							<g>
								<path class="st6" d="M491.42,160.1c-1.6-1.4-3.8-2.2-6.2-2.1c-2.7,0.1-5.1,1.2-6.6,2.9c1.6,3,4,5.1,6.5,5.1
									C487.72,165.9,489.92,163.4,491.42,160.1z"/>
							</g>
						</g>
					</g>
				</g>
				<g>
					<g>
						<g>
							<g>
								<path class="st3" d="M484.92,168.2c-6.1,0-10.8-8.3-10.9-15.8c0-0.6,0.2-1.2,0.6-1.6s1-0.7,1.6-0.7l16.6-0.2l0,0
									c1.2,0,2.2,1,2.3,2.2c0,3.7-0.8,7.5-2.5,10.4C490.72,166.1,488.02,168.1,484.92,168.2
									C485.02,168.2,485.02,168.2,484.92,168.2z M478.72,154.5c0.8,5,3.9,9.1,6.2,9.1l0,0c1.2,0,2.6-1.2,3.7-3.2
									c0.9-1.7,1.6-3.9,1.8-6L478.72,154.5z"/>
							</g>
						</g>
					</g>
				</g>
			</g>
			<g>
				<g>
					<g>
						<g>
							<g>
								<path class="st3" d="M454.92,149.7c-0.2-5.4,2.6-10,6.4-10.1c3.7-0.2,7,4.1,7.2,9.6c0.2,5.4-2.6,10-6.4,10.1
									C458.32,159.4,455.12,155.1,454.92,149.7z"/>
							</g>
						</g>
					</g>
				</g>
			</g>
			<g>
				<g>
					<g>
						<g>
							<path class="st0" d="M457.62,147.2c0.1-2,1.3-3.6,2.6-3.5c1.3,0.1,2.3,1.8,2.2,3.8c-0.1,2-1.3,3.6-2.6,3.5
								C458.42,150.8,457.52,149.2,457.62,147.2z"/>
						</g>
					</g>
				</g>
			</g>
		</g>
		<g class="st7">
			<g>
				<g>
					<g>
						<polygon class="st3" points="536.42,102 558.02,95.4 564.62,95.4 569.62,100.7 571.62,104.7 556.02,191.5 542.52,200.7 
							530.02,200.7 						"/>
					</g>
				</g>
			</g>
		</g>
	</g>
</g>
</svg>
