<?xml version="1.0" encoding="utf-8"?>
<!-- Generator: Adobe Illustrator 26.0.0, SVG Export Plug-In . SVG Version: 6.00 Build 0)  -->
<svg version="1.1" xmlns="http://www.w3.org/2000/svg" xmlns:xlink="http://www.w3.org/1999/xlink" x="0px" y="0px"
	 viewBox="0 0 2863.63 3186.19" style="enable-background:new 0 0 2863.63 3186.19;" xml:space="preserve">
<style type="text/css">
	.st0{fill:#C3FFCE;}
	.st1{fill:none;stroke:#FFFFFF;stroke-width:5;stroke-miterlimit:10;}
	.st2{fill:#FFEEFA;}
	.st3{fill:#FFE082;}
	.st4{opacity:0.29;}
	.st5{fill:#102770;}
	.st6{fill:#FBF5F5;}
	.st7{fill:#FAC805;}
	.st8{opacity:0.25;}
	.st9{fill:#FFFFFF;}
	.st10{fill:#FFA829;}
	.st11{fill:#498FDE;}
	.st12{fill:#EB374D;}
	.st13{fill:#EF3946;}
	.st14{fill:#ED2E7A;}
	.st15{fill:#E35A51;}
</style>
<g id="Capa_2">
	<path class="st0" d="M2139.55,3074.64h-1880c-27.5,0-50-22.5-50-50v-2783c0-27.5,22.5-50,50-50h1880c27.5,0,50,22.5,50,50v2783
		C2189.55,3052.14,2167.05,3074.64,2139.55,3074.64z"/>
	<path class="st1" d="M2019.55,2941.64h-1880c-27.5,0-50-22.5-50-50v-2783c0-27.5,22.5-50,50-50h1880c27.5,0,50,22.5,50,50v2783
		C2069.55,2919.14,2047.05,2941.64,2019.55,2941.64z"/>
</g>
<g id="Layer_1">
	<g>
		<g>
			<g>
				<g>
					<g>
						<g>
							<g>
								<path class="st2" d="M891.47,1294.51c-23.65,20.17-26.47,55.69-6.3,79.34c6.66,7.81,15.01,13.3,24.03,16.49
									c1.72,9.42,5.82,18.53,12.48,26.34c20.17,23.65,55.69,26.47,79.34,6.3c23.65-20.17,26.47-55.69,6.3-79.34
									c23.65-20.17,26.47-55.69,6.3-79.34s-55.69-26.47-79.34-6.3c-7.81,6.66-13.3,15.01-16.48,24.04
									C908.39,1283.75,899.28,1287.85,891.47,1294.51z"/>
							</g>
						</g>
					</g>
				</g>
			</g>
			<g>
				<g>
					<g>
						<g>
							<g>
								<path class="st3" d="M891.47,1294.51c-23.65,20.17-26.47,55.69-6.3,79.34c6.66,7.81,15.01,13.3,24.03,16.49
									c1.72,9.42,5.82,18.53,12.48,26.34c20.17,23.65,55.69,26.47,79.34,6.3c23.65-20.17,26.47-55.69,6.3-79.34
									c23.65-20.17,26.47-55.69,6.3-79.34s-55.69-26.47-79.34-6.3c-7.81,6.66-13.3,15.01-16.48,24.04
									C908.39,1283.75,899.28,1287.85,891.47,1294.51z"/>
							</g>
						</g>
					</g>
				</g>
			</g>
			<g class="st4">
				<g>
					<g>
						<g>
							<g>
								<path class="st5" d="M891.47,1294.51c-23.65,20.17-26.47,55.69-6.3,79.34c6.66,7.81,15.01,13.3,24.03,16.49
									c1.72,9.42,5.82,18.53,12.48,26.34c20.17,23.65,55.69,26.47,79.34,6.3c23.65-20.17,26.47-55.69,6.3-79.34
									c23.65-20.17,26.47-55.69,6.3-79.34s-55.69-26.47-79.34-6.3c-7.81,6.66-13.3,15.01-16.48,24.04
									C908.39,1283.75,899.28,1287.85,891.47,1294.51z"/>
							</g>
						</g>
					</g>
				</g>
			</g>
			<g>
				<g>
					<g>
						<g>
							<g>
								<path class="st5" d="M920.67,1391.44c-16.97,0-36.37-3.12-46.37-15.51c-3.95-4.88-3.18-12.04,1.7-15.98
									c4.88-3.94,12.04-3.18,15.98,1.7c7.11,8.8,36.8,7.95,54.62,4.61c6.15-1.17,12.1,2.89,13.27,9.06
									c1.16,6.16-2.89,12.1-9.05,13.27C946.52,1389.4,934.38,1391.44,920.67,1391.44z"/>
							</g>
						</g>
					</g>
				</g>
			</g>
			<g class="st4">
				<g>
					<g>
						<g>
							<g>
								<path class="st5" d="M924.42,1268.99c88.94-13,48.79,69.55,48.79,69.55c23.29,17.38,32.97,51.97,36.94,74.45
									c14.8-20.54,14.34-49.23-2.82-69.35c23.65-20.17,26.47-55.69,6.3-79.34c-20.17-23.65-55.69-26.47-79.34-6.3
									C930.43,1261.28,927.15,1265,924.42,1268.99z"/>
							</g>
						</g>
					</g>
				</g>
			</g>
			<g>
				<g>
					<g>
						<g>
							<g>
								<path class="st5" d="M964.56,1451.55c-20.2,0-40.29-8.5-54.4-25.05c-6.27-7.37-10.98-15.95-13.83-25.19
									c-8.67-4.28-16.41-10.28-22.69-17.64c-12.38-14.52-18.36-32.99-16.86-52c1.51-19.02,10.34-36.31,24.86-48.69
									c7.36-6.28,15.95-10.98,25.18-13.83c4.28-8.67,10.27-16.41,17.63-22.68c14.52-12.38,32.95-18.37,52.01-16.86
									c19.02,1.51,36.31,10.34,48.69,24.86c12.38,14.52,18.36,32.99,16.86,52c-1.14,14.34-6.44,27.7-15.2,38.71
									c6.91,12.26,10.03,26.29,8.9,40.63c-1.51,19.02-10.34,36.31-24.86,48.69C997.43,1445.95,980.96,1451.55,964.56,1451.55z
									 M970.75,1259.68c-9.77,0-19.11,3.43-26.63,9.84c-5.46,4.66-9.62,10.73-12.03,17.55c-1.81,5.12-6.22,8.88-11.56,9.86
									c-7.12,1.3-13.77,4.45-19.22,9.11c0,0,0,0,0,0c-8.36,7.13-13.44,17.08-14.31,28.03c-0.87,10.95,2.58,21.58,9.71,29.94
									c4.65,5.46,10.72,9.62,17.55,12.03c5.12,1.81,8.88,6.22,9.85,11.56c1.3,7.12,4.45,13.77,9.11,19.24
									c14.72,17.26,40.73,19.31,57.98,4.6c8.36-7.13,13.44-17.09,14.31-28.04c0.87-10.95-2.58-21.58-9.71-29.94
									c-2.61-3.06-3.89-7.03-3.57-11.03c0.32-4,2.22-7.72,5.27-10.33c8.36-7.13,13.44-17.08,14.31-28.03
									c0.87-10.95-2.58-21.58-9.71-29.94c-7.13-8.36-17.08-13.44-28.03-14.31C972.96,1259.73,971.85,1259.68,970.75,1259.68z
									 M891.47,1294.51h0.05H891.47z"/>
							</g>
						</g>
					</g>
				</g>
			</g>
		</g>
		<g>
			<g>
				<g>
					<g>
						<g>
							<path class="st6" d="M1848.39,764.27c47.54,97.83,153.72,328.88,155.14,443.66l171.26-31.72c0,0-87.77-352.12-184.81-490.15
								c-14.5-20.62-41.84-27.59-64.44-16.44l-53.78,26.55C1846.57,708.61,1836.11,739,1848.39,764.27z"/>
						</g>
					</g>
				</g>
			</g>
		</g>
		<g class="st4">
			<g>
				<g>
					<g>
						<g>
							<path class="st5" d="M1918.39,774.27c-12.28-25.26-1.82-55.66,23.36-68.09l46.16-22.78c-14.91-18.51-40.79-24.42-62.38-13.76
								l-53.78,26.55c-25.19,12.43-35.64,42.83-23.36,68.09c47.54,97.83,153.72,328.88,155.15,443.66l68.55-12.7
								C2059.13,1074.93,1962.97,866.01,1918.39,774.27z"/>
						</g>
					</g>
				</g>
			</g>
		</g>
		<g>
			<g>
				<g>
					<g>
						<g>
							<path class="st5" d="M2003.53,1227.93c-4.59,0-9.09-1.58-12.7-4.55c-4.56-3.74-7.23-9.31-7.3-15.21
								c-1.38-111.18-107.55-341.36-153.13-435.17c-17.01-35.01-2.44-77.52,32.5-94.77l53.78-26.55c31.65-15.63,69.36-6,89.66,22.87
								c98.07,139.48,184.24,482.29,187.86,496.81c1.34,5.35,0.4,11.02-2.58,15.66c-2.99,4.64-7.75,7.84-13.18,8.85l-171.26,31.72
								C2005.97,1227.82,2004.74,1227.93,2003.53,1227.93z M1948.24,684.3c-4.67,0-9.39,1.06-13.85,3.26l-53.78,26.55
								c-15.28,7.54-21.66,26.12-14.23,41.42l0,0c54.33,111.79,143.27,309.46,155.71,428.63l127.96-23.7
								c-20.36-76.9-95.94-348.41-176.43-462.89C1967.6,689,1958.07,684.3,1948.24,684.3z"/>
						</g>
					</g>
				</g>
			</g>
		</g>
		<g>
			<g>
				<g>
					<g>
						<g>
							<g>
								<path class="st7" d="M2541.59,1321.88c-18.58-11.8-16.04-40.01-31.76-53.26c0,0-320.01-158.04-734.19,72.26
									c-81.7,51.31-40.77,65.11-38.22,87.58c16.87,148.47,93.62,798.08,71.41,959.15c-5.53,40.14,19.46,93.87,56.83,107.51
									c142.52,52.01,339.31,94.41,575.52,5.9c37.88-14.2,66.65-64.64,74.3-105.07C2562.92,2145.1,2649.62,1390.53,2541.59,1321.88
									z"/>
							</g>
						</g>
					</g>
				</g>
			</g>
			<g class="st8">
				<g>
					<g>
						<g>
							<g>
								<path class="st9" d="M2505.7,2314.65l30.34-43.53c43.09-291.93,91.28-805.13,24.16-927.48l-16.62-6.13
									C2543.58,1337.51,2543.58,1973.78,2505.7,2314.65z"/>
							</g>
						</g>
					</g>
				</g>
			</g>
			<g class="st4">
				<g>
					<g>
						<g>
							<g>
								<path class="st5" d="M2477.9,1998.91l92.17-4.36c10.16-101.19,18.21-206.44,21.63-303.01
									c-327.6-37.3-617.1,19.09-617.1,19.09l11.36,1.36l-13.03,0.22l31.74,248.89c2.72,21.33,20.59,37.49,42.08,38.05l222.13,5.83
									c16.73,0.44,32.47-7.9,41.51-21.98l23.47-36.58c44.46-35.11,79.87,3.01,98.19,31.49
									C2441.9,1993.21,2459.86,2001.26,2477.9,1998.91z"/>
							</g>
						</g>
					</g>
				</g>
			</g>
			<g>
				<g class="st4">
					<g>
						<g>
							<g>
								<g>
									<path class="st5" d="M2286.85,2542.38c25.03-4.07,50.63-9.54,76.77-16.54c3.62-9.6,5.74-17.22,5.74-21.83
										C2369.36,2485.14,2322.32,2516.24,2286.85,2542.38z"/>
								</g>
							</g>
						</g>
					</g>
				</g>
				<g class="st4">
					<g>
						<g>
							<g>
								<g>
									<path class="st5" d="M1972.75,1374.48c260.54-74.7,500.54-44.55,588.43-28.95c-5.67-10.84-12.15-18.93-19.59-23.66
										c-18.58-11.8-16.04-40.01-31.76-53.26c0,0-320.01-158.04-734.19,72.26c-81.7,51.31-40.77,65.11-38.22,87.58
										c16.87,148.47,93.62,798.08,71.41,959.15c-5.53,40.14,19.46,93.87,56.83,107.51c99.31,36.24,224.99,67.76,371.96,53.63
										c-60.02-101.63-307.59-218.95-307.59-218.95c14.51-58.04,8.17-274.18-2.37-483.68l78.12-8.68l-2.7-93.09l-80.03,14.92
										c-6.43-115.37-13.46-221.32-18.1-288.2C1901.87,1426.9,1930.19,1386.69,1972.75,1374.48z"/>
								</g>
							</g>
						</g>
					</g>
				</g>
			</g>
			<g>
				<g>
					<g>
						<g>
							<g>
								<path class="st5" d="M2164.83,2572.58c-124.36,0-227.97-30.18-306.03-58.67c-49.14-17.93-76.22-82.39-69.79-129.03
									c20.65-149.73-46.2-733.49-68.17-925.31l-3.3-28.85c-0.17-1.27-2.19-4.89-3.53-7.28c-20.34-36.42-6.52-63.39,50.99-99.5
									c0.3-0.19,0.61-0.37,0.91-0.54c218.33-121.4,410.76-134.96,533.76-124.95c134.04,10.91,215.61,50.55,219.01,52.24
									c1.44,0.71,2.79,1.6,4.03,2.63c3.36,2.83,7.48,6.01,11.93,9.46c17.99,13.94,40.39,31.28,49.74,51.01c0,0,0,0,0,0
									c72.5,153.06-2.58,839.11-49.26,1085.86c-8.86,46.81-41.56,103.09-86.93,120.08
									C2345.06,2558.39,2250.06,2572.58,2164.83,2572.58z M1785.82,1358.1c-32.19,20.28-39.06,31.29-40.51,35.1
									c-0.75,1.96-0.77,2.87,3.62,10.74c3.26,5.83,7.31,13.08,8.35,22.27l3.29,28.81c22.11,193.07,89.39,780.6,68.06,935.33
									c-4.55,33,17.59,76.4,43.88,85.99c125.6,45.84,320.47,96.33,561.64,5.96c29.66-11.12,55.1-55.4,61.66-90.06
									c47.04-248.59,117.3-924.33,52.42-1061.3v0c-5.25-11.09-25-26.39-38.08-36.52c-3.97-3.07-7.76-6.01-11.12-8.76
									c-12.86-5.86-88.6-38.35-204.59-47.49C2177.45,1228.94,1994.33,1242.28,1785.82,1358.1z"/>
							</g>
						</g>
					</g>
				</g>
			</g>
			<g>
				<g>
					<g>
						<g>
							<g>
								<path class="st10" d="M2647.95,1213.27c5.71,20.97,6.47,44.74,5.79,67.96c-0.8,26.87-25.27,46.72-51.67,41.65
									c-149.18-28.69-606.91-97.69-931.47,58.99c-23.98,11.58-52.3-6.11-51.16-31.76c0.45-10.04,0.97-20.66,1.56-31.29
									c3.23-57.62-7.14-93.78,46.54-120.2c143.72-70.75,508.02-199.65,897.64-71.25
									C2606.09,1140.85,2637.08,1173.38,2647.95,1213.27z"/>
							</g>
						</g>
					</g>
				</g>
			</g>
			<g class="st4">
				<g>
					<g>
						<g>
							<g>
								<path class="st5" d="M1730.6,1321.87c-23.98,11.58-52.3-6.11-51.16-31.76c0.44-10.04,0.96-20.66,1.56-31.29
									c1.52-27.15,0.03-49.54,3.64-68.39c-5.99,2.8-11.72,5.54-17.1,8.19c-53.68,26.42-43.3,62.59-46.53,120.2
									c-0.6,10.63-1.12,21.24-1.56,31.29c-1.14,25.65,27.18,43.34,51.16,31.76c324.56-156.68,782.29-87.67,931.47-58.99
									c26.4,5.08,50.87-14.77,51.67-41.65c0.2-6.62,0.25-13.28,0.13-19.91C2496.77,1231.83,2049.43,1167.95,1730.6,1321.87z"/>
							</g>
						</g>
					</g>
				</g>
			</g>
			<g>
				<g>
					<g>
						<g>
							<g>
								<path class="st5" d="M1654.58,1410.79c-11.34,0-22.57-3.44-32.24-10.18c-15.25-10.63-23.9-27.82-23.12-45.98
									c0.49-11.67,1.1-24.29,1.81-36.93c0.53-9.46,0.68-18.36,0.83-26.96c0.72-42.57,1.39-82.78,56.85-110.08
									c49.25-24.24,183.14-83.7,362.31-112.12c192.44-30.53,377.64-17.13,550.42,39.82c47.23,15.56,83.05,52.81,95.82,99.64v0
									c4.93,18.1,7.05,39.1,6.66,66.07c-0.29,19.95-9.74,38.15-25.93,49.94c-16.34,11.9-36.81,15.33-56.13,9.41
									c-128.67-39.41-475.44-111.18-915.43,72.95C1669.36,1409.34,1661.95,1410.79,1654.58,1410.79z M2220.52,1093.13
									c-274.85,0-491.23,97.37-544.16,123.43c-33.54,16.51-33.82,33.59-34.52,74.86c-0.14,8.57-0.31,18.28-0.88,28.52
									c-0.7,12.45-1.29,24.89-1.79,36.4c-0.26,6.13,3.67,9.81,6.03,11.45c4.65,3.24,10.55,3.88,15.76,1.69
									c452.03-189.17,809.77-114.97,942.58-74.29c7.19,2.2,14.79,0.92,20.86-3.5c5.92-4.31,9.38-10.94,9.48-18.19
									c0.34-23.12-1.33-40.59-5.25-54.98c-9.22-33.84-35.3-60.82-69.74-72.17C2441.42,1107.64,2326.62,1093.13,2220.52,1093.13z"
									/>
							</g>
						</g>
					</g>
				</g>
			</g>
			<g>
				<g>
					<g>
						<g>
							<g>
								<g>
									<path class="st6" d="M2026.6,1801.15l-219.04,31.97c-28.21,4.12-51.88,23.41-61.6,50.21l-6.47,17.83
										c-4.87,13.42-24.2,12.32-27.52-1.56l-11.62-48.66c-7.16-29.97,8.7-60.66,37.28-72.17l246.09-99.06L2026.6,1801.15z"/>
								</g>
							</g>
						</g>
					</g>
				</g>
				<g class="st4">
					<g>
						<g>
							<g>
								<g>
									<path class="st5" d="M1983.74,1679.69l-36.94,14.87l-7.54,6.13l13.49,61l-106.05,22.72l-11.26-45.03l-97.8,39.37
										c-14.76,5.94-26.09,17.03-32.65,30.46l2.93,73.4l4.05,16.97c3.32,13.89,22.65,14.98,27.52,1.56l6.47-17.83
										c9.72-26.8,33.39-46.09,61.6-50.21l219.03-31.97L1983.74,1679.69z"/>
								</g>
							</g>
						</g>
					</g>
				</g>
				<g>
					<g>
						<g>
							<g>
								<g>
									<path class="st5" d="M1726.03,1925.78c-0.57,0-1.15-0.01-1.73-0.05c-13.12-0.75-23.99-9.84-27.05-22.63l-11.62-48.66
										c-8.82-36.97,11.11-75.55,46.36-89.74l246.09-99.06c3.83-1.55,8.13-1.45,11.9,0.25c3.76,1.7,6.67,4.87,8.05,8.76
										l42.87,121.46c1.51,4.27,1.03,8.99-1.32,12.87c-2.34,3.88-6.3,6.5-10.78,7.16l-219.04,31.97
										c-22.73,3.32-41.71,18.79-49.55,40.39l-6.46,17.82C1749.46,1918.13,1738.46,1925.78,1726.03,1925.78z M1974.72,1699.65
										l-231.41,93.16c-21.45,8.64-33.58,32.11-28.21,54.6l11.03,46.17l5.6-15.42c11.65-32.1,39.87-55.1,73.66-60.04l200.81-29.31
										L1974.72,1699.65z"/>
								</g>
							</g>
						</g>
					</g>
				</g>
				<g>
					<g>
						<g>
							<g>
								<g>
									<path class="st6" d="M2647.48,1662.71l-6.97,0.12l8.64-1.71c-350.43-51.53-674.55,11.62-674.55,11.62l11.36,1.36
										l-13.03,0.22l31.74,248.89c2.72,21.33,20.59,37.49,42.09,38.05l222.13,5.83c16.73,0.44,32.47-7.9,41.51-21.98l23.47-36.58
										c44.46-35.11,79.87,3.01,98.19,31.49c9.84,15.3,27.8,23.35,45.84,21l158.35-7.49
										C2695.07,1822.29,2647.48,1662.71,2647.48,1662.71z"/>
								</g>
							</g>
						</g>
					</g>
				</g>
				<g>
					<g class="st4">
						<g>
							<g>
								<g>
									<g>
										<path class="st5" d="M2310.4,1945.12l12.75-19.87c-138.95-0.03-268.45-1.01-271.93-4.49
											c-7.57-7.57-48.15-246.1-48.15-246.1l-1.54-6.56c-17.45,2.8-26.93,4.65-26.93,4.65l11.36,1.36l-13.03,0.22l31.74,248.89
											c2.72,21.33,20.59,37.49,42.08,38.05l222.13,5.83C2285.62,1967.54,2301.36,1959.21,2310.4,1945.12z"/>
									</g>
								</g>
							</g>
						</g>
					</g>
					<g class="st4">
						<g>
							<g>
								<g>
									<g>
										<path class="st5" d="M2432.06,1940.03c9.84,15.3,27.8,23.35,45.84,21l158.35-7.49c4.33-9.67,8.03-19.5,11.26-29.4
											c-35.17,0.23-125.87,0.77-226.24,1C2425.32,1930.11,2428.96,1935.21,2432.06,1940.03z"/>
									</g>
								</g>
							</g>
						</g>
					</g>
				</g>
				<g>
					<g>
						<g>
							<g>
								<g>
									<path class="st11" d="M2104.35,1722.28l179.51-5.54c28.86-1.07,51.62,24.32,47.41,52.9c0,0-22.51,128.4-84.75,133.79
										l-141.71,2.82c-14.45,0.29-26.7-10.59-28.11-24.97l-11.27-114.42C2063.14,1743.56,2080.96,1723.15,2104.35,1722.28z"/>
								</g>
							</g>
						</g>
					</g>
				</g>
				<g class="st8">
					<g>
						<g>
							<g>
								<g>
									<path class="st9" d="M2283.86,1716.75l-179.51,5.54c-10.66,0.39-20.13,4.87-27.1,11.81l-8.69,22.01l256.72-16.73
										C2317.01,1725.45,2301.6,1716.09,2283.86,1716.75z"/>
								</g>
							</g>
						</g>
					</g>
				</g>
				<g class="st4">
					<g>
						<g>
							<g>
								<g>
									<path class="st5" d="M2299.97,1859.96c-116.44,6.17-206.02,19.75-223.04,22.45c1.94,13.8,13.83,24.12,27.89,23.84
										l141.71-2.82C2269.44,1901.44,2286.96,1882.76,2299.97,1859.96z"/>
								</g>
							</g>
						</g>
					</g>
				</g>
				<g>
					<g>
						<g>
							<g>
								<g>
									<path class="st12" d="M2418.54,1779.78l24.27,86.33c4.35,11.8,14.92,20.18,27.4,21.74l146.76,6.95
										c0,0,22.69-119.92-2.07-169.43l-157.58,0.7C2428.99,1725.13,2408.73,1753.19,2418.54,1779.78z"/>
								</g>
							</g>
						</g>
					</g>
				</g>
				<g class="st8">
					<g>
						<g>
							<g>
								<g>
									<path class="st9" d="M2626.9,1738.97c-1.79-8.93-8.61-6.82-12-13.6l-157.58,0.7c-13.98-0.47-35.1,10.47-42.51,20.47
										L2626.9,1738.97z"/>
								</g>
							</g>
						</g>
					</g>
				</g>
				<g class="st4">
					<g>
						<g>
							<g>
								<g>
									<path class="st5" d="M2614.89,1725.37l-18.3-9.13l-2.54,125.83c-0.75,16.56-15.08,29.2-31.6,27.81
										c-35.77-3.02-86.9-12.2-122.17-12.75l2.52,8.98c1.63,4.42,4.14,8.37,7.29,11.65c4.21,4.38,9.56,7.59,15.53,9.19
										c1.49,0.4,3.02,0.7,4.58,0.9l146.76,6.95C2616.97,1894.8,2639.65,1774.88,2614.89,1725.37z"/>
								</g>
							</g>
						</g>
					</g>
				</g>
				<g>
					<g>
						<g>
							<g>
								<g>
									<path class="st5" d="M2104.26,1917.62c-19.92,0-36.91-15.33-38.87-35.23l-11.26-114.42c-1.4-14.21,3.18-28.53,12.57-39.28
										c9.39-10.75,22.96-17.23,37.23-17.76c0.02,0,0.04,0,0.07,0l179.52-5.54c16.94-0.61,33.47,6.33,44.92,19.11
										c11.45,12.77,16.58,29.83,14.08,46.8c-1.03,5.9-24.87,137.38-95.01,143.45c-0.25,0.02-0.5,0.03-0.76,0.04l-141.71,2.82
										C2104.77,1917.61,2104.52,1917.62,2104.26,1917.62z M2104.74,1733.64c-8.13,0.31-15.57,3.86-20.92,9.99
										c-5.36,6.14-7.88,13.99-7.08,22.11l11.26,114.42c0.82,8.32,7.92,14.73,16.25,14.73c0.11,0,0.21,0,0.33,0l141.31-2.81
										c43.62-4.23,68.33-91.17,74.19-124.4c1.46-9.96-1.65-20.29-8.57-28.02c-6.92-7.73-16.88-11.97-27.22-11.56L2104.74,1733.64
										z"/>
								</g>
							</g>
						</g>
					</g>
				</g>
				<g>
					<g>
						<g>
							<g>
								<g>
									<path class="st5" d="M2616.97,1906.17c-0.18,0-0.36,0-0.54-0.01l-146.76-6.95c-0.29-0.01-0.58-0.04-0.87-0.08
										c-16.76-2.09-30.81-13.24-36.65-29.09c-0.11-0.28-0.2-0.57-0.28-0.86l-24.16-85.92c-5.71-15.93-3.22-33.58,6.7-47.31
										c10.01-13.87,26.42-21.78,43.28-21.23l157.15-0.71c0.01,0,0.03,0,0.05,0c4.3,0,8.24,2.43,10.16,6.28
										c26.17,52.33,4.03,171.57,3.07,176.62C2627.11,1902.3,2622.41,1906.17,2616.97,1906.17z M2471.22,1876.53l136.27,6.45
										c5.86-36.05,13.54-109.09-0.06-146.21l-150.07,0.67c-10.15-0.35-18.87,3.99-24.53,11.82c-5.65,7.83-6.98,17.53-3.64,26.6
										c0.1,0.28,0.2,0.57,0.28,0.86l24.14,85.85C2456.54,1870.08,2463.23,1875.39,2471.22,1876.53z"/>
								</g>
							</g>
						</g>
					</g>
				</g>
				<g>
					<g>
						<g>
							<g>
								<g>
									<path class="st5" d="M2270.12,1982.27c-0.54,0-1.08-0.01-1.62-0.02l-222.13-5.83c-29.17-0.76-53.02-22.33-56.72-51.27
										l-31.74-248.9c-0.54-4.27,0.76-8.57,3.57-11.83c0.58-0.67,1.22-1.28,1.89-1.84c2.13-2.36,5.01-4.06,8.33-4.7
										c3.26-0.64,330.7-63.05,679.65-11.74c7.3,1.07,12.76,7.24,12.94,14.62c0.03,1.25-0.09,2.48-0.36,3.66
										c9.95,32.51,47.35,174.33-14.17,295.96c-2.47,4.87-7.35,8.04-12.8,8.29l-157.77,7.47c-23.68,2.84-47.12-8.07-59.88-27.91
										c-14.29-22.21-30.16-35.78-44.69-38.21c-9.53-1.58-19.16,1.34-29.44,8.94l-22.04,34.34
										C2311.62,1971.28,2291.41,1982.27,2270.12,1982.27z M1990.03,1688.71l29.67,232.61c1.79,14.01,13.33,24.45,27.46,24.82
										l222.13,5.83c11.42,0.32,22.23-5.46,28.37-15.02l23.47-36.58c0.91-1.41,2.04-2.67,3.36-3.71
										c17.84-14.09,36.4-19.66,55.13-16.52c29.56,4.93,51.76,30.84,65.18,51.7c6.57,10.22,18.78,15.79,31.14,14.17
										c0.42-0.05,0.83-0.09,1.25-0.11l149.36-7.07c48.29-104.26,19.46-226.66,9.56-261.5c-2.33-0.71-4.43-1.96-6.14-3.63
										c-288.77-39.49-558.8-1.65-632.68,10.47C1995.38,1686.32,1992.87,1687.92,1990.03,1688.71z"/>
								</g>
							</g>
						</g>
					</g>
				</g>
			</g>
		</g>
		<g>
			<g>
				<g>
					<g>
						<g>
							<g>
								<path class="st12" d="M2444.35,2346.18c0,0,89.03-41.04,168.94,56.12l26.39-16.45c16.91-10.54,37.47,6.64,30.1,25.15
									l-49.88,125.27c-11.26,28.28-46.96,36.45-69.89,16.43c-28.72-25.06-71.16-49.59-125.75-46.86l-4.03-63.16L2444.35,2346.18z"
									/>
							</g>
						</g>
					</g>
				</g>
			</g>
			<g>
				<g>
					<g>
						<g>
							<g>
								<path class="st7" d="M2444.35,2346.18c0,0,89.03-41.04,168.94,56.12l26.39-16.45c16.91-10.54,37.47,6.64,30.1,25.15
									l-49.88,125.27c-11.26,28.28-46.96,36.45-69.89,16.43c-28.72-25.06-71.16-49.59-125.75-46.86l-4.03-63.16L2444.35,2346.18z"
									/>
							</g>
						</g>
					</g>
				</g>
			</g>
			<g class="st4">
				<g>
					<g>
						<g>
							<g>
								<path class="st5" d="M2487.47,2461.42C2487.47,2461.42,2487.47,2461.42,2487.47,2461.42c-0.09-0.03-0.18-0.06-0.26-0.09
									c-4.27-1.47-8.47-2.67-12.6-3.62c-0.24-0.06-0.49-0.12-0.73-0.18c-1.99-0.45-3.96-0.84-5.92-1.18
									c-0.42-0.07-0.83-0.13-1.24-0.2c-5.86-0.96-11.55-1.45-17.04-1.54c-0.56-0.01-1.13-0.02-1.69-0.02
									c-1.71,0-3.42,0.01-5.09,0.08c-0.07,0-0.14,0.01-0.22,0.01c-3.31,0.15-6.53,0.44-9.69,0.85c-0.75,0.09-1.5,0.19-2.24,0.29
									c-1.35,0.2-2.69,0.41-4,0.66c-0.92,0.17-1.83,0.36-2.74,0.54c-0.94,0.19-1.92,0.35-2.84,0.56l0,0.03
									c-36.46,8.39-59.38,31.24-59.38,31.24l7.57,15.15l17.43,15.25c13.51-4.05,27.19-8.62,40.97-13.5
									c52.19-1.5,93.04,21.8,121.11,45.98l25.01-25.01C2543.44,2490.21,2514.12,2470.64,2487.47,2461.42z"/>
							</g>
						</g>
					</g>
				</g>
			</g>
			<g class="st8">
				<g>
					<g>
						<g>
							<g>
								<path class="st9" d="M2611.75,2420.69c0,0-22.72-100.74-155.28-61.73C2456.47,2358.96,2573.88,2390.39,2611.75,2420.69"/>
							</g>
						</g>
					</g>
				</g>
			</g>
			<g>
				<g>
					<g>
						<g>
							<g>
								<path class="st5" d="M2586.95,2583.74c-15.43,0-30.61-5.57-42.52-15.97c-34.18-29.83-71.67-43.95-111.61-41.95
									c-11.08,0.55-20.42-7.95-20.97-18.98c-0.55-11.03,7.94-20.42,18.98-20.97c49.81-2.48,98.24,15.41,139.9,51.77
									c6.11,5.34,14.07,7.31,21.83,5.44c7.51-1.81,13.46-6.99,16.33-14.2l49.88-125.28c0.05-0.57-0.39-0.94-0.62-0.97l-26.7,16.65
									c-8.51,5.3-19.65,3.49-26.03-4.27c-68.55-83.34-142.15-51.98-145.24-50.6c-10.02,4.45-21.88,0.01-26.4-10
									c-4.53-10.01-0.2-21.78,9.78-26.38c33.71-15.54,112.59-23.78,181.09,48.36l12.04-7.5c15.18-9.46,33.84-8.16,47.56,3.31
									c13.72,11.46,18.31,29.61,11.69,46.22l-49.88,125.28c-7.73,19.43-23.8,33.38-44.09,38.28
									C2596.99,2583.15,2591.95,2583.74,2586.95,2583.74z"/>
							</g>
						</g>
					</g>
				</g>
			</g>
		</g>
		<g>
			<g>
				<g>
					<g>
						<g>
							<g>
								<path class="st7" d="M2132.58,2386.81c0,0,125.26-15.28,183.17,96.4l29.24-10.59c18.74-6.79,35.27,14.3,24.2,30.87
									l-74.89,112.13c-16.91,25.31-53.52,25.87-71.78,1.51c-22.86-30.5-59.27-63.32-113.23-72.03L2132.58,2386.81z"/>
							</g>
						</g>
					</g>
				</g>
			</g>
			<g class="st4">
				<g>
					<g>
						<g>
							<g>
								<path class="st5" d="M2248.16,2572.19c-12.02-42.09-64.64-88.93-123.71-130.14l-15.16,103.05
									c53.96,8.71,90.36,41.54,113.23,72.03c18.26,24.35,54.88,23.8,71.78-1.51l74.89-112.13c0.03-0.04,0.04-0.09,0.07-0.13
									C2367.28,2475.42,2248.16,2572.19,2248.16,2572.19z"/>
							</g>
						</g>
					</g>
				</g>
			</g>
			<g>
				<g>
					<g>
						<g>
							<g>
								<path class="st5" d="M2258.09,2655.01c-20.19,0-39.36-9.59-51.57-25.88c-27.21-36.29-60.99-57.92-100.42-64.29
									c-10.9-1.76-18.32-12.03-16.56-22.93c1.76-10.9,12.01-18.34,22.93-16.56c49.3,7.96,92.89,35.55,126.04,79.78
									c4.86,6.48,12.07,10.06,20.22,9.87c7.72-0.21,14.62-4.03,18.94-10.49l74.89-112.13c0.17-0.54-0.18-1-0.41-1.08l-29.58,10.72
									c-9.45,3.42-19.94-0.69-24.57-9.6c-50.62-97.58-158.5-86.28-163.06-85.74c-10.87,1.26-20.89-6.55-22.19-17.5
									c-1.3-10.94,6.46-20.88,17.41-22.21c5.44-0.66,128.27-14.26,194.61,91.71l13.42-4.86c16.79-6.09,34.8-0.94,45.83,13.14
									c11.03,14.07,11.74,32.77,1.81,47.64l-74.89,112.13c-11.62,17.39-30.24,27.69-51.11,28.26
									C2259.25,2655,2258.67,2655.01,2258.09,2655.01z"/>
							</g>
						</g>
					</g>
				</g>
			</g>
		</g>
		<g>
			<g>
				<g>
					<g>
						<g>
							<path class="st3" d="M1771.54,1459.35c0,0,7.15-42.89-24.18-89.75c-31.33-46.86-83.04,3.97-83.04,3.97
								s7.15-35.74-28.59-71.48c-35.74-35.74-64.33,0-64.33,0s-7.15-57.18-71.48-64.33c-45.55-5.06-66,36.44-74.07,61.12
								c-19.65-48.4-67.05-82.56-122.5-82.56c-42.56,0-80.33,20.19-104.52,51.43c-16.78,10.83-27.72,27.19-27.72,27.19
								s-14.3-57.18-92.92-42.89c-78.63,14.3-85.78,128.66-85.78,128.66s-42.89-7.15-85.78,7.15s-42.89,78.63-42.89,78.63
								s-42.89-28.59-100.07-7.15c-57.18,21.44-28.59,128.66-28.59,128.66c-50.04,64.33,28.59,135.81,28.59,135.81l936.38-85.78
								c0,0,121.52-57.18,128.66-107.22S1771.54,1459.35,1771.54,1459.35z"/>
						</g>
					</g>
				</g>
			</g>
		</g>
		<g class="st4">
			<g>
				<g>
					<g>
						<g>
							<path class="st5" d="M763.52,1655.71c0,0-15.15-81.7,37.87-96.56c0,0,3.5-72.33,39.62-88.16c36.12-15.83,74,28.74,74,28.74
								s15.15-29.71,53.02-37.14c37.87-7.43,75.75,14.85,75.75,14.85s7.57-59.42,53.02-66.85c45.45-7.43,83.32,29.71,83.32,29.71
								s7.57-81.7,60.6-96.56c0,0,7.57-59.42,53.02-59.42s37.87,74.27,37.87,74.27s53.02-22.28,83.32,0
								c30.3,22.28,37.87,51.99,37.87,51.99s15.15-37.14,60.6-29.71c45.45,7.43,76.55,67.05,76.55,67.05s-0.81-89.33,74.94-52.19
								c75.75,37.14,89.63,111.47,89.63,111.47l-305.63,151.49L763.52,1655.71z"/>
						</g>
					</g>
				</g>
			</g>
		</g>
		<g>
			<g>
				<g>
					<g>
						<g>
							<path class="st5" d="M1706.58,1435.98c-3.4,0-6.77-1.52-9-4.42c-33.9-43.92-95.82-41.08-96.44-41.04
								c-6.31,0.34-11.62-4.47-11.96-10.73c-0.34-6.27,4.46-11.62,10.73-11.96c2.97-0.16,74.54-3.43,115.65,49.85
								c3.83,4.97,2.92,12.1-2.05,15.94C1711.44,1435.21,1709,1435.98,1706.58,1435.98z"/>
						</g>
					</g>
				</g>
			</g>
		</g>
		<g>
			<g>
				<g>
					<g>
						<g>
							<path class="st5" d="M763.68,1738.97c-3.75,0-7.39-1.39-10.19-3.94c-29.75-27.04-73.66-92.1-34.73-150.27
								c-5.76-26.49-20.6-117.02,39.6-139.6c39.07-14.65,72.25-8.55,92.54-1.35c4.26-23.66,16.39-58.8,50.94-70.32
								c30.02-10,59.74-10.36,77.27-9.32c5.3-34.39,25.19-114.08,96.37-127.02c52.77-9.59,83.55,9.97,98.96,30.83
								c4.03-3.88,8.73-7.89,13.98-11.5c28.2-35.19,69.94-55.31,114.93-55.31c49.28,0,94.11,24.16,121.21,63.54
								c18.09-30.49,45.11-45.56,77.03-42c43.88,4.88,67.25,31.06,77.87,54.17c5.88-2.97,12.93-5.29,20.98-5.73
								c16.23-0.91,31.68,5.92,46.01,20.24c19.02,19.03,27.52,38.34,31.12,53.77c11.61-6.47,26.38-11.88,41.82-10.26
								c11.26,1.15,27.44,6.66,40.57,26.29c24.26,36.28,27.63,70.63,27.42,88.31c20.88,9.71,63.2,35.58,56.35,83.48
								c-8.07,56.49-124.02,112.57-137.21,118.78c-1.6,0.75-3.31,1.22-5.07,1.38l-936.38,85.78
								C764.6,1738.95,764.14,1738.97,763.68,1738.97z M806.92,1466.48c-11.29,0-24.1,1.87-37.92,7.05
								c-42.96,16.11-19.51,109.65-19.26,110.59c1.21,4.57,0.22,9.46-2.69,13.19c-34.85,44.81,7.52,95.47,22.25,110.78l926.69-84.89
								c44.28-21.23,113.46-64.56,117.74-94.52c5.25-36.8-46.5-54.8-47.02-54.98c-7-2.38-11.3-9.48-10.13-16.77
								c0.25-1.64,5.44-38.14-21.82-78.91c-5.36-8.02-11.41-12.27-18.47-13c-16.15-1.65-35.71,13.81-41.35,19.35
								c-4.75,4.66-11.97,5.69-17.83,2.52c-5.85-3.16-8.96-9.77-7.65-16.3c0.17-0.98,4.59-28.75-24.45-57.8
								c-7.97-7.98-15.65-11.83-22.91-11.42c-10.76,0.6-18.8,10.07-18.88,10.17c-3.8,4.76-10.08,6.76-15.95,5.12
								c-5.86-1.66-10.16-6.66-10.92-12.7c-0.24-1.76-6.92-45.47-58.12-51.16c-33.01-3.67-49.76,25.59-57.99,50.77
								c-1.98,6.04-7.51,10.21-13.87,10.43c-6.25,0.28-12.17-3.55-14.57-9.44c-18.03-44.41-60.61-73.11-108.47-73.11
								c-36.39,0-70.12,16.61-92.54,45.56c-1.05,1.36-2.32,2.52-3.76,3.45c-13.79,8.9-23.27,22.78-23.36,22.92
								c-3.35,4.95-9.36,7.5-15.2,6.45c-5.89-1.04-10.62-5.42-12.08-11.23c-1.17-4.29-13.59-42.92-75.52-31.66
								c-66.19,12.04-73.3,113.68-73.36,114.7c-0.27,4.28-2.34,8.25-5.69,10.92c-3.36,2.67-7.69,3.79-11.92,3.08
								c-0.36-0.06-39.91-6.28-78.5,6.57c-31.64,10.55-32.52,63.72-32.52,64.26c0,5.59-3.08,10.72-8,13.36
								c-4.94,2.63-10.91,2.34-15.55-0.75C854.32,1478.43,835.46,1466.48,806.92,1466.48z M1700.07,1638.04h0.05H1700.07z"/>
						</g>
					</g>
				</g>
			</g>
		</g>
		<g>
			<g>
				<g>
					<g>
						<g>
							<path class="st6" d="M1849.1,1588.06c14.57,92.33-209.34,204.06-520.41,253.16s-547.48,52.54-581.92-34.35
								c-32.67-82.42-5.37-252.66,490.21-347.43C1749.46,1361.43,1834.52,1495.73,1849.1,1588.06z"/>
						</g>
					</g>
				</g>
			</g>
		</g>
		<g class="st4">
			<g>
				<g>
					<g>
						<g>
							<path class="st5" d="M1823.87,1652.9c-2.29-164.09-206.03-186.45-492.25-156.32c-324.01,34.11-515.08,174.22-537.8,249.96
								c-16.34,54.48,7.2,93.73,21.71,111.49c7.43,2.32,15.37,4.41,23.83,6.26l280.17-87.44c0,0,316.68,19.51,525.38-17.25
								C1728.69,1726.94,1791.14,1689.87,1823.87,1652.9z"/>
						</g>
					</g>
				</g>
			</g>
		</g>
		<g>
			<g>
				<g>
					<g>
						<g>
							<path class="st5" d="M972.72,1895.69c-142.32,0-223-27.09-244.55-81.46c-10.77-27.17-23.46-82.56,12.59-148.19
								c60.55-110.24,224.95-191.7,488.63-242.12c268.49-51.35,455.97-41.3,557.2,29.86c45.94,32.29,73.61,76.42,82.25,131.16
								c8.7,55.14-42.83,111.8-149.04,163.87c-98.79,48.43-236.59,88.27-388,112.17C1185.28,1884.1,1065.81,1895.69,972.72,1895.69z
								 M1525.06,1431.33c-80.84,0-177.01,10.62-288.15,31.87c-313.16,59.89-423.59,153.83-461.08,222.09
								c-28.16,51.28-18.64,93.56-10.46,114.2c12.38,31.24,91.74,95.91,560.21,21.97c147.58-23.29,281.34-61.85,376.64-108.57
								c85.05-41.7,132.58-87.2,127.13-121.71l0,0c-6.88-43.64-29-78.85-65.74-104.68
								C1711.3,1449.73,1631.47,1431.33,1525.06,1431.33z"/>
						</g>
					</g>
				</g>
			</g>
		</g>
		<g>
			<g>
				<g>
					<g>
						<g>
							<path class="st6" d="M1755.81,2208.6c7.57,0,184.89,83.49,228.79-7.49c43.9-90.98-160.62-166.73-160.62-166.73"/>
						</g>
					</g>
				</g>
			</g>
		</g>
		<g class="st4">
			<g>
				<g>
					<g>
						<g>
							<path class="st5" d="M1977.58,2136.06c-33.32,42.75-93,49.82-93,49.82l-15.15-113.62l-58.97-3.32l-54.65,139.66
								c7.57,0,184.9,83.49,228.79-7.49C1995.69,2178.13,1990.9,2156.12,1977.58,2136.06z"/>
						</g>
					</g>
				</g>
			</g>
		</g>
		<g>
			<g>
				<g>
					<g>
						<g>
							<path class="st5" d="M1902.16,2263.79c-54.47,0-113.64-22.05-141.07-32.28c-3.42-1.27-7.24-2.7-8.91-3.24
								c-9.31-1.71-16.37-9.87-16.37-19.67c0-11.04,8.96-20,20-20c4.66,0,7.75,1.15,19.24,5.43
								c107.29,39.98,171.72,39.44,191.53-1.62c5.29-10.97,5.58-21.49,0.9-33.12c-19.54-48.52-115.23-93.09-150.46-106.17
								c-10.35-3.84-15.63-15.35-11.8-25.71c3.85-10.35,15.32-15.65,25.7-11.8c14.65,5.42,143.98,55.13,173.65,128.7
								c8.82,21.89,8.14,44.53-1.96,65.48C1982.8,2250.86,1943.86,2263.79,1902.16,2263.79z M1755.78,2228.6c0.01,0,0.02,0,0.03,0
								C1755.8,2228.6,1755.79,2228.6,1755.78,2228.6z M1755.76,2228.6C1755.77,2228.6,1755.77,2228.6,1755.76,2228.6
								C1755.77,2228.6,1755.77,2228.6,1755.76,2228.6z"/>
						</g>
					</g>
				</g>
			</g>
		</g>
		<g>
			<g>
				<g>
					<g>
						<g>
							<path class="st6" d="M1770.09,1621.63c-6.32-26.72-21.05-49.38-40.75-65.36c0,0-469.32-104.42-816.15,113.58
								c-98.11,66.89-84.07,102.66-80.15,130.62c25.93,184.72,75.27,463.62,53.85,665.44c-5.34,50.29,27.15,116.48,73.35,132.2
								c176.19,59.93,454.94,86.01,740.72-32.72c45.83-19.04,79.22-83,87.14-133.74C1837.21,2116.9,1804.86,1768.75,1770.09,1621.63
								z"/>
						</g>
					</g>
				</g>
			</g>
		</g>
		<g>
			<g>
				<g>
					<g>
						<g>
							<g>
								<path class="st13" d="M1317.88,2646.96c0,0-10.55-732.82-72.58-1101.84c-72.07,10.71-146.83,28.62-219.7,57.08
									c47.48,215.57,122.13,639.18,80.69,1027.13L1317.88,2646.96z"/>
							</g>
						</g>
					</g>
				</g>
			</g>
			<g>
				<g>
					<g>
						<g>
							<g>
								<path class="st13" d="M1708.54,2565.38c3.57-1.48,7.03-3.32,10.44-5.32c4.55-128.45,20-681.8-37.11-1013.41
									c-44.32-6.55-112.51-14.2-193.93-15.25c36.83,287.53,94.16,811,64.26,1085.44
									C1603.68,2604.11,1655.99,2587.21,1708.54,2565.38z"/>
							</g>
						</g>
					</g>
				</g>
			</g>
			<g>
				<g class="st4">
					<g>
						<g>
							<g>
								<g>
									<path class="st5" d="M1832.44,1891.05l-6.97,0.22l8.61-1.68c-351.29-41.01-674.24,21.31-674.24,21.31l11.38,1.05
										l-13.02,0.41l36.14,224.63c3.1,19.25,21.25,33.58,42.75,33.74l222.2,1.72c16.74,0.13,32.33-7.66,41.12-20.55l22.82-33.46
										c43.83-32.47,79.91,1.44,98.73,26.91c10.11,13.68,28.21,20.68,46.21,18.26l158.2-9.31
										C1882.84,2034.63,1832.44,1891.05,1832.44,1891.05z"/>
								</g>
							</g>
						</g>
					</g>
				</g>
			</g>
		</g>
		<g>
			<g>
				<g>
					<g>
						<g>
							<g>
								<path class="st5" d="M1492.92,2154.06l117.61-8.32c15.33-1.08,28.64,10.46,29.72,25.79l-0.03-0.47
									c0.07,1.04,0.11,2.08,0.13,3.11c0.11,0.88,0.22,1.77,0.28,2.67c2.44,34.53-34.33,65.26-82.14,68.64
									c-47.81,3.38-88.55-21.87-90.99-56.39c-0.06-0.9-0.08-1.79-0.1-2.68c-0.13-1.02-0.24-2.05-0.31-3.09l0.03,0.47
									C1466.05,2168.45,1477.59,2155.15,1492.92,2154.06z"/>
							</g>
						</g>
					</g>
				</g>
			</g>
			<g>
				<g>
					<g>
						<g>
							<g>
								<path class="st14" d="M1558.5,2245.48c-25.1,1.78-48.18-4.39-64.86-15.6c1.08-24.64,27.03-45.77,60.35-48.13
									c33.32-2.36,61.99,14.9,66.53,39.15C1605.58,2234.35,1583.59,2243.71,1558.5,2245.48z"/>
							</g>
						</g>
					</g>
				</g>
			</g>
			<g>
				<g>
					<g>
						<g>
							<g>
								<path class="st5" d="M1549.92,2260.94c-22.79,0-44.48-5.76-61.91-16.56c-21.43-13.28-34.08-32.54-35.61-54.22
									c-0.06-0.91-0.1-1.8-0.12-2.7c-0.09-0.74-0.17-1.49-0.23-2.24c-0.01-0.11-0.02-0.22-0.02-0.34l0,0c0-0.01,0-0.02,0-0.03l0,0
									c0-0.03-0.01-0.06-0.01-0.09c-0.01-0.13-0.02-0.26-0.03-0.39c-0.01-0.25-0.03-0.49-0.03-0.74
									c-0.99-23.13,16.67-43.05,39.9-44.69l117.62-8.32c11.48-0.81,22.53,2.89,31.2,10.41c8.39,7.29,13.56,17.31,14.61,28.34
									c0.02,0.19,0.04,0.39,0.05,0.58l0,0c0,0.01,0,0.03,0.01,0.04l0,0c0,0.04,0,0.09,0.01,0.13c0.01,0.11,0.01,0.22,0.02,0.33
									c0.01,0.18,0.02,0.35,0.03,0.53c0.04,0.7,0.06,1.4,0.08,2.09c0.11,0.89,0.2,1.78,0.26,2.68
									c3.03,42.81-40.12,80.86-96.19,84.83C1556.33,2260.82,1553.11,2260.94,1549.92,2260.94z M1482.24,2182.59
									c0.05,0.63,0.12,1.26,0.2,1.88c0.08,0.59,0.12,1.18,0.12,1.77c0.01,0.59,0.02,1.18,0.06,1.78
									c0.83,11.71,8.41,22.58,21.35,30.6c14.51,8.99,33.51,13.17,53.46,11.75c38.73-2.74,69.92-26.77,68.1-52.46
									c-0.04-0.61-0.12-1.22-0.2-1.83c-0.07-0.56-0.11-1.13-0.12-1.69c-0.01-0.67-0.03-1.34-0.08-2.01
									c-0.29-3.29-1.82-6.28-4.32-8.45c-2.56-2.22-5.84-3.33-9.2-3.07l-117.62,8.32l0,0
									C1487.06,2169.66,1481.82,2175.67,1482.24,2182.59z M1492.92,2154.06h0.05H1492.92z"/>
							</g>
						</g>
					</g>
				</g>
			</g>
		</g>
		<g>
			<g>
				<g>
					<g>
						<g>
							<path class="st5" d="M1282.23,2668.76c-145.52,0-258.69-28-328.43-51.72c-56.94-19.37-92.78-96.88-86.8-153.24
								c18.19-171.38-15.13-397.29-41.89-578.81c-4.24-28.75-8.28-56.14-11.87-81.74c-0.26-1.82-0.56-3.67-0.87-5.57
								c-6.17-37.94-4.34-80.33,89.56-144.35c0.21-0.14,0.41-0.28,0.62-0.41c183.14-115.11,399.44-140.54,548.64-141.61
								c161.08-1.1,277.63,24.35,282.5,25.43c3.02,0.67,5.85,2.04,8.25,3.99c23.61,19.15,40.52,46.24,47.62,76.29
								c33.97,143.77,68.98,492.89,18.31,817.69c-8.95,57.34-45.9,126.97-99.22,149.13c-133.32,55.39-274.29,83.95-419.01,84.89
								C1287.16,2668.76,1284.68,2668.76,1282.23,2668.76z M924.14,1686.59c-80.39,54.89-76.09,81.33-72.29,104.67
								c0.36,2.19,0.7,4.33,1,6.44c3.58,25.51,7.61,52.81,11.83,81.46c27.1,183.76,60.83,412.45,42.1,588.87
								c-4.7,44.21,24.98,99.27,59.9,111.15c83.71,28.48,383.49,110.3,726.62-32.26c37.87-15.73,67.9-72.53,75.04-118.35
								c49.8-319.16,15.57-661.5-17.71-802.32l0,0c-4.71-19.95-15.42-38.03-30.35-51.41
								C1670.58,1564.92,1241.47,1487.36,924.14,1686.59z"/>
						</g>
					</g>
				</g>
			</g>
		</g>
		<g>
			<g>
				<g>
					<g>
						<g>
							<g>
								<path class="st6" d="M1214.11,1988.33l-218.44,32.42c-28.14,4.18-51.46,22-60.7,46.4l-6.15,16.23
									c-4.63,12.22-23.98,11.53-27.54-0.97l-12.48-43.83c-7.68-26.99,7.63-55.01,36-65.88l244.3-93.54L1214.11,1988.33z"/>
							</g>
						</g>
					</g>
				</g>
			</g>
			<g class="st4">
				<g>
					<g>
						<g>
							<g>
								<path class="st5" d="M1172.59,1887.64l-37.91,17.98l7.57,60.6c0,0-214.94,11.04-205.94,73.69l14.25,3.24
									c11.59-11.69,27.38-19.76,45.11-22.39l218.44-32.42L1172.59,1887.64z"/>
							</g>
						</g>
					</g>
				</g>
			</g>
			<g>
				<g>
					<g>
						<g>
							<g>
								<path class="st5" d="M915.24,2111.11c-0.5,0-1.01-0.01-1.51-0.03c-14.74-0.62-26.78-9.85-30.66-23.49l-12.48-43.83
									c-10.33-36.28,10.07-74.44,47.45-88.75l244.3-93.54c9.59-3.68,20.37,0.97,24.28,10.47l45,109.17
									c2.22,5.39,1.84,11.5-1.04,16.56c-2.88,5.07-7.92,8.53-13.69,9.38l-218.43,32.42c-21.4,3.18-38.95,16.35-45.78,34.38
									l-6.14,16.23C941.71,2102.81,929.25,2111.11,915.24,2111.11z M1158.63,1903.44l-227.06,86.94
									c-19.23,7.36-29.57,25.45-24.57,43.01l8.79,30.88l1.45-3.83c11.69-30.85,40.68-53.24,75.64-58.43l194.47-28.87
									L1158.63,1903.44z"/>
							</g>
						</g>
					</g>
				</g>
			</g>
			<g>
				<g>
					<g>
						<g>
							<g>
								<path class="st6" d="M1832.44,1853.17l-6.97,0.22l8.61-1.68c-351.29-41.01-674.24,21.31-674.24,21.31l11.38,1.05
									l-13.02,0.41l36.14,224.63c3.1,19.25,21.25,33.58,42.75,33.74l222.2,1.72c16.74,0.13,32.33-7.66,41.12-20.55l22.82-33.46
									c43.83-32.47,79.91,1.44,98.73,26.91c10.11,13.68,28.21,20.68,46.21,18.26l158.2-9.31
									C1882.84,1996.76,1832.44,1853.17,1832.44,1853.17z"/>
							</g>
						</g>
					</g>
				</g>
			</g>
			<g>
				<g>
					<g>
						<g>
							<g>
								<path class="st11" d="M1290.45,1915.75l179.39-7.88c28.84-1.43,52.04,21.17,48.33,47.09c0,0-20.24,116.5-82.37,122.37
									l-141.64,4.82c-14.45,0.49-26.88-9.15-28.55-22.14l-13.29-103.32C1249.62,1935.65,1267.07,1916.91,1290.45,1915.75z"/>
							</g>
						</g>
					</g>
				</g>
			</g>
			<g class="st8">
				<g>
					<g>
						<g>
							<g>
								<path class="st9" d="M1253.59,1944.67l263.06-6.84c-5.83-17.91-24.62-31.05-46.81-29.95l-179.39,7.88
									c-18.36,0.91-33.02,12.69-37.17,27.89L1253.59,1944.67z"/>
							</g>
						</g>
					</g>
				</g>
			</g>
			<g>
				<g>
					<g>
						<g>
							<g>
								<path class="st15" d="M1605.6,1962.73l25.79,77.7c4.56,10.6,15.27,18.02,27.78,19.23l146.86,3.94
									c0,0,20.56-108.84-5.07-153.22l-157.54,3.15C1615.08,1913.13,1595.32,1938.83,1605.6,1962.73z"/>
							</g>
						</g>
					</g>
				</g>
			</g>
			<g class="st8">
				<g>
					<g>
						<g>
							<g>
								<path class="st9" d="M1807.39,1930.26l-45.95-19.09l-118.02,2.36c-17.23-0.24-31.24,9.18-37.3,21.97L1807.39,1930.26z"/>
							</g>
						</g>
					</g>
				</g>
			</g>
			<g>
				<g>
					<g>
						<g>
							<g>
								<path class="st5" d="M1293.06,2093.53c-19.83,0-36.34-13.57-38.72-32.08l-13.29-103.32c-1.63-12.63,2.1-25.11,10.5-35.15
									c9.26-11.06,23.23-17.83,38.33-18.58c0.02,0,0.04,0,0.06,0l179.38-7.88c18.15-0.89,35.33,5.97,47.08,18.85
									c10.38,11.39,15.12,26.4,13.01,41.19c-0.94,5.44-22.58,125.46-92.55,132.08c-0.23,0.02-0.45,0.04-0.68,0.04l-141.64,4.82
									C1294.05,2093.52,1293.55,2093.53,1293.06,2093.53z M1290.98,1927.1c-8.78,0.44-16.8,4.26-21.99,10.46
									c-4.29,5.12-6.2,11.4-5.4,17.67l13.29,103.32c0.92,7.16,8.56,12.48,16.89,12.24l141.27-4.81
									c43.58-4.49,66.69-83.02,71.93-112.98c1.11-7.82-1.48-15.88-7.36-22.32c-7.16-7.85-17.84-12.04-29.22-11.46L1290.98,1927.1z
									"/>
							</g>
						</g>
					</g>
				</g>
			</g>
			<g>
				<g>
					<g>
						<g>
							<g>
								<path class="st5" d="M1806.03,2074.96c-0.1,0-0.2,0-0.31,0l-146.86-3.94c-0.26-0.01-0.53-0.02-0.79-0.05
									c-16.68-1.61-30.91-11.6-37.12-26.05c-0.13-0.3-0.24-0.6-0.34-0.91l-25.65-77.27c-5.84-14.01-4.31-29.32,4.22-42.08
									c9.59-14.34,25.95-22.83,44.4-22.49l157.15-3.15c0.08,0,0.16,0,0.23,0c4.05,0,7.81,2.16,9.84,5.68
									c27.42,47.49,7.26,156.4,6.39,161.02C1816.18,2071.09,1811.48,2074.96,1806.03,2074.96z M1659.91,2048.31l136.59,3.66
									c5.16-32.65,11.31-97.35-2.5-130.1l-150.34,3.01c-0.17,0-0.34,0-0.5,0c-10.66,0-19.87,4.61-25.08,12.4
									c-2.51,3.75-6.11,11.47-2.04,20.95c0.13,0.3,0.24,0.6,0.34,0.91l25.62,77.18
									C1644.96,2042.77,1651.91,2047.42,1659.91,2048.31z"/>
							</g>
						</g>
					</g>
				</g>
			</g>
			<g>
				<g>
					<g>
						<g>
							<g>
								<path class="st5" d="M1459.71,2149.72c-0.18,0-0.36,0-0.54,0l-222.2-1.72c-29.07-0.22-53.29-19.78-57.59-46.49
									l-36.14-224.62c-0.69-4.3,0.5-8.69,3.27-12.05c0.73-0.89,1.56-1.68,2.46-2.38c2.09-2.16,4.85-3.71,7.99-4.32
									c3.25-0.63,329.3-62.3,678.87-21.48c7.42,0.86,13.1,7.01,13.38,14.47c0.04,1.06-0.03,2.11-0.2,3.12
									c10.98,30.81,50.07,158.29-9.3,269.3c-2.49,4.65-7.21,7.67-12.47,7.98l-157.67,9.28c-23.25,2.89-46.69-6.61-59.8-24.35
									c-10.22-13.83-26.33-30.91-45.04-33.7c-10.03-1.49-20.03,1.29-30.5,8.53l-21.31,31.25
									C1501.31,2139.59,1481.44,2149.72,1459.71,2149.72z M1175.8,1888.51l33.5,208.19c1.91,11.87,13.91,20.9,27.91,21l222.2,1.72
									c0.1,0,0.2,0,0.29,0c11.54,0,22.32-5.32,28.19-13.94l22.83-33.46c0.95-1.4,2.13-2.63,3.5-3.64
									c17.75-13.14,36.29-18.39,55-15.58c28.97,4.33,51.3,27.22,64.93,45.66c6.75,9.14,19.33,13.95,32.01,12.25
									c0.38-0.05,0.75-0.09,1.13-0.11l149.53-8.81c45.45-93.53,15.45-201.91,4.86-233.74c-2.26-0.59-4.33-1.68-6.06-3.17
									c-289.9-31.2-559.98,7.51-633.39,19.62C1180.46,1886.34,1178.27,1887.73,1175.8,1888.51z"/>
							</g>
						</g>
					</g>
				</g>
			</g>
		</g>
		<g>
			<g>
				<g>
					<g>
						<g>
							<g>
								<path class="st13" d="M1646.79,2447.57c0,0,100.07-28.18,167.21,85.74l30.03-10.14c19.24-6.5,37.78,15.12,27.14,31.65
									l-71.99,111.84c-16.25,25.25-54.59,25.1-75.13,0.15c-25.72-31.25-65.76-65.11-122.81-74.94L1646.79,2447.57z"/>
							</g>
						</g>
					</g>
				</g>
			</g>
			<g>
				<g>
					<g>
						<g>
							<g>
								<path class="st5" d="M1763.19,2705.56c-20.85,0-41.02-9.55-54.59-26.04c-31.09-37.77-68.36-60.63-110.76-67.94
									c-10.88-1.88-18.19-12.22-16.31-23.11c1.87-10.89,12.17-18.19,23.11-16.31c51.38,8.86,98.01,37.19,134.85,81.94
									c6.34,7.7,15.8,11.93,25.34,11.41c4.38-0.26,12.49-1.86,17.53-9.68l71.83-111.6c-0.21-0.48-0.78-1.26-1.67-1.81
									c-1.09-0.66-1.74-0.43-2.08-0.32l-30.03,10.14c-8.98,3.03-18.83-0.64-23.63-8.79c-58.04-98.49-141.17-77.56-144.68-76.61
									c-10.6,2.84-21.61-3.4-24.52-14.01c-2.91-10.6,3.22-21.55,13.8-24.53c1.1-0.31,107.1-28.61,181.13,81.01l15.12-5.11
									c17.15-5.79,36.29,0.13,47.67,14.72c10.9,13.98,11.96,32.31,2.69,46.71l-71.99,111.84c-10.67,16.58-28.47,26.77-48.83,27.96
									C1765.84,2705.53,1764.51,2705.56,1763.19,2705.56z"/>
							</g>
						</g>
					</g>
				</g>
			</g>
		</g>
		<g>
			<g>
				<g>
					<g>
						<g>
							<g>
								<path class="st13" d="M1304.66,2485.08c0,0,129.65-8.06,187.9,108.64l30.37-9.01c19.46-5.77,36.24,16.59,24.56,32.75
									l-78.98,109.29c-17.83,24.67-55.68,23.06-74.2-2.73c-23.19-32.29-60.34-67.74-115.97-79.78L1304.66,2485.08z"/>
							</g>
						</g>
					</g>
				</g>
			</g>
			<g>
				<g>
					<g>
						<g>
							<g>
								<path class="st5" d="M1433.48,2764.34c-0.03,0-0.07,0-0.1,0c-21.77-0.03-42.45-10.74-55.31-28.65
									c-27.88-38.82-62.85-63.01-103.96-71.9c-10.8-2.34-17.66-12.98-15.32-23.78c2.33-10.8,12.98-17.65,23.77-15.32
									c50.38,10.9,94.63,41.21,127.99,87.66c5.38,7.49,13.93,11.97,22.88,11.98c0.01,0,0.02,0,0.04,0
									c4.54,0,12.98-1.22,18.83-9.31l78.98-109.29c0.05-0.19-0.33-1.05-1.15-1.61c-0.65-0.45-1.04-0.39-1.52-0.24l-30.37,9.01
									c-9.34,2.75-19.25-1.56-23.58-10.24c-51.43-103.02-164.09-97.87-168.82-97.61c-11.03,0.51-20.47-7.78-21.12-18.78
									c-0.65-11,7.7-20.46,18.7-21.14c5.62-0.35,132.63-6.86,198.95,104.83l14.87-4.41c17.2-5.1,35.82,1.44,46.33,16.26
									c10.34,14.58,10.39,33.18,0.13,47.37l-78.98,109.29C1472.84,2754.91,1454.16,2764.33,1433.48,2764.34z"/>
							</g>
						</g>
					</g>
				</g>
			</g>
		</g>
		<g>
			<g>
				<g>
					<g>
						<g>
							<path class="st3" d="M1506.56,1179.51c-21.15-25.02-58.58-28.17-83.6-7.02c-8.26,6.98-14.09,15.76-17.49,25.26
								c-9.94,1.77-19.56,6.05-27.82,13.03c-25.02,21.15-28.17,58.58-7.02,83.6c21.15,25.02,58.58,28.17,83.6,7.02
								c21.15,25.02,58.58,28.17,83.6,7.02c25.02-21.15,28.17-58.58,7.02-83.6c-6.98-8.26-15.76-14.09-25.26-17.49
								C1517.83,1197.39,1513.55,1187.77,1506.56,1179.51z"/>
						</g>
					</g>
				</g>
			</g>
		</g>
		<g class="st4">
			<g>
				<g>
					<g>
						<g>
							<path class="st5" d="M1537.83,1308.42c11.85-10.01,18.73-23.69,20.51-37.96l-0.66-2.58c-41.05,54.02-101.37,0.23-101.37,0.23
								c-35.95,35.95-87.76-7.48-99.34-18.09c-1.59,15.47,2.83,31.54,13.66,44.36c21.15,25.03,58.58,28.17,83.6,7.02
								C1475.38,1326.43,1512.81,1329.57,1537.83,1308.42z"/>
						</g>
					</g>
				</g>
			</g>
		</g>
		<g>
			<g>
				<g>
					<g>
						<g>
							<path class="st5" d="M1499.67,1337.59c-2.11,0-4.23-0.09-6.36-0.27c-15.14-1.27-29.21-6.99-40.73-16.39
								c-30.53,17.26-70.08,10.97-93.53-16.78c-26.5-31.36-22.55-78.44,8.81-104.95c7.8-6.58,16.89-11.48,26.66-14.41
								c4.51-9.15,10.85-17.3,18.65-23.88c15.2-12.84,34.55-19.01,54.3-17.33c19.82,1.67,37.81,10.95,50.65,26.14
								c6.58,7.79,11.48,16.88,14.4,26.66c9.15,4.51,17.3,10.86,23.88,18.65c12.84,15.2,18.99,34.48,17.33,54.3
								c-1.67,19.82-10.95,37.81-26.15,50.65C1534.05,1331.45,1517.22,1337.59,1499.67,1337.59z M1454.22,1286.25
								c4.31,0,8.58,1.82,11.58,5.37c7.62,9.01,18.29,14.52,30.04,15.51c11.74,0.96,23.19-2.66,32.21-10.28
								c9.01-7.62,14.52-18.29,15.51-30.04c0.99-11.76-2.66-23.2-10.28-32.21c-4.98-5.89-11.47-10.39-18.79-13.01
								c-5.11-1.83-8.85-6.26-9.8-11.6c-1.37-7.66-4.72-14.82-9.69-20.7l0,0c-7.62-9.01-18.29-14.52-30.04-15.51
								c-11.75-0.98-23.2,2.67-32.21,10.28c-5.89,4.98-10.39,11.47-13.01,18.79c-1.83,5.11-6.25,8.85-11.6,9.8
								c-7.66,1.37-14.82,4.72-20.71,9.69c-9.01,7.61-14.52,18.28-15.5,30.04c-0.99,11.76,2.66,23.2,10.28,32.21
								c7.62,9.01,18.29,14.52,30.04,15.51c11.75,0.98,23.2-2.67,32.21-10.28C1447.3,1287.43,1450.77,1286.25,1454.22,1286.25z"/>
						</g>
					</g>
				</g>
			</g>
		</g>
		<g>
			<g>
				<g>
					<g>
						<g>
							<g>
								<path class="st3" d="M785.7,1468.57c18.4,25.05,53.62,30.44,78.67,12.04c8.27-6.08,14.35-14,18.19-22.77
									c9.52-1.04,18.9-4.46,27.17-10.54c25.05-18.4,30.44-53.62,12.04-78.67c-18.4-25.05-53.62-30.44-78.67-12.04
									c-18.4-25.05-53.62-30.44-78.67-12.04c-25.05,18.4-30.44,53.62-12.04,78.67c6.08,8.27,14,14.35,22.78,18.19
									C776.2,1450.91,779.63,1460.3,785.7,1468.57z"/>
							</g>
						</g>
					</g>
				</g>
			</g>
		</g>
		<g>
			<g>
				<g>
					<g>
						<g>
							<path class="st5" d="M835.5,1398.11c-0.72,0-1.45-0.07-2.18-0.21c-6.16-1.2-10.19-7.16-8.99-13.32
								c0.31-1.63,8.23-40.04,50.07-47.91c6.15-1.15,12.1,2.9,13.27,9.06c1.16,6.17-2.9,12.11-9.07,13.27
								c-26.84,5.05-31.91,29.66-31.96,29.91C845.58,1394.34,840.82,1398.11,835.5,1398.11z"/>
						</g>
					</g>
				</g>
			</g>
		</g>
		<g class="st4">
			<g>
				<g>
					<g>
						<g>
							<path class="st5" d="M931.88,1411.28c-40.43,25.33-58.54,7.66-58.54,7.66s-9.3,41.59-46.6,31.49
								c-25.35-6.87-17.78-37.17-17.78-37.17c-30.42,6.08-57.34-8.55-66.77-14.55c1.36,8.59,4.69,17,10.19,24.5
								c6.08,8.27,14,14.35,22.78,18.19c1.03,9.52,4.46,18.9,10.54,27.17c18.4,25.05,53.62,30.44,78.67,12.04
								c8.27-6.08,14.35-14,18.19-22.77c9.52-1.04,18.9-4.46,27.17-10.54C922.02,1438.28,929.54,1425.21,931.88,1411.28z"/>
						</g>
					</g>
				</g>
			</g>
		</g>
		<g>
			<g>
				<g>
					<g>
						<g>
							<path class="st5" d="M831.16,1506.65c-21.98,0-43.68-10.08-57.66-29.11c0,0,0,0,0,0c-5.72-7.8-9.79-16.7-11.97-26.12
								c-8.33-4.9-15.62-11.44-21.34-19.24c-11.29-15.37-15.92-34.23-13.04-53.09c2.89-18.86,12.94-35.46,28.32-46.76
								c27.95-20.51,65.99-17.67,90.6,4.95c30.26-14.21,67.42-5.56,87.93,22.38c23.31,31.74,16.45,76.53-15.29,99.85
								c-7.8,5.73-16.7,9.79-26.12,11.97c-4.9,8.34-11.45,15.62-19.24,21.34C860.64,1502.15,845.83,1506.65,831.16,1506.65z
								 M797.91,1459.6c13.43,18.28,39.21,22.22,57.5,8.8c5.78-4.24,10.37-9.99,13.27-16.64c2.17-4.97,6.84-8.4,12.24-8.99
								c7.2-0.78,14.06-3.44,19.85-7.69c18.28-13.43,22.22-39.22,8.8-57.5c-13.42-18.28-39.22-22.23-57.5-8.8
								c-6.73,4.95-16.22,3.51-21.18-3.24c-13.42-18.27-39.2-22.22-57.5-8.8c-8.85,6.5-14.64,16.06-16.3,26.93
								c-1.67,10.86,1,21.71,7.5,30.57c4.25,5.79,10,10.38,16.64,13.27c4.98,2.18,8.4,6.85,8.99,12.24
								C791.01,1446.96,793.67,1453.82,797.91,1459.6L797.91,1459.6z"/>
						</g>
					</g>
				</g>
			</g>
		</g>
		<g>
			<g>
				<g>
					<g>
						<g>
							<path class="st3" d="M1205.86,1182.63c-16.66-26.24-51.43-34.01-77.67-17.35c-8.67,5.5-15.27,13-19.69,21.49
								c-9.57,0.39-19.16,3.17-27.82,8.67c-26.24,16.66-34.01,51.43-17.35,77.67c16.66,26.24,51.43,34.01,77.67,17.35
								c16.66,26.24,51.43,34.01,77.67,17.35s34.01-51.43,17.35-77.67c-5.5-8.66-13-15.27-21.49-19.69
								C1214.14,1200.89,1211.36,1191.3,1205.86,1182.63z"/>
						</g>
					</g>
				</g>
			</g>
		</g>
		<g>
			<g>
				<g>
					<g>
						<g>
							<path class="st5" d="M1115.74,1239.04c-6.03,0-11.05-4.74-11.34-10.83c-0.46-9.76-1.48-59.2,23.25-73.99
								c5.39-3.22,12.36-1.46,15.58,3.92c3.22,5.39,1.46,12.36-3.92,15.58c-9.34,5.58-13.09,34.61-12.21,53.42
								c0.29,6.27-4.55,11.59-10.82,11.88C1116.1,1239.03,1115.92,1239.04,1115.74,1239.04z"/>
						</g>
					</g>
				</g>
			</g>
		</g>
		<g class="st4">
			<g>
				<g>
					<g>
						<g>
							<path class="st5" d="M1226.51,1218.83c0.41,89.88-75.7,38.57-75.7,38.57c-20.47,20.63-56.08,25.37-78.89,26.15
								c18.27,17.53,46.74,21.09,69.06,6.92c16.66,26.24,51.43,34.01,77.68,17.35c26.24-16.66,34.01-51.43,17.35-77.67
								C1233.3,1225.86,1230.09,1222.09,1226.51,1218.83z"/>
						</g>
					</g>
				</g>
			</g>
		</g>
		<g>
			<g>
				<g>
					<g>
						<g>
							<path class="st5" d="M1188.65,1331.76c-5.22,0-10.49-0.58-15.71-1.74c-14.05-3.14-26.53-10.26-36.21-20.48
								c-31.16,12.12-67.62,0.96-86.19-28.3c-10.23-16.11-13.57-35.23-9.41-53.85c4.16-18.62,15.32-34.5,31.43-44.73
								c8.16-5.18,17.32-8.64,26.88-10.17c5.45-7.99,12.48-14.81,20.64-19.99c33.25-21.11,77.48-11.23,98.58,22.03
								c5.19,8.16,8.64,17.33,10.18,26.87c7.98,5.45,14.8,12.48,19.99,20.64c10.22,16.11,13.56,35.23,9.4,53.85
								c-4.16,18.62-15.32,34.5-31.43,44.73C1215.2,1327.97,1202.04,1331.76,1188.65,1331.76z M1140.98,1275.32
								c5.01,0,9.92,2.49,12.8,7.03c5.89,9.27,15.03,15.7,25.76,18.1c10.72,2.4,21.73,0.47,31.01-5.42
								c9.28-5.89,15.7-15.03,18.1-25.76c2.39-10.72,0.47-21.73-5.42-31.01c-3.85-6.06-9.27-11.03-15.69-14.37
								c-4.82-2.51-7.92-7.4-8.14-12.83c-0.29-7.24-2.48-14.26-6.32-20.31c0,0,0,0,0,0c-12.15-19.14-37.62-24.83-56.76-12.68
								c-6.06,3.84-11.03,9.27-14.38,15.7c-2.51,4.81-7.4,7.92-12.82,8.14c-7.24,0.29-14.26,2.48-20.32,6.32
								c-9.28,5.89-15.7,15.04-18.1,25.76c-2.39,10.72-0.47,21.73,5.42,31.01c12.16,19.15,37.63,24.83,56.77,12.68
								C1135.39,1276.08,1138.2,1275.32,1140.98,1275.32z"/>
						</g>
					</g>
				</g>
			</g>
		</g>
		<g>
			<g>
				<g>
					<g>
						<g>
							<path class="st5" d="M1473.22,1310.44c-24.03,0-44.29-15.16-53.73-26.23c-4.07-4.78-3.49-11.95,1.28-16.02
								c4.77-4.06,11.92-3.5,15.99,1.25c1.12,1.29,26.55,30.06,55.53,12.65c5.38-3.22,12.36-1.49,15.59,3.9
								c3.23,5.38,1.48,12.36-3.9,15.59C1493.43,1307.92,1483.01,1310.44,1473.22,1310.44z"/>
						</g>
					</g>
				</g>
			</g>
		</g>
		<g>
			<g>
				<g>
					<g>
						<g>
							<path class="st5" d="M1040.01,1496.58c-4.17,0-8.18-2.3-10.17-6.28c-9.63-19.26,4.62-49.7,7.57-55.61
								c2.8-5.62,9.61-7.9,15.24-5.08c5.61,2.81,7.89,9.63,5.08,15.24c-5.27,10.61-10.83,28.77-7.57,35.29
								c2.81,5.61,0.53,12.44-5.08,15.24C1043.45,1496.19,1041.71,1496.58,1040.01,1496.58z"/>
						</g>
					</g>
				</g>
			</g>
		</g>
		<g>
			<g>
				<g>
					<g>
						<g>
							<path class="st5" d="M729.45,1610.16c-2.93,0-5.85-1.12-8.07-3.36c-4.39-4.44-4.4-11.58,0.02-16
								c1.06-1.06,26.53-26.05,68.63-26.05c6.27,0,11.36,5.09,11.36,11.36s-5.09,11.36-11.36,11.36c-32.36,0-52.41,19.25-52.6,19.44
								C735.21,1609.08,732.33,1610.16,729.45,1610.16z"/>
						</g>
					</g>
				</g>
			</g>
		</g>
		<g>
			<g>
				<g>
					<g>
						<g>
							<path class="st3" d="M2035.12,2512.76c-4.62-27.47-30.63-46-58.11-41.38c-9.07,1.52-17.13,5.42-23.74,10.89
								c-8.04-3.01-16.93-4.05-26-2.53c-27.47,4.62-46,30.63-41.38,58.11c4.62,27.47,30.63,46,58.11,41.38
								c4.62,27.47,30.63,46,58.11,41.38c27.47-4.62,46-30.63,41.38-58.11c-1.52-9.07-5.42-17.14-10.89-23.74
								C2035.6,2530.73,2036.64,2521.83,2035.12,2512.76z"/>
						</g>
					</g>
				</g>
			</g>
		</g>
		<g class="st4">
			<g>
				<g>
					<g>
						<g>
							<path class="st5" d="M2002.1,2620.61c13.01-2.19,23.97-9.21,31.46-18.87l0.64-2.17c-53.45,21.72-74.25-43.78-74.25-43.78
								c-41.89,10.71-60.95-43.52-64.82-56.31c-7.87,10.63-11.61,24.3-9.24,38.37c4.62,27.47,30.63,46,58.11,41.38
								C1948.61,2606.7,1974.62,2625.23,2002.1,2620.61z"/>
						</g>
					</g>
				</g>
			</g>
		</g>
		<g>
			<g>
				<g>
					<g>
						<g>
							<path class="st5" d="M1993.7,2636.47c-26.88,0-51.13-16.62-60.96-41.45c-30.25-1.32-56.58-23.63-61.8-54.66
								c-2.91-17.28,1.09-34.65,11.26-48.93c10.17-14.27,25.28-23.73,42.56-26.63c8.54-1.44,17.29-1.14,25.71,0.83
								c7.32-4.61,15.5-7.75,24.03-9.19c35.69-5.99,69.56,18.14,75.56,53.81c0,0,0,0,0,0c1.43,8.54,1.14,17.29-0.83,25.71
								c4.61,7.32,7.75,15.49,9.18,24.03c2.91,17.28-1.09,34.65-11.26,48.92c-10.16,14.27-25.27,23.73-42.55,26.63
								C2000.95,2636.17,1997.3,2636.47,1993.7,2636.47z M1944.01,2564.08c7.26,0,13.68,5.24,14.92,12.64
								c3.22,19.19,21.47,32.17,40.66,28.96c9.3-1.56,17.43-6.65,22.9-14.33c5.47-7.68,7.62-17.03,6.05-26.32
								c-1.02-6.07-3.65-11.81-7.61-16.59c-3.47-4.18-4.43-9.9-2.52-14.98c2.18-5.82,2.79-12.1,1.77-18.17
								c-3.23-19.19-21.49-32.19-40.66-28.95c-6.15,1.04-11.74,3.6-16.59,7.62c-4.19,3.47-9.9,4.42-14.98,2.52
								c-5.82-2.18-12.11-2.8-18.17-1.77c-9.3,1.56-17.43,6.65-22.9,14.33c-5.47,7.68-7.62,17.03-6.05,26.32
								c3.22,19.2,21.47,32.16,40.65,28.96C1942.33,2564.15,1943.17,2564.08,1944.01,2564.08z"/>
						</g>
					</g>
				</g>
			</g>
		</g>
		<g>
			<g>
				<g>
					<g>
						<g>
							<path class="st5" d="M1993.13,2561.29c-1.13,0-2.28-0.27-3.34-0.83c-3.51-1.84-4.85-6.17-3.02-9.68
								c0.43-0.85,9.64-19.23-3.57-30.99c-2.96-2.64-3.23-7.18-0.59-10.14c2.62-2.96,7.16-3.24,10.14-0.59
								c17.36,15.44,12.01,38.41,6.75,48.4C1998.21,2559.9,1995.72,2561.29,1993.13,2561.29z"/>
						</g>
					</g>
				</g>
			</g>
		</g>
		<g class="st4">
			<g>
				<g>
					<g>
						<g>
							<path class="st5" d="M1480.77,2630.57c17.05-3.14,34.22-6.74,51.49-10.79c-0.09-0.17-0.14-0.36-0.22-0.53
								C1519.15,2594.56,1498.63,2608.96,1480.77,2630.57z"/>
						</g>
					</g>
				</g>
			</g>
		</g>
		<g class="st4">
			<g>
				<g>
					<g>
						<g>
							<path class="st5" d="M1445.25,2685.81c0,0-13.82-20.66-37.56-44.28l0,0c0,0,0,0-0.01-0.01c-1.93-1.92-3.96-3.85-6.01-5.8
								c-0.72-0.68-1.42-1.36-2.16-2.04c-1.78-1.66-3.63-3.31-5.51-4.97c-1.13-1-2.25-1.99-3.4-2.99c-1.71-1.48-3.47-2.94-5.25-4.4
								c-1.44-1.18-2.89-2.35-4.37-3.52c-1.67-1.32-3.35-2.62-5.07-3.92c-1.72-1.3-3.48-2.57-5.26-3.84
								c-1.62-1.16-3.24-2.32-4.9-3.45c-2.01-1.37-4.08-2.69-6.15-4.02c-1.55-0.99-3.07-1.99-4.65-2.94
								c-2.42-1.47-4.92-2.86-7.42-4.24c-1.33-0.74-2.63-1.51-3.98-2.23c-3.9-2.05-7.87-4.01-11.93-5.82
								c-1.38-0.61-2.88-1.23-4.46-1.86c-0.48-0.19-0.99-0.38-1.48-0.57c-1.16-0.45-2.35-0.89-3.6-1.35
								c-0.59-0.21-1.19-0.43-1.8-0.64c-1.31-0.46-2.67-0.92-4.07-1.39c-0.56-0.19-1.1-0.37-1.68-0.56c-1.99-0.65-4.05-1.3-6.2-1.96
								c-0.1-0.03-0.2-0.06-0.3-0.09c-2.07-0.63-4.22-1.26-6.43-1.9c-0.7-0.2-1.42-0.4-2.14-0.61c-1.66-0.47-3.36-0.94-5.1-1.42
								c-0.84-0.23-1.69-0.46-2.54-0.69c-0.62-0.17-1.21-0.33-1.83-0.5l0,0.01c-70.89-18.86-194.34-39.84-270.58-51.99
								c-36.52-5.82-63.66-36.99-64.24-73.96c-2.25-143.96-29.06-470-41.48-614.7c-3.94-45.9,18.73-90.32,58.81-113.04
								c343.52-194.82,797.35-95.03,798.44-94.79c-0.28-1.21-0.56-2.52-0.84-3.71c-6.32-26.72-21.05-49.38-40.75-65.36
								c0,0-469.32-104.42-816.15,113.58c-98.11,66.89-84.07,102.66-80.15,130.62c25.93,184.72,75.27,463.62,53.85,665.44
								c-5.34,50.29,27.15,116.48,73.35,132.2c89.18,30.34,204.72,51.86,334.07,50.44c46.85,14.79,79.12,46.39,100.01,75.47
								c18.52,25.79,56.37,27.4,74.2,2.73l67.36-93.21c-0.44-5.2-1.62-10.03-3.84-14.28
								C1505.21,2567.84,1445.25,2685.81,1445.25,2685.81z"/>
						</g>
					</g>
				</g>
			</g>
		</g>
		<g class="st8">
			<g>
				<g>
					<g>
						<g>
							<path class="st9" d="M2611.75,2420.69"/>
						</g>
					</g>
				</g>
			</g>
		</g>
		<g>
			<g>
				<g>
					<g>
						<g>
							<path class="st3" d="M2616.4,2028.68c-4.62-27.47-30.63-46-58.11-41.38c-9.07,1.52-17.13,5.42-23.74,10.89
								c-8.04-3.01-16.93-4.05-26-2.53c-27.47,4.62-46,30.63-41.38,58.11c4.62,27.47,30.63,46,58.11,41.38
								c4.62,27.47,30.63,46,58.11,41.38c27.47-4.62,46-30.63,41.38-58.11c-1.52-9.07-5.42-17.14-10.89-23.74
								C2616.89,2046.64,2617.93,2037.75,2616.4,2028.68z"/>
						</g>
					</g>
				</g>
			</g>
		</g>
		<g class="st4">
			<g>
				<g>
					<g>
						<g>
							<path class="st5" d="M2583.38,2136.53c13.01-2.19,23.97-9.21,31.46-18.87l0.64-2.17c-53.45,21.72-74.25-43.78-74.25-43.78
								c-41.89,10.71-60.95-43.52-64.82-56.31c-7.87,10.63-11.61,24.3-9.24,38.37c4.62,27.47,30.63,46,58.11,41.38
								C2529.89,2122.62,2555.91,2141.15,2583.38,2136.53z"/>
						</g>
					</g>
				</g>
			</g>
		</g>
		<g>
			<g>
				<g>
					<g>
						<g>
							<path class="st5" d="M2574.99,2152.38c-26.88,0-51.12-16.61-60.96-41.43c-12.55-0.52-24.7-4.66-35.17-12.12
								c-14.27-10.17-23.73-25.28-26.64-42.56c-2.91-17.28,1.09-34.65,11.26-48.92c10.16-14.27,25.27-23.73,42.55-26.63
								c8.54-1.44,17.29-1.15,25.71,0.83c7.32-4.61,15.49-7.75,24.03-9.19c35.63-6,69.57,18.14,75.57,53.81v0
								c1.43,8.53,1.14,17.29-0.83,25.71c4.61,7.32,7.75,15.49,9.19,24.03c6,35.66-18.14,69.56-53.81,75.56
								C2582.24,2152.08,2578.58,2152.38,2574.99,2152.38z M2525.27,2080c3.13,0,6.21,0.97,8.79,2.81c3.27,2.33,5.48,5.87,6.15,9.83
								c3.22,19.19,21.48,32.15,40.66,28.96c19.19-3.23,32.18-21.47,28.95-40.66c-1.02-6.07-3.65-11.81-7.61-16.59
								c-3.46-4.18-4.42-9.89-2.52-14.97c2.18-5.83,2.8-12.12,1.78-18.18c-3.23-19.19-21.48-32.15-40.66-28.96
								c-6.15,1.04-11.74,3.6-16.59,7.62c-4.19,3.46-9.9,4.43-14.98,2.51c-5.82-2.18-12.12-2.79-18.17-1.77
								c-9.3,1.56-17.43,6.65-22.9,14.33s-7.62,17.03-6.05,26.32c1.56,9.3,6.65,17.43,14.33,22.9c7.68,5.47,17.02,7.62,26.32,6.06
								C2523.6,2080.06,2524.44,2080,2525.27,2080z"/>
						</g>
					</g>
				</g>
			</g>
		</g>
		<g>
			<g>
				<g>
					<g>
						<g>
							<path class="st5" d="M2589.78,2088.28c-1.78,0-3.59-0.42-5.28-1.31c-5.54-2.92-7.68-9.76-4.79-15.3
								c0.64-1.24,15.3-30.39-5.64-49.02c-4.69-4.17-5.11-11.35-0.94-16.04c4.17-4.69,11.35-5.11,16.04-0.94
								c27.46,24.42,18.99,60.74,10.68,76.54C2597.82,2086.07,2593.87,2088.28,2589.78,2088.28z"/>
						</g>
					</g>
				</g>
			</g>
		</g>
		<g>
			<g>
				<g>
					<g>
						<g>
							<path class="st7" d="M2618.29,2261.19c0,0-67.4-140.86-39.99-157.64s40.37-5.87,40.37-5.87s-48.54-90.87-5.39-91.53
								c43.15-0.66,130.59,121.65,136.74,193.25S2672.17,2328.69,2618.29,2261.19z"/>
						</g>
					</g>
				</g>
			</g>
		</g>
		<g>
			<g>
				<g>
					<g>
						<g>
							<path class="st5" d="M2673.97,2311.27c-26.38,0-51.67-12.99-71.31-37.6c-0.95-1.19-1.76-2.48-2.41-3.85
								c-0.7-1.47-17.44-36.56-31.05-74.39c-22.98-63.89-23.37-95.45-1.34-108.94c6.97-4.26,13.41-7.19,19.32-9.11
								c-9.7-24.44-17.28-54.77-6.03-73.87c6.47-10.98,17.77-17.15,31.82-17.37c58.56-0.69,150.33,134.17,156.97,211.53
								c3.93,45.76-23.07,90.89-64.21,107.31C2695.17,2309.21,2684.48,2311.27,2673.97,2311.27z M2635.3,2250.41
								c16.08,19.15,35.75,25.35,55.61,17.43c21.58-8.61,41.97-34.3,39.18-66.74c-2.5-29.19-22.48-73.88-50.87-113.85
								c-30.77-43.32-55.01-59.09-63.95-60.93c-0.56,10.93,8.78,38.92,21.04,61.94c4.51,8.46,2.38,18.93-5.07,24.96
								c-6.86,5.55-16.46,5.91-23.66,1.11c-1.78-0.43-7.13-0.21-15.87,4.56C2589.36,2135.54,2608.89,2194.73,2635.3,2250.41z
								 M2605.86,2113.04C2605.86,2113.05,2605.87,2113.05,2605.86,2113.04C2605.87,2113.05,2605.86,2113.05,2605.86,2113.04z
								 M2605.83,2113.02c0,0,0.01,0.01,0.01,0.01C2605.84,2113.03,2605.84,2113.02,2605.83,2113.02z M2605.81,2113
								c0,0,0.01,0.01,0.01,0.01C2605.82,2113.01,2605.81,2113.01,2605.81,2113z M2605.78,2112.98c0.01,0.01,0.01,0.01,0.02,0.02
								C2605.8,2112.99,2605.79,2112.99,2605.78,2112.98z"/>
						</g>
					</g>
				</g>
			</g>
		</g>
		<g>
			<g>
				<g>
					<g>
						<g>
							<path class="st5" d="M2339.08,2049.53c-4.73,0-9.38-2.21-12.34-6.35c-4.86-6.81-3.29-16.27,3.53-21.13
								c11.91-8.51,18.39-17.78,19.25-27.55c1.5-17.09-13.49-32.63-13.64-32.79c-5.83-5.96-5.79-15.53,0.14-21.4
								c5.93-5.86,15.45-5.86,21.34,0.03c1.02,1.02,24.95,25.34,22.37,56.51c-1.58,19.11-12.29,35.89-31.85,49.85
								C2345.2,2048.61,2342.12,2049.53,2339.08,2049.53z"/>
						</g>
					</g>
				</g>
			</g>
		</g>
		<g>
			<g>
				<g>
					<g>
						<g>
							<path class="st5" d="M2396.31,2021.21c-10.46,0-20.84-3.36-29.72-9.69c-6.81-4.86-8.39-14.32-3.53-21.13
								c4.85-6.8,14.32-8.4,21.13-3.53c4.3,3.07,9.3,4.47,14.13,3.95c2.41-0.27,6.89-1.32,9.79-5.38c4.85-6.8,14.32-8.4,21.13-3.53
								c6.81,4.86,8.39,14.32,3.53,21.13c-7.22,10.12-18.28,16.48-31.13,17.9C2399.86,2021.11,2398.08,2021.21,2396.31,2021.21z"/>
						</g>
					</g>
				</g>
			</g>
		</g>
		<g>
			<g>
				<g>
					<g>
						<g>
							<g>
								<path class="st6" d="M1923.79,2194.39c0,0-106.61-156.87-82.63-178.27c23.97-21.4,38.67-12.98,38.67-12.98
									s-63.98-80.75-21.64-89.1c42.34-8.35,150.21,96.39,169.04,165.74C2046.06,2149.11,1988.86,2251.18,1923.79,2194.39z"/>
							</g>
						</g>
					</g>
				</g>
			</g>
			<g>
				<g class="st4">
					<g>
						<g>
							<g>
								<g>
									<path class="st5" d="M1913.5,2178.82c6.27,9.64,10.29,15.57,10.29,15.57c65.06,56.79,122.26-45.27,103.43-114.62
										c-0.99-3.66-2.29-7.44-3.76-11.28l-25.27-18.95C2008.66,2133.23,1950.5,2166.34,1913.5,2178.82z"/>
								</g>
							</g>
						</g>
					</g>
				</g>
				<g class="st4">
					<g>
						<g>
							<g>
								<g>
									<path class="st5" d="M1875.33,2116.5l-5.9-44.24l-17.75-1C1858.32,2085.65,1866.66,2101.29,1875.33,2116.5z"/>
								</g>
							</g>
						</g>
					</g>
				</g>
			</g>
			<g>
				<g>
					<g>
						<g>
							<g>
								<path class="st5" d="M1930,2258.9c-9.48,0-17.9-6.77-19.65-16.43c-1.98-10.87,5.23-21.28,16.1-23.25
									c34.39-6.25,54.33-27.72,65-44.63c19.71-31.23,22.48-67.5,16.47-89.58c-7.68-28.27-35.3-68.68-70.38-102.94
									c-38-37.12-64.67-48.33-73.79-48.54c1.4,10.85,15.59,36.73,31.76,57.19c5.94,7.52,5.72,18.2-0.53,25.46
									c-5.76,6.68-15.15,8.74-23.09,5.31c-1.82-0.12-7.02,1.07-14.7,7.24c0.49,5.91,4.97,26.51,38.42,79.91
									c5.86,9.36,3.03,21.7-6.33,27.57c-9.36,5.86-21.7,3.03-27.57-6.33c-45.36-72.39-55.17-109.67-33.88-128.68
									c6.09-5.44,11.91-9.47,17.38-12.41c-13.91-22.31-26.78-50.8-19.11-71.61c4.4-11.96,14.42-20.05,28.21-22.77
									c57.27-11.31,171.87,105.18,192.21,180.12c10.12,37.26,1.78,84.91-21.25,121.41c-21.44,33.97-53.13,55.63-91.67,62.64
									C1932.4,2258.79,1931.19,2258.9,1930,2258.9z M1870.02,2020.56L1870.02,2020.56L1870.02,2020.56z M1869.97,2020.53
									c0.01,0,0.01,0.01,0.02,0.01C1869.98,2020.54,1869.98,2020.53,1869.97,2020.53z M1869.89,2020.49
									c0.02,0.01,0.05,0.03,0.07,0.04C1869.94,2020.51,1869.92,2020.5,1869.89,2020.49z"/>
							</g>
						</g>
					</g>
				</g>
			</g>
		</g>
		<g>
			<g>
				<g>
					<g>
						<g>
							<path class="st3" d="M747.65,2528.17c-29.76-13.18-64.57,0.25-77.75,30.01c-4.35,9.83-5.75,20.19-4.67,30.16
								c-8.11,5.9-14.85,13.89-19.2,23.72c-13.18,29.76,0.25,64.57,30.01,77.75c29.76,13.18,64.57-0.25,77.75-30.01
								c29.76,13.18,64.57-0.25,77.75-30.01c13.18-29.76-0.25-64.57-30.01-77.75c-9.83-4.35-20.19-5.75-30.16-4.67
								C765.47,2539.26,757.47,2532.52,747.65,2528.17z"/>
						</g>
					</g>
				</g>
			</g>
		</g>
		<g class="st4">
			<g>
				<g>
					<g>
						<g>
							<path class="st5" d="M831.54,2629.79c6.24-14.09,6.45-29.29,1.85-42.82l-1.71-2.02c-13.23,66.09-90.48,44.2-90.48,44.2
								c-16.52,47.73-81.66,31.4-96.62,26.95c5.3,14.51,16.22,26.95,31.46,33.71c29.76,13.18,64.57-0.25,77.75-30.01
								C783.54,2672.98,818.35,2659.54,831.54,2629.79z"/>
						</g>
					</g>
				</g>
			</g>
		</g>
		<g>
			<g>
				<g>
					<g>
						<g>
							<path class="st5" d="M699.8,2710.01c-10.01,0-20.17-2.04-29.9-6.35c-18.09-8.01-31.98-22.59-39.1-41.05
								c-7.13-18.46-6.64-38.59,1.38-56.68c4.1-9.26,10.1-17.59,17.56-24.45c0.07-10.13,2.21-20.16,6.31-29.43
								c8.02-18.1,22.6-31.98,41.05-39.11c18.46-7.13,38.59-6.64,56.68,1.38l0,0c9.27,4.11,17.59,10.1,24.45,17.56
								c10.13,0.07,20.16,2.2,29.43,6.31c18.1,8.02,31.98,22.6,39.11,41.06c7.13,18.46,6.64,38.59-1.38,56.68
								c-8.02,18.09-22.6,31.98-41.05,39.1c-14.08,5.44-29.12,6.44-43.5,3.06C746.85,2698.31,723.77,2710.01,699.8,2710.01z
								 M723.79,2538.25c-5.33,0-10.66,0.98-15.78,2.96c-10.91,4.21-19.53,12.42-24.26,23.11c-3.09,6.98-4.29,14.73-3.46,22.39
								c0.58,5.4-1.76,10.69-6.15,13.88c-6.24,4.54-11.17,10.62-14.26,17.6c-4.74,10.7-5.03,22.59-0.82,33.5
								c4.21,10.91,12.42,19.53,23.11,24.27c22.06,9.77,47.98-0.23,57.76-22.3c1.63-3.67,4.65-6.55,8.4-8
								c3.75-1.45,7.92-1.34,11.59,0.28c10.69,4.74,22.6,5.03,33.5,0.82c10.91-4.21,19.53-12.42,24.26-23.11
								c4.74-10.69,5.03-22.59,0.82-33.5c-4.21-10.91-12.42-19.53-23.11-24.27c-6.99-3.09-14.72-4.28-22.39-3.45
								c-5.35,0.57-10.69-1.76-13.89-6.15c-4.53-6.23-10.62-11.16-17.6-14.26l0,0C735.83,2539.51,729.82,2538.25,723.79,2538.25z"/>
						</g>
					</g>
				</g>
			</g>
		</g>
		<g>
			<g>
				<g>
					<g>
						<g>
							<path class="st5" d="M770.86,2605.03c-3.17,0-6.24-1.67-7.88-4.64c-0.66-1.19-16.17-28.33-42.43-21.35
								c-4.8,1.28-9.73-1.57-11.01-6.38c-1.28-4.8,1.57-9.73,6.38-11.01c31.92-8.51,55.05,15.93,62.81,30.04
								c2.4,4.35,0.81,9.82-3.55,12.22C773.81,2604.67,772.32,2605.03,770.86,2605.03z"/>
						</g>
					</g>
				</g>
			</g>
		</g>
		<g>
			<g>
				<g>
					<g>
						<g>
							<g>
								<path class="st6" d="M1083.93,2163.12c0,0,41.08,158.43,137.29,167.11c96.2,8.68,125.55-59.46,137.2-36.06
									c11.65,23.4-11.79,54.53-11.79,54.53s91.65-40.75,93.54-7.62s-136.82,233.56-366.43,65.57"/>
							</g>
						</g>
					</g>
				</g>
			</g>
			<g>
				<g>
					<g>
						<g>
							<g>
								<path class="st5" d="M1248.35,2493.12c-52.14,0-114.78-17.9-186.43-70.32c-8.91-6.52-10.85-19.04-4.33-27.95
									c6.53-8.92,19.04-10.85,27.95-4.33c84.57,61.87,166.62,78.02,237.28,46.7c55.17-24.45,87.33-69.68,95.4-89.19
									c-13.29,0.77-40.09,8.58-63.48,18.96c-8.33,3.69-18.11,1.3-23.77-5.84c-5.67-7.13-5.81-17.19-0.32-24.47
									c2.75-3.72,6.88-10.89,9.24-18.08c-21.84,14.61-59.73,37.02-120.47,31.55c-108.97-9.83-153.03-174.98-154.85-182.01
									c-2.77-10.69,3.65-21.61,14.34-24.38c10.65-2.76,21.6,3.65,24.38,14.32l0,0c10.52,40.29,52.52,146.16,119.73,152.22
									c51.16,4.61,80.04-15.01,99.15-28c12.39-8.43,23.08-15.69,36.44-12.2c5.34,1.4,12.75,5.16,17.73,15.16
									c4.83,9.71,5.98,19.78,5.09,29.29c23.55-6.71,48.24-9.79,63.46-0.51c9.21,5.62,14.63,14.82,15.26,25.91
									c1.55,27.22-38.3,89.68-104.29,125.56C1327.85,2480.73,1291.73,2493.12,1248.35,2493.12z"/>
							</g>
						</g>
					</g>
				</g>
			</g>
		</g>
		<g class="st4">
			<g>
				<g>
					<g>
						<g>
							<path class="st5" d="M1786.11,1913.19c7.57,45.45,11.66,90.31,0,113.62c-7.57,15.15-34.35,15.97-53.02,15.15
								c-38.14-1.67-55.52-0.75-98.47,0l-3.22-1.53c4.56,10.6,15.27,18.02,27.78,19.23l146.86,3.94c0,0,20.56-108.84-5.07-153.22
								L1786.11,1913.19z"/>
						</g>
					</g>
				</g>
			</g>
		</g>
		<g class="st4">
			<g>
				<g>
					<g>
						<g>
							<path class="st5" d="M1488.9,2036.45c-92.95,5.07-177.15,12.36-224.16,16.79l0.87,6.76c1.67,12.99,14.1,22.63,28.55,22.14
								l141.64-4.82C1458.94,2075.14,1476.26,2057.6,1488.9,2036.45z"/>
						</g>
					</g>
				</g>
			</g>
		</g>
		<g>
			<g>
				<g>
					<g>
						<g>
							<path class="st9" d="M1257.48,1935.37"/>
						</g>
					</g>
				</g>
			</g>
		</g>
		<g class="st4">
			<g>
				<g>
					<g>
						<g>
							<path class="st5" d="M1435.17,2358.61l-5.07-6.09h-7.57c0-7.57-75.75,136.34-340.11,55.14l4.18,8.06
								C1282.2,2549.17,1409.1,2414.65,1435.17,2358.61z"/>
						</g>
					</g>
				</g>
			</g>
		</g>
	</g>
</g>
</svg>
